  0
SECTION
  2
HEADER
  9
$ACADVER
  1
AC1009
  9
$INSBASE
 10
0.0
 20
0.0
 30
0.0
  9
$EXTMIN
 10
0.0
 20
0.0
 30
0.0
  9
$EXTMAX
 10
0.0
 20
0.0
 30
0.0
  0
ENDSEC
  0
SECTION
  2
TABLES
  0
TABLE
  2
VPORT
 70
1
  0
VPORT
  2
*ACTIVE
 70
0
 10
0.0
 20
0.0
 11
1.0
 21
1.0
 12
-5.0
 22
1.0
 13
0.0
 23
0.0
 14
0.1
 24
0.1
 15
0.1
 25
0.1
 16
0.0
 26
0.0
 36
1.0
 17
0.0
 27
0.0
 37
0.0
 40
10.0
 41
1.0
 42
50.0
 43
0.0
 44
0.0
 50
0.0
 51
0.0
 71
0
 72
100
 73
1
 74
1
 75
0
 76
0
 77
0
 78
0
  0
ENDTAB
  0
TABLE
  2
LTYPE
 70
8
  0
LTYPE
  2
CONTINUOUS
 70
0
  3
Solid line
 72
65
 73
0
 40
0.0
  0
LTYPE
  2
DOT
 70
0
  3
. . . . . . .
 72
65
 73
2
 40
0.25
 49
0.0
 49
-0.25
  0
LTYPE
  2
DASHED
 70
0
  3
__ __ __ __ __
 72
65
 73
2
 40
0.8
 49
0.5
 49
-0.3
  0
LTYPE
  2
DASHDOT
 70
0
  3
__ . __ . __ .
 72
65
 73
4
 40
1.0
 49
0.5
 49
-0.25
 49
0.0
 49
-0.25
  0
LTYPE
  2
DIVIDE
 70
0
  3
____ . . ____ . . 
 72
65
 73
6
 40
1.25
 49
0.5
 49
-0.25
 49
0.0
 49
-0.25
 49
0.0
 49
-0.25
  0
LTYPE
  2
BORDER
 70
0
  3
__ __ . __ __ . 
 72
65
 73
6
 40
1.75
 49
0.5
 49
-0.25
 49
0.5
 49
-0.25
 49
0.0
 49
-0.25
  0
LTYPE
  2
HIDDEN
 70
0
  3
__ __ __ __ __
 72
65
 73
2
 40
0.4
 49
0.25
 49
-0.25
  0
LTYPE
  2
CENTER
 70
0
  3
____ _ ____ _ __
 72
65
 73
4
 40
2.0
 49
1.25
 49
-0.25
 49
0.25
 49
-0.25
  0
ENDTAB
  0
TABLE
  2
LAYER
 70
1
  0
LAYER
  2
PYDXF
 70
64
 62
7
  6
continuous
  0
ENDTAB
  0
TABLE
  2
STYLE
 70
1
  0
STYLE
  2
STANDARD
 70
0
 40
0
 41
1.0
 50
0.0
 71
0
 42
1
 3
ARIAL.TTF
 4

  0
ENDTAB
  0
TABLE
  2
VIEW
 70
1
  0
VIEW
  2
BF_TOPVIEW
 70
0
 40
120.0
 10
0.0
 20
0.0
 41
200.0
 11
0.0
 21
0.0
 31
1.0
 12
0.0
 22
0.0
 32
0.0
 42
50.0
 43
0.0
 44
0.0
 50
0.0
 71
0
  0
ENDTAB
  0
ENDSEC
  0
SECTION
  2
BLOCKS
  0
ENDSEC
  0
SECTION
  2
ENTITIES
  0
LINE
  8
0
 10
125.40379333496094
 20
58.16776657104492
 30
0.0
 11
125.39501953125
 21
58.000343322753906
 31
0.0
  0
LINE
  8
0
 10
127.00033569335938
 20
56.39501953125
 30
0.0
 11
127.16777038574219
 21
56.40379333496094
 31
0.0
  0
LINE
  8
0
 10
125.40379333496094
 20
58.16776657104492
 30
0.0
 11
125.40384674072266
 21
58.16809844970703
 31
0.0
  0
LINE
  8
0
 10
36.821990966796875
 20
67.47801208496094
 30
0.0
 11
48.022003173828125
 21
65.80999755859375
 31
0.0
  0
LINE
  8
0
 10
125.40379333496094
 20
58.16776657104492
 30
0.0
 11
125.39855194091797
 21
58.06769561767578
 31
0.0
  0
LINE
  8
0
 10
-125.61003112792969
 20
57.19750213623047
 30
0.0
 11
-125.53394317626953
 21
57.346824645996094
 31
0.0
  0
LINE
  8
0
 10
59.96623992919922
 20
60.65281295776367
 30
0.0
 11
59.89012145996094
 21
60.80220031738281
 31
0.0
  0
LINE
  8
0
 10
-128.59620666503906
 20
57.83223342895508
 30
0.0
 11
-128.59622192382812
 21
57.83256912231445
 31
0.0
  0
LINE
  8
0
 10
-126.3471908569336
 20
59.46623992919922
 30
0.0
 11
-126.19779968261719
 21
59.39012145996094
 31
0.0
  0
LINE
  8
0
 10
36.821990966796875
 20
67.47801208496094
 30
0.0
 11
-0.0019989013671875
 21
67.68400573730469
 31
0.0
  0
LINE
  8
0
 10
41.29846954345703
 20
-24.94339370727539
 30
0.0
 11
41.29825973510742
 21
-24.943655014038086
 31
0.0
  0
LINE
  8
0
 10
39.19721984863281
 20
-22.610214233398438
 30
0.0
 11
39.05660629272461
 21
-22.701528549194336
 31
0.0
  0
LINE
  8
0
 10
-160.27401733398438
 20
39.986000061035156
 30
0.0
 11
-156.29200744628906
 21
61.324005126953125
 31
0.0
  0
LINE
  8
0
 10
38.61021423339844
 20
-23.197219848632812
 30
0.0
 11
38.61003112792969
 21
-23.197500228881836
 31
0.0
  0
LINE
  8
0
 10
-62.342010498046875
 20
66.84001159667969
 30
0.0
 11
-57.660003662109375
 21
65.25601196289062
 31
0.0
  0
LINE
  8
0
 10
59.96623992919922
 20
60.65281295776367
 30
0.0
 11
59.96636199951172
 21
60.65250015258789
 31
0.0
  0
LINE
  8
0
 10
41.29846954345703
 20
-24.94339370727539
 30
0.0
 11
41.32530975341797
 21
-24.90206527709961
 31
0.0
  0
LINE
  8
0
 10
41.52644348144531
 20
-24.4959716796875
 30
0.0
 11
41.52632141113281
 21
-24.49628448486328
 31
0.0
  0
LINE
  8
0
 10
-40.244956970214844
 20
-22.416017532348633
 30
0.0
 11
-40.33369827270508
 21
-22.430072784423828
 31
0.0
  0
LINE
  8
0
 10
-41.29846954345703
 20
-24.94339370727539
 30
0.0
 11
-41.19295883178711
 21
-25.073694229125977
 31
0.0
  0
LINE
  8
0
 10
-41.29846954345703
 20
-24.94339370727539
 30
0.0
 11
-41.1927490234375
 21
-25.073955535888672
 31
0.0
  0
LINE
  8
0
 10
-59.44339370727539
 20
61.29846954345703
 30
0.0
 11
-59.44365310668945
 21
61.29825973510742
 31
0.0
  0
LINE
  8
0
 10
-39.66630172729492
 20
-22.430072784423828
 30
0.0
 11
-39.66663360595703
 21
-22.43001937866211
 31
0.0
  0
LINE
  8
0
 10
-41.07395553588867
 20
-25.192747116088867
 30
0.0
 11
-41.19251251220703
 21
-25.07419204711914
 31
0.0
  0
LINE
  8
0
 10
-39.05660629272461
 20
-25.298471450805664
 30
0.0
 11
-39.19721984863281
 21
-25.389785766601562
 31
0.0
  0
LINE
  8
0
 10
-59.44339370727539
 20
61.29846954345703
 30
0.0
 11
-59.30278015136719
 21
61.38978576660156
 31
0.0
  0
LINE
  8
0
 10
-60.02644348144531
 20
60.4959716796875
 30
0.0
 11
-60.06983947753906
 21
60.334022521972656
 31
0.0
  0
LINE
  8
0
 10
120.9660873413086
 20
-18.153112411499023
 30
0.0
 11
120.88996887207031
 21
-18.302499771118164
 31
0.0
  0
LINE
  8
0
 10
119.66738891601562
 20
-15.903772354125977
 30
0.0
 11
119.5
 21
-15.895000457763672
 31
0.0
  0
LINE
  8
0
 10
120.44339752197266
 20
-16.201528549194336
 30
0.0
 11
120.443115234375
 21
-16.201345443725586
 31
0.0
  0
LINE
  8
0
 10
117.90379333496094
 20
-17.667766571044922
 30
0.0
 11
117.93002319335938
 21
-17.83336639404297
 31
0.0
  0
LINE
  8
0
 10
117.90379333496094
 20
-17.667766571044922
 30
0.0
 11
117.90448760986328
 21
-17.672157287597656
 31
0.0
  0
LINE
  8
0
 10
118.03376007080078
 20
-18.152812957763672
 30
0.0
 11
118.10987854003906
 21
-18.302200317382812
 31
0.0
  0
LINE
  8
0
 10
118.03376007080078
 20
-18.152812957763672
 30
0.0
 11
118.03363800048828
 21
-18.15250015258789
 31
0.0
  0
LINE
  8
0
 10
120.69999694824219
 20
-23.194000244140625
 30
0.0
 11
118.70201110839844
 21
-24.79800033569336
 31
0.0
  0
LINE
  8
0
 10
57.4257698059082
 20
58.807525634765625
 30
0.0
 11
57.3072509765625
 21
58.92604446411133
 31
0.0
  0
LINE
  8
0
 10
-128.59620666503906
 20
58.16776657104492
 30
0.0
 11
-128.60215759277344
 21
58.05418014526367
 31
0.0
  0
LINE
  8
0
 10
-117.89500427246094
 20
-17.5
 30
0.0
 11
-117.89501953125
 21
-17.500349044799805
 31
0.0
  0
LINE
  8
0
 10
57.84757995605469
 20
58.533607482910156
 30
0.0
 11
57.84718704223633
 21
58.53376007080078
 31
0.0
  0
LINE
  8
0
 10
57.84757995605469
 20
58.533607482910156
 30
0.0
 11
58.0040283203125
 21
58.47355651855469
 31
0.0
  0
LINE
  8
0
 10
128.56993103027344
 20
58.33369827270508
 30
0.0
 11
128.56997680664062
 21
58.33336639404297
 31
0.0
  0
LINE
  8
0
 10
128.56993103027344
 20
58.33369827270508
 30
0.0
 11
128.59620666503906
 21
58.16776657104492
 31
0.0
  0
LINE
  8
0
 10
-60.02644348144531
 20
60.4959716796875
 30
0.0
 11
-60.02632141113281
 21
60.49628448486328
 31
0.0
  0
LINE
  8
0
 10
128.56993103027344
 20
58.33369827270508
 30
0.0
 11
128.5265350341797
 21
58.49564743041992
 31
0.0
  0
LINE
  8
0
 10
126.05660247802734
 20
59.29846954345703
 30
0.0
 11
126.05634307861328
 21
59.29825973510742
 31
0.0
  0
LINE
  8
0
 10
41.46623992919922
 20
-24.652812957763672
 30
0.0
 11
41.38996887207031
 21
-24.802499771118164
 31
0.0
  0
LINE
  8
0
 10
41.1927490234375
 20
-22.926044464111328
 30
0.0
 11
41.192481994628906
 21
-22.925777435302734
 31
0.0
  0
LINE
  8
0
 10
-125.4300765991211
 20
58.33369827270508
 30
0.0
 11
-125.43002319335938
 21
58.33336639404297
 31
0.0
  0
LINE
  8
0
 10
-125.4300765991211
 20
58.33369827270508
 30
0.0
 11
-125.47347259521484
 21
58.49564743041992
 31
0.0
  0
LINE
  8
0
 10
-128.07395935058594
 20
56.8072509765625
 30
0.0
 11
-128.07369995117188
 21
56.80704116821289
 31
0.0
  0
LINE
  8
0
 10
-125.8072509765625
 20
56.92604446411133
 30
0.0
 11
-125.70178985595703
 21
57.0562858581543
 31
0.0
  0
LINE
  8
0
 10
160.2740020751953
 20
39.986000061035156
 30
0.0
 11
156.29200744628906
 21
61.324005126953125
 31
0.0
  0
LINE
  8
0
 10
41.46623992919922
 20
-23.347187042236328
 30
0.0
 11
41.46636962890625
 21
-23.347530364990234
 31
0.0
  0
LINE
  8
0
 10
-54.78600311279297
 20
65.17401123046875
 30
0.0
 11
-52.94200897216797
 21
65.65800476074219
 31
0.0
  0
LINE
  8
0
 10
-54.78600311279297
 20
65.17401123046875
 30
0.0
 11
-57.660003662109375
 21
65.25601196289062
 31
0.0
  0
LINE
  8
0
 10
59.443668365478516
 20
58.701751708984375
 30
0.0
 11
59.44339370727539
 21
58.70153045654297
 31
0.0
  0
LINE
  8
0
 10
59.443668365478516
 20
58.701751708984375
 30
0.0
 11
59.57395553588867
 21
58.8072509765625
 31
0.0
  0
LINE
  8
0
 10
38.53376007080078
 20
-23.347187042236328
 30
0.0
 11
38.47367858886719
 21
-23.50371551513672
 31
0.0
  0
LINE
  8
0
 10
38.53376007080078
 20
-23.347187042236328
 30
0.0
 11
38.533912658691406
 21
-23.346887588500977
 31
0.0
  0
LINE
  8
0
 10
41.46623992919922
 20
-23.347187042236328
 30
0.0
 11
41.38996887207031
 21
-23.197500228881836
 31
0.0
  0
LINE
  8
0
 10
41.46623992919922
 20
-23.347187042236328
 30
0.0
 11
41.39013671875
 21
-23.197832107543945
 31
0.0
  0
LINE
  8
0
 10
59.88996887207031
 20
60.80249786376953
 30
0.0
 11
59.89012145996094
 21
60.80220031738281
 31
0.0
  0
LINE
  8
0
 10
41.1927490234375
 20
-22.926044464111328
 30
0.0
 11
41.19298553466797
 21
-22.92633628845215
 31
0.0
  0
LINE
  8
0
 10
38.47355651855469
 20
-24.4959716796875
 30
0.0
 11
38.53363800048828
 21
-24.65250015258789
 31
0.0
  0
LINE
  8
0
 10
56.90379333496094
 20
59.83223342895508
 30
0.0
 11
56.93001937866211
 21
59.66663360595703
 31
0.0
  0
LINE
  8
0
 10
-120.30249786376953
 20
-16.110031127929688
 30
0.0
 11
-120.1891860961914
 21
-16.052295684814453
 31
0.0
  0
LINE
  8
0
 10
56.90379333496094
 20
59.83223342895508
 30
0.0
 11
56.90377426147461
 21
59.83256912231445
 31
0.0
  0
LINE
  8
0
 10
-38.70153045654297
 20
-24.94339370727539
 30
0.0
 11
-38.70174026489258
 21
-24.943655014038086
 31
0.0
  0
LINE
  8
0
 10
-40.80249786376953
 20
-22.610031127929688
 30
0.0
 11
-40.802799224853516
 21
-22.610225677490234
 31
0.0
  0
LINE
  8
0
 10
-40.80249786376953
 20
-22.610031127929688
 30
0.0
 11
-40.65312957763672
 21
-22.533920288085938
 31
0.0
  0
LINE
  8
0
 10
-41.38996887207031
 20
-23.197500228881836
 30
0.0
 11
-41.46607208251953
 21
-23.346860885620117
 31
0.0
  0
LINE
  8
0
 10
-38.43016052246094
 20
-24.334022521972656
 30
0.0
 11
-38.47355651855469
 21
-24.4959716796875
 31
0.0
  0
LINE
  8
0
 10
-38.70153045654297
 20
-24.94339370727539
 30
0.0
 11
-38.61021423339844
 21
-24.802780151367188
 31
0.0
  0
LINE
  8
0
 10
-57.84718704223633
 20
61.46623992919922
 30
0.0
 11
-57.69779968261719
 21
61.39012145996094
 31
0.0
  0
LINE
  8
0
 10
59.88996887207031
 20
60.80249786376953
 30
0.0
 11
59.79865264892578
 21
60.943111419677734
 31
0.0
  0
LINE
  8
0
 10
-59.15281295776367
 20
61.46623992919922
 30
0.0
 11
-59.15311050415039
 21
61.466087341308594
 31
0.0
  0
LINE
  8
0
 10
127.6528091430664
 20
56.53376007080078
 30
0.0
 11
127.80249786376953
 21
56.61003112792969
 31
0.0
  0
LINE
  8
0
 10
-126.3471908569336
 20
59.46623992919922
 30
0.0
 11
-126.34750366210938
 21
59.46636199951172
 31
0.0
  0
LINE
  8
0
 10
-125.47355651855469
 20
57.5040283203125
 30
0.0
 11
-125.47370147705078
 21
57.503662109375
 31
0.0
  0
LINE
  8
0
 10
-119.66743469238281
 20
-19.096223831176758
 30
0.0
 11
-119.66777038574219
 21
-19.096206665039062
 31
0.0
  0
LINE
  8
0
 10
-119.66743469238281
 20
-19.096223831176758
 30
0.0
 11
-119.5
 21
-19.104999542236328
 31
0.0
  0
LINE
  8
0
 10
-119.33263397216797
 20
-15.90377140045166
 30
0.0
 11
-119.5
 21
-15.895000457763672
 31
0.0
  0
LINE
  8
0
 10
-56.90379333496094
 20
60.16776657104492
 30
0.0
 11
-56.90377426147461
 21
60.16743087768555
 31
0.0
  0
LINE
  8
0
 10
-125.61003112792969
 20
57.19750213623047
 30
0.0
 11
-125.61026000976562
 21
57.197147369384766
 31
0.0
  0
LINE
  8
0
 10
127.80220031738281
 20
59.39012145996094
 30
0.0
 11
127.6528091430664
 21
59.46623992919922
 31
0.0
  0
LINE
  8
0
 10
125.80699920654297
 20
56.926353454589844
 30
0.0
 11
125.8072509765625
 21
56.92604446411133
 31
0.0
  0
LINE
  8
0
 10
128.29847717285156
 20
58.94339370727539
 30
0.0
 11
128.2986602783203
 21
58.943111419677734
 31
0.0
  0
LINE
  8
0
 10
-128.59620666503906
 20
57.83223342895508
 30
0.0
 11
-128.56997680664062
 21
57.66663360595703
 31
0.0
  0
LINE
  8
0
 10
-128.56983947753906
 20
58.334022521972656
 30
0.0
 11
-128.56993103027344
 21
58.33369827270508
 31
0.0
  0
LINE
  8
0
 10
-128.60498046875
 20
58.000335693359375
 30
0.0
 11
-128.60215759277344
 21
58.05418014526367
 31
0.0
  0
LINE
  8
0
 10
-128.60498046875
 20
58.000335693359375
 30
0.0
 11
-128.60499572753906
 21
58.0
 31
0.0
  0
LINE
  8
0
 10
-128.46624755859375
 20
57.34718704223633
 30
0.0
 11
-128.39012145996094
 21
57.19779968261719
 31
0.0
  0
LINE
  8
0
 10
-127.4959716796875
 20
56.47355651855469
 30
0.0
 11
-127.49565124511719
 21
56.47346878051758
 31
0.0
  0
LINE
  8
0
 10
-128.46624755859375
 20
57.34718704223633
 30
0.0
 11
-128.46636962890625
 21
57.34749984741211
 31
0.0
  0
LINE
  8
0
 10
128.4700164794922
 20
63.260009765625
 30
0.0
 11
125.83601379394531
 21
64.20201110839844
 31
0.0
  0
LINE
  8
0
 10
41.46623992919922
 20
-24.652812957763672
 30
0.0
 11
41.466087341308594
 21
-24.653112411499023
 31
0.0
  0
LINE
  8
0
 10
-128.47401428222656
 20
63.260009765625
 30
0.0
 11
-130.92201232910156
 21
62.54400634765625
 31
0.0
  0
LINE
  8
0
 10
40.16743087768555
 20
-22.403776168823242
 30
0.0
 11
40.0
 21
-22.395000457763672
 31
0.0
  0
LINE
  8
0
 10
-122.64201354980469
 20
-21.540000915527344
 30
0.0
 11
-125.17800903320312
 21
-20.177997589111328
 31
0.0
  0
LINE
  8
0
 10
41.07419204711914
 20
-25.1925106048584
 30
0.0
 11
41.07395553588867
 21
-25.192747116088867
 31
0.0
  0
LINE
  8
0
 10
41.46623992919922
 20
-24.652812957763672
 30
0.0
 11
41.52644348144531
 21
-24.4959716796875
 31
0.0
  0
LINE
  8
0
 10
38.40379333496094
 20
-24.167766571044922
 30
0.0
 11
38.43001937866211
 21
-24.33336639404297
 31
0.0
  0
LINE
  8
0
 10
41.46623992919922
 20
-24.652812957763672
 30
0.0
 11
41.52632141113281
 21
-24.49628448486328
 31
0.0
  0
LINE
  8
0
 10
59.30249786376953
 20
61.38996887207031
 30
0.0
 11
59.30220031738281
 21
61.39012145996094
 31
0.0
  0
LINE
  8
0
 10
57.03376007080078
 20
59.34718704223633
 30
0.0
 11
57.10987854003906
 21
59.19780349731445
 31
0.0
  0
LINE
  8
0
 10
57.03376007080078
 20
59.34718704223633
 30
0.0
 11
57.095802307128906
 21
59.225425720214844
 31
0.0
  0
LINE
  8
0
 10
58.00764465332031
 20
58.47258758544922
 30
0.0
 11
58.16630172729492
 21
58.43007278442383
 31
0.0
  0
LINE
  8
0
 10
-59.57420349121094
 20
58.807498931884766
 30
0.0
 11
-59.6927490234375
 21
58.92604446411133
 31
0.0
  0
LINE
  8
0
 10
-59.57420349121094
 20
58.807498931884766
 30
0.0
 11
-59.57395553588867
 21
58.8072509765625
 31
0.0
  0
LINE
  8
0
 10
-39.83223342895508
 20
-25.596206665039062
 30
0.0
 11
-39.83190155029297
 21
-25.596153259277344
 31
0.0
  0
LINE
  8
0
 10
-57.20175552368164
 20
59.056331634521484
 30
0.0
 11
-57.3072509765625
 21
58.92604446411133
 31
0.0
  0
LINE
  8
0
 10
-38.53376007080078
 20
-23.347187042236328
 30
0.0
 11
-38.60987854003906
 21
-23.197799682617188
 31
0.0
  0
LINE
  8
0
 10
-111.19200897216797
 20
-31.61199951171875
 30
0.0
 11
-118.70201110839844
 21
-24.79800033569336
 31
0.0
  0
LINE
  8
0
 10
-41.07421875
 20
-22.80751609802246
 30
0.0
 11
-41.12296676635742
 21
-22.856264114379883
 31
0.0
  0
LINE
  8
0
 10
128.29847717285156
 20
58.94339370727539
 30
0.0
 11
128.19296264648438
 21
59.07369613647461
 31
0.0
  0
LINE
  8
0
 10
39.999664306640625
 20
-22.395017623901367
 30
0.0
 11
39.936031341552734
 21
-22.398353576660156
 31
0.0
  0
LINE
  8
0
 10
118.69750213623047
 20
-16.110031127929688
 30
0.0
 11
118.69717407226562
 21
-16.11024284362793
 31
0.0
  0
LINE
  8
0
 10
118.69750213623047
 20
-16.110031127929688
 30
0.0
 11
118.84683227539062
 21
-16.0339412689209
 31
0.0
  0
LINE
  8
0
 10
119.16663360595703
 20
-19.06998062133789
 30
0.0
 11
119.16630554199219
 21
-19.069927215576172
 31
0.0
  0
LINE
  8
0
 10
120.6927490234375
 20
-18.573955535888672
 30
0.0
 11
120.57418823242188
 21
-18.6925106048584
 31
0.0
  0
LINE
  8
0
 10
120.6927490234375
 20
-18.573955535888672
 30
0.0
 11
120.5739517211914
 21
-18.692747116088867
 31
0.0
  0
LINE
  8
0
 10
119.16590881347656
 20
-15.930180549621582
 30
0.0
 11
119.0704345703125
 21
-15.955760955810547
 31
0.0
  0
LINE
  8
0
 10
-119.9959716796875
 20
-15.973554611206055
 30
0.0
 11
-119.99629974365234
 21
-15.973681449890137
 31
0.0
  0
LINE
  8
0
 10
-119.9959716796875
 20
-15.973554611206055
 30
0.0
 11
-119.83405303955078
 21
-15.930169105529785
 31
0.0
  0
LINE
  8
0
 10
-119.9959716796875
 20
-15.973554611206055
 30
0.0
 11
-120.1528091430664
 21
-16.03376007080078
 31
0.0
  0
LINE
  8
0
 10
127.65310668945312
 20
56.533912658691406
 30
0.0
 11
127.80249786376953
 21
56.61003112792969
 31
0.0
  0
LINE
  8
0
 10
128.07395935058594
 20
59.1927490234375
 30
0.0
 11
127.94339752197266
 21
59.29846954345703
 31
0.0
  0
LINE
  8
0
 10
125.40377807617188
 20
57.83259201049805
 30
0.0
 11
125.40379333496094
 21
57.83223342895508
 31
0.0
  0
LINE
  8
0
 10
-118.20153045654297
 20
-16.55660629272461
 30
0.0
 11
-118.20133972167969
 21
-16.55690574645996
 31
0.0
  0
LINE
  8
0
 10
128.07395935058594
 20
59.1927490234375
 30
0.0
 11
128.07420349121094
 21
59.19251251220703
 31
0.0
  0
LINE
  8
0
 10
-128.07395935058594
 20
56.8072509765625
 30
0.0
 11
-127.94339752197266
 21
56.70153045654297
 31
0.0
  0
LINE
  8
0
 10
-125.53363800048828
 20
58.65250015258789
 30
0.0
 11
-125.47355651855469
 21
58.4959716796875
 31
0.0
  0
LINE
  8
0
 10
-128.59620666503906
 20
58.16776657104492
 30
0.0
 11
-128.60498046875
 21
58.000335693359375
 31
0.0
  0
LINE
  8
0
 10
-118.20153045654297
 20
-16.55660629272461
 30
0.0
 11
-118.3072509765625
 21
-16.426044464111328
 31
0.0
  0
LINE
  8
0
 10
-60.02644348144531
 20
60.4959716796875
 30
0.0
 11
-59.96623992919922
 21
60.65281295776367
 31
0.0
  0
LINE
  8
0
 10
-127.0
 20
59.60499954223633
 30
0.0
 11
-127.00033569335938
 21
59.60498046875
 31
0.0
  0
LINE
  8
0
 10
-127.0
 20
59.60499954223633
 30
0.0
 11
-126.83256530761719
 21
59.59622573852539
 31
0.0
  0
LINE
  8
0
 10
-118.20153045654297
 20
-16.55660629272461
 30
0.0
 11
-118.30702209472656
 21
-16.426326751708984
 31
0.0
  0
LINE
  8
0
 10
40.49563217163086
 20
-22.473464965820312
 30
0.0
 11
40.45433807373047
 21
-22.462398529052734
 31
0.0
  0
LINE
  8
0
 10
-41.38996887207031
 20
-23.197500228881836
 30
0.0
 11
-41.46623992919922
 21
-23.347187042236328
 31
0.0
  0
LINE
  8
0
 10
128.07395935058594
 20
59.1927490234375
 30
0.0
 11
128.07369995117188
 21
59.19295883178711
 31
0.0
  0
LINE
  8
0
 10
-108.40400695800781
 20
71.19400024414062
 30
0.0
 11
-87.03400421142578
 21
77.52200317382812
 31
0.0
  0
LINE
  8
0
 10
41.596153259277344
 20
-24.16809844970703
 30
0.0
 11
41.56992721557617
 21
-24.333698272705078
 31
0.0
  0
LINE
  8
0
 10
59.153133392333984
 20
58.5339241027832
 30
0.0
 11
59.15281295776367
 21
58.53376007080078
 31
0.0
  0
LINE
  8
0
 10
59.153133392333984
 20
58.5339241027832
 30
0.0
 11
59.30249786376953
 21
58.61003112792969
 31
0.0
  0
LINE
  8
0
 10
58.66776657104492
 20
58.40379333496094
 30
0.0
 11
58.50039291381836
 21
58.39501953125
 31
0.0
  0
LINE
  8
0
 10
58.66776657104492
 20
58.40379333496094
 30
0.0
 11
58.5
 21
58.39500045776367
 31
0.0
  0
LINE
  8
0
 10
-57.84718704223633
 20
61.46623992919922
 30
0.0
 11
-57.84749984741211
 21
61.46636199951172
 31
0.0
  0
LINE
  8
0
 10
-126.3471908569336
 20
56.53376007080078
 30
0.0
 11
-126.50370788574219
 21
56.47367858886719
 31
0.0
  0
LINE
  8
0
 10
-38.53376007080078
 20
-24.652812957763672
 30
0.0
 11
-38.533912658691406
 21
-24.653112411499023
 31
0.0
  0
LINE
  8
0
 10
-40.16743087768555
 20
-25.596223831176758
 30
0.0
 11
-40.16776657104492
 21
-25.596206665039062
 31
0.0
  0
LINE
  8
0
 10
-40.16743087768555
 20
-25.596223831176758
 30
0.0
 11
-40.0
 21
-25.604999542236328
 31
0.0
  0
LINE
  8
0
 10
-39.936302185058594
 20
-22.398338317871094
 30
0.0
 11
-40.0
 21
-22.395000457763672
 31
0.0
  0
LINE
  8
0
 10
-38.92580795288086
 20
-25.1925106048584
 30
0.0
 11
-38.92604446411133
 21
-25.192747116088867
 31
0.0
  0
LINE
  8
0
 10
-41.59622573852539
 20
-24.167430877685547
 30
0.0
 11
-41.59620666503906
 21
-24.167766571044922
 31
0.0
  0
LINE
  8
0
 10
-38.53376007080078
 20
-24.652812957763672
 30
0.0
 11
-38.47355651855469
 21
-24.4959716796875
 31
0.0
  0
LINE
  8
0
 10
-38.53376007080078
 20
-24.652812957763672
 30
0.0
 11
-38.47367858886719
 21
-24.49628448486328
 31
0.0
  0
LINE
  8
0
 10
-59.1524772644043
 20
58.53363037109375
 30
0.0
 11
-59.15281295776367
 21
58.53376007080078
 31
0.0
  0
LINE
  8
0
 10
-59.1524772644043
 20
58.53363037109375
 30
0.0
 11
-58.9959716796875
 21
58.47355651855469
 31
0.0
  0
LINE
  8
0
 10
117.89501953125
 20
-17.499650955200195
 30
0.0
 11
117.89500427246094
 21
-17.5
 31
0.0
  0
LINE
  8
0
 10
118.03376007080078
 20
-16.847187042236328
 30
0.0
 11
117.97367858886719
 21
-17.003704071044922
 31
0.0
  0
LINE
  8
0
 10
118.03376007080078
 20
-16.847187042236328
 30
0.0
 11
118.03392028808594
 21
-16.84687614440918
 31
0.0
  0
LINE
  8
0
 10
-119.16630554199219
 20
-19.069927215576172
 30
0.0
 11
-119.0040283203125
 21
-19.026445388793945
 31
0.0
  0
LINE
  8
0
 10
-120.30249786376953
 20
-16.110031127929688
 30
0.0
 11
-120.30278015136719
 21
-16.110214233398438
 31
0.0
  0
LINE
  8
0
 10
-119.16630554199219
 20
-19.069927215576172
 30
0.0
 11
-119.33222961425781
 21
-19.096206665039062
 31
0.0
  0
LINE
  8
0
 10
-119.16630554199219
 20
-19.069927215576172
 30
0.0
 11
-119.33190155029297
 21
-19.096153259277344
 31
0.0
  0
LINE
  8
0
 10
126.3471908569336
 20
59.46623992919922
 30
0.0
 11
126.34689331054688
 21
59.466087341308594
 31
0.0
  0
LINE
  8
0
 10
-120.44365692138672
 20
-16.201740264892578
 30
0.0
 11
-120.5739517211914
 21
-16.307252883911133
 31
0.0
  0
LINE
  8
0
 10
127.6528091430664
 20
56.53376007080078
 30
0.0
 11
127.65310668945312
 21
56.533912658691406
 31
0.0
  0
LINE
  8
0
 10
-38.53376007080078
 20
-23.347187042236328
 30
0.0
 11
-38.53363800048828
 21
-23.34749984741211
 31
0.0
  0
LINE
  8
0
 10
58.66776657104492
 20
58.40379333496094
 30
0.0
 11
58.83369827270508
 21
58.43007278442383
 31
0.0
  0
LINE
  8
0
 10
125.43016052246094
 20
58.334022521972656
 30
0.0
 11
125.4300765991211
 21
58.33369827270508
 31
0.0
  0
LINE
  8
0
 10
126.3471908569336
 20
59.46623992919922
 30
0.0
 11
126.19750213623047
 21
59.38996887207031
 31
0.0
  0
LINE
  8
0
 10
-126.50370788574219
 20
56.47367858886719
 30
0.0
 11
-126.5040283203125
 21
56.47355651855469
 31
0.0
  0
LINE
  8
0
 10
125.39501953125
 20
58.000343322753906
 30
0.0
 11
125.39500427246094
 21
58.0
 31
0.0
  0
LINE
  8
0
 10
127.16777038574219
 20
56.40379333496094
 30
0.0
 11
127.16809844970703
 21
56.403846740722656
 31
0.0
  0
LINE
  8
0
 10
127.6528091430664
 20
59.46623992919922
 30
0.0
 11
127.65249633789062
 21
59.46636199951172
 31
0.0
  0
LINE
  8
0
 10
125.40379333496094
 20
57.83223342895508
 30
0.0
 11
125.43001556396484
 21
57.66667556762695
 31
0.0
  0
LINE
  8
0
 10
-125.9260482788086
 20
59.1927490234375
 30
0.0
 11
-126.05660247802734
 21
59.29846954345703
 31
0.0
  0
LINE
  8
0
 10
57.3072509765625
 20
58.92604446411133
 30
0.0
 11
57.20153045654297
 21
59.05660629272461
 31
0.0
  0
LINE
  8
0
 10
57.3072509765625
 20
58.92604446411133
 30
0.0
 11
57.3070182800293
 21
58.926334381103516
 31
0.0
  0
LINE
  8
0
 10
40.334022521972656
 20
-25.569839477539062
 30
0.0
 11
40.33369827270508
 21
-25.569927215576172
 31
0.0
  0
LINE
  8
0
 10
40.334022521972656
 20
-25.569839477539062
 30
0.0
 11
40.4959716796875
 21
-25.526445388793945
 31
0.0
  0
LINE
  8
0
 10
41.29825973510742
 20
-24.943655014038086
 30
0.0
 11
41.1927490234375
 21
-25.073955535888672
 31
0.0
  0
LINE
  8
0
 10
128.07369995117188
 20
59.19295883178711
 30
0.0
 11
127.94339752197266
 21
59.29846954345703
 31
0.0
  0
LINE
  8
0
 10
38.61003112792969
 20
-23.197500228881836
 30
0.0
 11
38.53376007080078
 21
-23.347187042236328
 31
0.0
  0
LINE
  8
0
 10
38.61003112792969
 20
-23.197500228881836
 30
0.0
 11
38.533912658691406
 21
-23.346887588500977
 31
0.0
  0
LINE
  8
0
 10
39.05660629272461
 20
-22.701528549194336
 30
0.0
 11
39.05634689331055
 21
-22.701740264892578
 31
0.0
  0
LINE
  8
0
 10
60.02644348144531
 20
59.5040283203125
 30
0.0
 11
60.02631759643555
 21
59.50370407104492
 31
0.0
  0
LINE
  8
0
 10
60.02644348144531
 20
59.5040283203125
 30
0.0
 11
60.06205749511719
 21
59.63692855834961
 31
0.0
  0
LINE
  8
0
 10
119.33256530761719
 20
-19.096223831176758
 30
0.0
 11
119.5
 21
-19.104999542236328
 31
0.0
  0
LINE
  8
0
 10
120.88996887207031
 20
-18.302499771118164
 30
0.0
 11
120.88978576660156
 21
-18.302780151367188
 31
0.0
  0
LINE
  8
0
 10
119.5
 20
-15.895000457763672
 30
0.0
 11
119.49960327148438
 21
-15.895021438598633
 31
0.0
  0
LINE
  8
0
 10
39.05660629272461
 20
-22.701528549194336
 30
0.0
 11
38.92604446411133
 21
-22.807252883911133
 31
0.0
  0
LINE
  8
0
 10
127.80249786376953
 20
56.61003112792969
 30
0.0
 11
127.80278015136719
 21
56.61021423339844
 31
0.0
  0
LINE
  8
0
 10
-40.94339370727539
 20
-25.298471450805664
 30
0.0
 11
-40.943111419677734
 21
-25.298654556274414
 31
0.0
  0
LINE
  8
0
 10
-38.403846740722656
 20
-24.16809844970703
 30
0.0
 11
-38.43007278442383
 21
-24.333698272705078
 31
0.0
  0
LINE
  8
0
 10
-60.06992721557617
 20
60.33369827270508
 30
0.0
 11
-60.096153259277344
 21
60.16809844970703
 31
0.0
  0
LINE
  8
0
 10
-56.90377426147461
 20
60.16743087768555
 30
0.0
 11
-56.89500045776367
 21
60.0
 31
0.0
  0
LINE
  8
0
 10
-60.06992721557617
 20
60.33369827270508
 30
0.0
 11
-60.02644348144531
 21
60.4959716796875
 31
0.0
  0
LINE
  8
0
 10
-60.06992721557617
 20
60.33369827270508
 30
0.0
 11
-60.06983947753906
 21
60.334022521972656
 31
0.0
  0
LINE
  8
0
 10
125.39501953125
 20
58.000343322753906
 30
0.0
 11
125.39855194091797
 21
58.06769561767578
 31
0.0
  0
LINE
  8
0
 10
-127.33369445800781
 20
59.56992721557617
 30
0.0
 11
-127.4959716796875
 21
59.52644348144531
 31
0.0
  0
LINE
  8
0
 10
59.96636199951172
 20
60.65250015258789
 30
0.0
 11
60.02644348144531
 21
60.4959716796875
 31
0.0
  0
LINE
  8
0
 10
-57.42604446411133
 20
61.1927490234375
 30
0.0
 11
-57.55660629272461
 21
61.29846954345703
 31
0.0
  0
LINE
  8
0
 10
128.56997680664062
 20
58.33336639404297
 30
0.0
 11
128.59620666503906
 21
58.16776657104492
 31
0.0
  0
LINE
  8
0
 10
128.60498046875
 20
57.999664306640625
 30
0.0
 11
128.59620666503906
 21
57.83223342895508
 31
0.0
  0
LINE
  8
0
 10
125.4300765991211
 20
57.66630172729492
 30
0.0
 11
125.47345733642578
 21
57.50440979003906
 31
0.0
  0
LINE
  8
0
 10
125.4300765991211
 20
57.66630172729492
 30
0.0
 11
125.47355651855469
 21
57.5040283203125
 31
0.0
  0
LINE
  8
0
 10
-118.69750213623047
 20
-16.110031127929688
 30
0.0
 11
-118.69784545898438
 21
-16.109853744506836
 31
0.0
  0
LINE
  8
0
 10
-119.00371551513672
 20
-19.026325225830078
 30
0.0
 11
-118.8471908569336
 21
-18.96623992919922
 31
0.0
  0
LINE
  8
0
 10
-118.69750213623047
 20
-16.110031127929688
 30
0.0
 11
-118.55692291259766
 21
-16.201322555541992
 31
0.0
  0
LINE
  8
0
 10
-125.9260482788086
 20
59.1927490234375
 30
0.0
 11
-125.92630767822266
 21
59.19295883178711
 31
0.0
  0
LINE
  8
0
 10
-126.34750366210938
 20
59.46636199951172
 30
0.0
 11
-126.5040283203125
 21
59.52644348144531
 31
0.0
  0
LINE
  8
0
 10
-127.16777038574219
 20
59.59620666503906
 30
0.0
 11
-127.16809844970703
 21
59.596153259277344
 31
0.0
  0
LINE
  8
0
 10
-127.16777038574219
 20
59.59620666503906
 30
0.0
 11
-127.07450866699219
 21
59.60109329223633
 31
0.0
  0
LINE
  8
0
 10
-57.11003112792969
 20
60.80249786376953
 30
0.0
 11
-57.10987854003906
 21
60.80220031738281
 31
0.0
  0
LINE
  8
0
 10
126.66663360595703
 20
56.43001937866211
 30
0.0
 11
126.66630554199219
 21
56.43007278442383
 31
0.0
  0
LINE
  8
0
 10
125.4300765991211
 20
57.66630172729492
 30
0.0
 11
125.40379333496094
 21
57.83223342895508
 31
0.0
  0
LINE
  8
0
 10
126.05634307861328
 20
59.29825973510742
 30
0.0
 11
125.9260482788086
 21
59.1927490234375
 31
0.0
  0
LINE
  8
0
 10
125.4300765991211
 20
57.66630172729492
 30
0.0
 11
125.43001556396484
 21
57.66667556762695
 31
0.0
  0
LINE
  8
0
 10
59.6927490234375
 20
58.92604446411133
 30
0.0
 11
59.79825210571289
 21
59.05633544921875
 31
0.0
  0
LINE
  8
0
 10
-41.46623992919922
 20
-23.347187042236328
 30
0.0
 11
-41.46607208251953
 21
-23.346860885620117
 31
0.0
  0
LINE
  8
0
 10
-39.665977478027344
 20
-25.569839477539062
 30
0.0
 11
-39.66630172729492
 21
-25.569927215576172
 31
0.0
  0
LINE
  8
0
 10
-38.70174026489258
 20
-24.943655014038086
 30
0.0
 11
-38.8072509765625
 21
-25.073955535888672
 31
0.0
  0
LINE
  8
0
 10
-40.802799224853516
 20
-22.610225677490234
 30
0.0
 11
-40.94339370727539
 21
-22.701528549194336
 31
0.0
  0
LINE
  8
0
 10
41.59622573852539
 20
-23.83257293701172
 30
0.0
 11
41.60024642944336
 21
-23.90932273864746
 31
0.0
  0
LINE
  8
0
 10
-57.3072509765625
 20
61.07395553588867
 30
0.0
 11
-57.30704116821289
 21
61.07369613647461
 31
0.0
  0
LINE
  8
0
 10
-57.3072509765625
 20
61.07395553588867
 30
0.0
 11
-57.20153045654297
 21
60.94339370727539
 31
0.0
  0
LINE
  8
0
 10
41.192481994628906
 20
-22.925777435302734
 30
0.0
 11
41.12356948852539
 21
-22.85686492919922
 31
0.0
  0
LINE
  8
0
 10
59.44339370727539
 20
58.70153045654297
 30
0.0
 11
59.30249786376953
 21
58.61003112792969
 31
0.0
  0
LINE
  8
0
 10
59.6927490234375
 20
58.92604446411133
 30
0.0
 11
59.6925048828125
 21
58.92580032348633
 31
0.0
  0
LINE
  8
0
 10
119.00434875488281
 20
-19.026533126831055
 30
0.0
 11
119.0040283203125
 21
-19.026445388793945
 31
0.0
  0
LINE
  8
0
 10
-38.533912658691406
 20
-24.653112411499023
 30
0.0
 11
-38.59507369995117
 21
-24.773143768310547
 31
0.0
  0
LINE
  8
0
 10
-59.44365310668945
 20
61.29825973510742
 30
0.0
 11
-59.57395553588867
 21
61.1927490234375
 31
0.0
  0
LINE
  8
0
 10
-56.93007278442383
 20
59.66630172729492
 30
0.0
 11
-56.93016052246094
 21
59.665977478027344
 31
0.0
  0
LINE
  8
0
 10
-56.93007278442383
 20
59.66630172729492
 30
0.0
 11
-56.97355651855469
 21
59.5040283203125
 31
0.0
  0
LINE
  8
0
 10
-60.06992721557617
 20
59.66630172729492
 30
0.0
 11
-60.02653503417969
 21
59.504364013671875
 31
0.0
  0
LINE
  8
0
 10
-60.06992721557617
 20
59.66630172729492
 30
0.0
 11
-60.06192398071289
 21
59.63642883300781
 31
0.0
  0
LINE
  8
0
 10
-56.93007278442383
 20
59.66630172729492
 30
0.0
 11
-56.90379333496094
 21
59.83223342895508
 31
0.0
  0
LINE
  8
0
 10
-58.16630172729492
 20
61.56992721557617
 30
0.0
 11
-58.16663360595703
 21
61.56998062133789
 31
0.0
  0
LINE
  8
0
 10
-60.06992721557617
 20
59.66630172729492
 30
0.0
 11
-60.06998062133789
 21
59.66663360595703
 31
0.0
  0
LINE
  8
0
 10
-56.93007278442383
 20
59.66630172729492
 30
0.0
 11
-56.903846740722656
 21
59.83190155029297
 31
0.0
  0
LINE
  8
0
 10
-58.16630172729492
 20
61.56992721557617
 30
0.0
 11
-58.00435256958008
 21
61.52653121948242
 31
0.0
  0
LINE
  8
0
 10
128.5264434814453
 20
58.4959716796875
 30
0.0
 11
128.5265350341797
 21
58.49564743041992
 31
0.0
  0
LINE
  8
0
 10
128.5264434814453
 20
58.4959716796875
 30
0.0
 11
128.46636962890625
 21
58.65250015258789
 31
0.0
  0
LINE
  8
0
 10
-59.30249786376953
 20
61.38996887207031
 30
0.0
 11
-59.15311050415039
 21
61.466087341308594
 31
0.0
  0
LINE
  8
0
 10
-57.11003112792969
 20
59.19750213623047
 30
0.0
 11
-57.0958251953125
 21
59.225379943847656
 31
0.0
  0
LINE
  8
0
 10
-119.66777038574219
 20
-19.096206665039062
 30
0.0
 11
-119.5
 21
-19.104999542236328
 31
0.0
  0
LINE
  8
0
 10
-119.5
 20
-15.895000457763672
 30
0.0
 11
-119.50039672851562
 21
-15.895021438598633
 31
0.0
  0
LINE
  8
0
 10
-119.5
 20
-15.895000457763672
 30
0.0
 11
-119.66777038574219
 21
-15.903792381286621
 31
0.0
  0
LINE
  8
0
 10
-119.66777038574219
 20
-19.096206665039062
 30
0.0
 11
-119.83336639404297
 21
-19.06998062133789
 31
0.0
  0
LINE
  8
0
 10
-39.665977478027344
 20
-25.569839477539062
 30
0.0
 11
-39.5040283203125
 21
-25.526445388793945
 31
0.0
  0
LINE
  8
0
 10
-38.47355651855469
 20
-24.4959716796875
 30
0.0
 11
-38.47367858886719
 21
-24.49628448486328
 31
0.0
  0
LINE
  8
0
 10
59.44339370727539
 20
58.70153045654297
 30
0.0
 11
59.30279541015625
 21
58.610225677490234
 31
0.0
  0
LINE
  8
0
 10
-128.56993103027344
 20
58.33369827270508
 30
0.0
 11
-128.59616088867188
 21
58.16809844970703
 31
0.0
  0
LINE
  8
0
 10
-126.19719696044922
 20
56.6102294921875
 30
0.0
 11
-126.19750213623047
 21
56.61003112792969
 31
0.0
  0
LINE
  8
0
 10
-126.19719696044922
 20
56.6102294921875
 30
0.0
 11
-126.05660247802734
 21
56.70153045654297
 31
0.0
  0
LINE
  8
0
 10
39.324005126953125
 20
-31.86199951171875
 30
0.0
 11
43.18199157714844
 21
-43.17599868774414
 31
0.0
  0
LINE
  8
0
 10
127.4959716796875
 20
59.52644348144531
 30
0.0
 11
127.49565124511719
 21
59.52653121948242
 31
0.0
  0
LINE
  8
0
 10
-128.39012145996094
 20
57.19779968261719
 30
0.0
 11
-128.3899688720703
 21
57.19750213623047
 31
0.0
  0
LINE
  8
0
 10
-119.0040283203125
 20
-19.026445388793945
 30
0.0
 11
-119.00371551513672
 21
-19.026325225830078
 31
0.0
  0
LINE
  8
0
 10
-119.0040283203125
 20
-19.026445388793945
 30
0.0
 11
-118.8471908569336
 21
-18.96623992919922
 31
0.0
  0
LINE
  8
0
 10
125.4300765991211
 20
58.33369827270508
 30
0.0
 11
125.40379333496094
 21
58.16776657104492
 31
0.0
  0
LINE
  8
0
 10
125.4300765991211
 20
58.33369827270508
 30
0.0
 11
125.40384674072266
 21
58.16809844970703
 31
0.0
  0
LINE
  8
0
 10
-57.42604446411133
 20
61.1927490234375
 30
0.0
 11
-57.3072509765625
 21
61.07395553588867
 31
0.0
  0
LINE
  8
0
 10
58.16630172729492
 20
58.43007278442383
 30
0.0
 11
58.16671371459961
 21
58.43000793457031
 31
0.0
  0
LINE
  8
0
 10
58.16630172729492
 20
58.43007278442383
 30
0.0
 11
58.33223342895508
 21
58.40379333496094
 31
0.0
  0
LINE
  8
0
 10
-38.40377426147461
 20
-23.832569122314453
 30
0.0
 11
-38.403377532958984
 21
-23.84019660949707
 31
0.0
  0
LINE
  8
0
 10
41.466087341308594
 20
-24.653112411499023
 30
0.0
 11
41.38996887207031
 21
-24.802499771118164
 31
0.0
  0
LINE
  8
0
 10
-89.15400695800781
 20
-77.52400207519531
 30
0.0
 11
-71.12600708007812
 21
-72.79600524902344
 31
0.0
  0
LINE
  8
0
 10
-89.15400695800781
 20
-77.52400207519531
 30
0.0
 11
-92.84001159667969
 21
-75.27400207519531
 31
0.0
  0
LINE
  8
0
 10
38.40379333496094
 20
-23.832233428955078
 30
0.0
 11
38.39501953125
 21
-23.999664306640625
 31
0.0
  0
LINE
  8
0
 10
38.40379333496094
 20
-23.832233428955078
 30
0.0
 11
38.40351104736328
 21
-23.837648391723633
 31
0.0
  0
LINE
  8
0
 10
38.40379333496094
 20
-23.832233428955078
 30
0.0
 11
38.403846740722656
 21
-23.83190155029297
 31
0.0
  0
LINE
  8
0
 10
40.0
 20
-22.395000457763672
 30
0.0
 11
39.999664306640625
 21
-22.395017623901367
 31
0.0
  0
LINE
  8
0
 10
-57.11003112792969
 20
60.80249786376953
 30
0.0
 11
-57.20153045654297
 21
60.94339370727539
 31
0.0
  0
LINE
  8
0
 10
-125.43002319335938
 20
58.33336639404297
 30
0.0
 11
-125.40379333496094
 21
58.16776657104492
 31
0.0
  0
LINE
  8
0
 10
118.69717407226562
 20
-16.11024284362793
 30
0.0
 11
118.55660247802734
 21
-16.201528549194336
 31
0.0
  0
LINE
  8
0
 10
119.16630554199219
 20
-19.069927215576172
 30
0.0
 11
119.00434875488281
 21
-19.026533126831055
 31
0.0
  0
LINE
  8
0
 10
-41.46623992919922
 20
-23.347187042236328
 30
0.0
 11
-41.52631378173828
 21
-23.503692626953125
 31
0.0
  0
LINE
  8
0
 10
-40.33369827270508
 20
-22.430072784423828
 30
0.0
 11
-40.33403015136719
 21
-22.430160522460938
 31
0.0
  0
LINE
  8
0
 10
-41.12296676635742
 20
-22.856264114379883
 30
0.0
 11
-41.1927490234375
 21
-22.926044464111328
 31
0.0
  0
LINE
  8
0
 10
-59.6927490234375
 20
58.92604446411133
 30
0.0
 11
-59.79846954345703
 21
59.05660629272461
 31
0.0
  0
LINE
  8
0
 10
-59.30249786376953
 20
61.38996887207031
 30
0.0
 11
-59.30278015136719
 21
61.38978576660156
 31
0.0
  0
LINE
  8
0
 10
-57.3072509765625
 20
58.92604446411133
 30
0.0
 11
-57.30751419067383
 21
58.92578125
 31
0.0
  0
LINE
  8
0
 10
57.84718704223633
 20
58.53376007080078
 30
0.0
 11
57.69786834716797
 21
58.60984420776367
 31
0.0
  0
LINE
  8
0
 10
-57.3072509765625
 20
61.07395553588867
 30
0.0
 11
-57.42580795288086
 21
61.19251251220703
 31
0.0
  0
LINE
  8
0
 10
-59.6927490234375
 20
58.92604446411133
 30
0.0
 11
-59.69296646118164
 21
58.92631530761719
 31
0.0
  0
LINE
  8
0
 10
119.83401489257812
 20
-19.069839477539062
 30
0.0
 11
119.83369445800781
 21
-19.069927215576172
 31
0.0
  0
LINE
  8
0
 10
119.83401489257812
 20
-19.069839477539062
 30
0.0
 11
119.9959716796875
 21
-19.026445388793945
 31
0.0
  0
LINE
  8
0
 10
-57.84749984741211
 20
61.46636199951172
 30
0.0
 11
-58.0040283203125
 21
61.52644348144531
 31
0.0
  0
LINE
  8
0
 10
125.61003112792969
 20
57.19750213623047
 30
0.0
 11
125.62013244628906
 21
57.181949615478516
 31
0.0
  0
LINE
  8
0
 10
-125.47355651855469
 20
58.4959716796875
 30
0.0
 11
-125.4300765991211
 21
58.33369827270508
 31
0.0
  0
LINE
  8
0
 10
-59.30249786376953
 20
61.38996887207031
 30
0.0
 11
-59.15281295776367
 21
61.46623992919922
 31
0.0
  0
LINE
  8
0
 10
-119.99629974365234
 20
-15.973681449890137
 30
0.0
 11
-120.1528091430664
 21
-16.03376007080078
 31
0.0
  0
LINE
  8
0
 10
41.07395553588867
 20
-25.192747116088867
 30
0.0
 11
40.94365310668945
 21
-25.298259735107422
 31
0.0
  0
LINE
  8
0
 10
41.07395553588867
 20
-25.192747116088867
 30
0.0
 11
40.94339370727539
 21
-25.298471450805664
 31
0.0
  0
LINE
  8
0
 10
-127.33369445800781
 20
59.56992721557617
 30
0.0
 11
-127.33401489257812
 21
59.56983947753906
 31
0.0
  0
LINE
  8
0
 10
125.8072509765625
 20
56.92604446411133
 30
0.0
 11
125.80753326416016
 21
56.92576217651367
 31
0.0
  0
LINE
  8
0
 10
-125.47355651855469
 20
58.4959716796875
 30
0.0
 11
-125.47347259521484
 21
58.49564743041992
 31
0.0
  0
LINE
  8
0
 10
-127.80249786376953
 20
59.38996887207031
 30
0.0
 11
-127.80278015136719
 21
59.38978576660156
 31
0.0
  0
LINE
  8
0
 10
-127.80249786376953
 20
59.38996887207031
 30
0.0
 11
-127.6528091430664
 21
59.46623992919922
 31
0.0
  0
LINE
  8
0
 10
-127.33369445800781
 20
59.56992721557617
 30
0.0
 11
-127.16777038574219
 21
59.59620666503906
 31
0.0
  0
LINE
  8
0
 10
-127.33369445800781
 20
59.56992721557617
 30
0.0
 11
-127.16809844970703
 21
59.596153259277344
 31
0.0
  0
LINE
  8
0
 10
-127.80249786376953
 20
59.38996887207031
 30
0.0
 11
-127.65310668945312
 21
59.466087341308594
 31
0.0
  0
LINE
  8
0
 10
-127.00033569335938
 20
59.60498046875
 30
0.0
 11
-127.07450866699219
 21
59.60109329223633
 31
0.0
  0
LINE
  8
0
 10
-166.95201110839844
 20
20.34400177001953
 30
0.0
 11
-175.22801208496094
 21
-1.6279983520507812
 31
0.0
  0
LINE
  8
0
 10
-125.61026000976562
 20
57.197147369384766
 30
0.0
 11
-125.62013244628906
 21
57.181949615478516
 31
0.0
  0
LINE
  8
0
 10
127.4959716796875
 20
59.52644348144531
 30
0.0
 11
127.65249633789062
 21
59.46636199951172
 31
0.0
  0
LINE
  8
0
 10
125.61003112792969
 20
57.19750213623047
 30
0.0
 11
125.6098403930664
 21
57.197879791259766
 31
0.0
  0
LINE
  8
0
 10
127.94365692138672
 20
56.70174026489258
 30
0.0
 11
127.94339752197266
 21
56.70153045654297
 31
0.0
  0
LINE
  8
0
 10
-40.16776657104492
 20
-25.596206665039062
 30
0.0
 11
-40.0
 21
-25.604999542236328
 31
0.0
  0
LINE
  8
0
 10
-40.16776657104492
 20
-25.596206665039062
 30
0.0
 11
-40.33336639404297
 21
-25.56998062133789
 31
0.0
  0
LINE
  8
0
 10
-57.42604446411133
 20
61.1927490234375
 30
0.0
 11
-57.42630386352539
 21
61.19295883178711
 31
0.0
  0
LINE
  8
0
 10
58.83369827270508
 20
58.43007278442383
 30
0.0
 11
58.83406066894531
 21
58.43016815185547
 31
0.0
  0
LINE
  8
0
 10
40.45433807373047
 20
-22.462398529052734
 30
0.0
 11
40.33369827270508
 21
-22.430072784423828
 31
0.0
  0
LINE
  8
0
 10
-166.95201110839844
 20
20.34400177001953
 30
0.0
 11
-160.27401733398438
 21
39.986000061035156
 31
0.0
  0
LINE
  8
0
 10
41.56992721557617
 20
-24.333698272705078
 30
0.0
 11
41.56983947753906
 21
-24.334022521972656
 31
0.0
  0
LINE
  8
0
 10
41.56992721557617
 20
-24.333698272705078
 30
0.0
 11
41.52644348144531
 21
-24.4959716796875
 31
0.0
  0
LINE
  8
0
 10
59.15281295776367
 20
58.53376007080078
 30
0.0
 11
59.30249786376953
 21
58.61003112792969
 31
0.0
  0
LINE
  8
0
 10
59.15281295776367
 20
58.53376007080078
 30
0.0
 11
58.996315002441406
 21
58.47368621826172
 31
0.0
  0
LINE
  8
0
 10
120.30249786376953
 20
-16.110031127929688
 30
0.0
 11
120.30220031738281
 21
-16.109878540039062
 31
0.0
  0
LINE
  8
0
 10
120.30249786376953
 20
-16.110031127929688
 30
0.0
 11
120.44339752197266
 21
-16.201528549194336
 31
0.0
  0
LINE
  8
0
 10
120.30249786376953
 20
-16.110031127929688
 30
0.0
 11
120.443115234375
 21
-16.201345443725586
 31
0.0
  0
LINE
  8
0
 10
117.89500427246094
 20
-17.5
 30
0.0
 11
117.8958511352539
 21
-17.516130447387695
 31
0.0
  0
LINE
  8
0
 10
119.33256530761719
 20
-19.096223831176758
 30
0.0
 11
119.33222961425781
 21
-19.096206665039062
 31
0.0
  0
LINE
  8
0
 10
-41.59620666503906
 20
-24.167766571044922
 30
0.0
 11
-41.56998062133789
 21
-24.33336639404297
 31
0.0
  0
LINE
  8
0
 10
-40.0
 20
-22.395000457763672
 30
0.0
 11
-40.000335693359375
 21
-22.395017623901367
 31
0.0
  0
LINE
  8
0
 10
-38.92604446411133
 20
-25.192747116088867
 30
0.0
 11
-39.05634689331055
 21
-25.298259735107422
 31
0.0
  0
LINE
  8
0
 10
-38.92604446411133
 20
-25.192747116088867
 30
0.0
 11
-39.05660629272461
 21
-25.298471450805664
 31
0.0
  0
LINE
  8
0
 10
-57.11003112792969
 20
59.19750213623047
 30
0.0
 11
-57.11021423339844
 21
59.19721984863281
 31
0.0
  0
LINE
  8
0
 10
-57.11003112792969
 20
60.80249786376953
 30
0.0
 11
-57.20134735107422
 21
60.943111419677734
 31
0.0
  0
LINE
  8
0
 10
-58.165897369384766
 20
58.430179595947266
 30
0.0
 11
-58.01021957397461
 21
58.47189712524414
 31
0.0
  0
LINE
  8
0
 10
-57.42604446411133
 20
61.1927490234375
 30
0.0
 11
-57.42580795288086
 21
61.19251251220703
 31
0.0
  0
LINE
  8
0
 10
-59.15281295776367
 20
58.53376007080078
 30
0.0
 11
-59.30249786376953
 21
58.61003112792969
 31
0.0
  0
LINE
  8
0
 10
-59.15281295776367
 20
58.53376007080078
 30
0.0
 11
-59.302181243896484
 21
58.60987091064453
 31
0.0
  0
LINE
  8
0
 10
121.09622192382812
 20
-17.332569122314453
 30
0.0
 11
121.10499572753906
 21
-17.5
 31
0.0
  0
LINE
  8
0
 10
-125.9260482788086
 20
59.1927490234375
 30
0.0
 11
-125.80748748779297
 21
59.07419204711914
 31
0.0
  0
LINE
  8
0
 10
-40.94339370727539
 20
-25.298471450805664
 30
0.0
 11
-40.80249786376953
 21
-25.389968872070312
 31
0.0
  0
LINE
  8
0
 10
-120.30278015136719
 20
-16.110214233398438
 30
0.0
 11
-120.44339752197266
 21
-16.201528549194336
 31
0.0
  0
LINE
  8
0
 10
-120.5739517211914
 20
-16.307252883911133
 30
0.0
 11
-120.57418823242188
 21
-16.3074893951416
 31
0.0
  0
LINE
  8
0
 10
-120.5739517211914
 20
-16.307252883911133
 30
0.0
 11
-120.6927490234375
 21
-16.426044464111328
 31
0.0
  0
LINE
  8
0
 10
40.33369827270508
 20
-25.569927215576172
 30
0.0
 11
40.4959716796875
 21
-25.526445388793945
 31
0.0
  0
LINE
  8
0
 10
125.17399597167969
 20
-20.177997589111328
 30
0.0
 11
130.52000427246094
 21
-18.15599822998047
 31
0.0
  0
LINE
  8
0
 10
-117.9300765991211
 20
-17.166301727294922
 30
0.0
 11
-117.93002319335938
 21
-17.166643142700195
 31
0.0
  0
LINE
  8
0
 10
41.1927490234375
 20
-25.073955535888672
 30
0.0
 11
41.07419204711914
 21
-25.1925106048584
 31
0.0
  0
LINE
  8
0
 10
41.1927490234375
 20
-25.073955535888672
 30
0.0
 11
41.07395553588867
 21
-25.192747116088867
 31
0.0
  0
LINE
  8
0
 10
-117.9300765991211
 20
-17.166301727294922
 30
0.0
 11
-117.97346496582031
 21
-17.004362106323242
 31
0.0
  0
LINE
  8
0
 10
40.33369827270508
 20
-25.569927215576172
 30
0.0
 11
40.16776657104492
 21
-25.596206665039062
 31
0.0
  0
LINE
  8
0
 10
40.33369827270508
 20
-25.569927215576172
 30
0.0
 11
40.16809844970703
 21
-25.596153259277344
 31
0.0
  0
LINE
  8
0
 10
57.20153045654297
 20
60.94339370727539
 30
0.0
 11
57.11021423339844
 21
60.80278015136719
 31
0.0
  0
LINE
  8
0
 10
39.05634689331055
 20
-22.701740264892578
 30
0.0
 11
38.92604446411133
 21
-22.807252883911133
 31
0.0
  0
LINE
  8
0
 10
60.02631759643555
 20
59.50370407104492
 30
0.0
 11
60.000118255615234
 21
59.435447692871094
 31
0.0
  0
LINE
  8
0
 10
60.02644348144531
 20
60.4959716796875
 30
0.0
 11
60.02653121948242
 21
60.49564743041992
 31
0.0
  0
LINE
  8
0
 10
60.06983947753906
 20
59.665977478027344
 30
0.0
 11
60.06205749511719
 21
59.63692855834961
 31
0.0
  0
LINE
  8
0
 10
-56.89500045776367
 20
60.0
 30
0.0
 11
-56.90379333496094
 21
59.83223342895508
 31
0.0
  0
LINE
  8
0
 10
58.0040283203125
 20
58.47355651855469
 30
0.0
 11
58.00444412231445
 21
58.473445892333984
 31
0.0
  0
LINE
  8
0
 10
-57.42630386352539
 20
61.19295883178711
 30
0.0
 11
-57.55660629272461
 21
61.29846954345703
 31
0.0
  0
LINE
  8
0
 10
-58.66776657104492
 20
61.59620666503906
 30
0.0
 11
-58.66809844970703
 21
61.596153259277344
 31
0.0
  0
LINE
  8
0
 10
-58.66776657104492
 20
61.59620666503906
 30
0.0
 11
-58.83369827270508
 21
61.56992721557617
 31
0.0
  0
LINE
  8
0
 10
125.53376007080078
 20
58.65281295776367
 30
0.0
 11
125.47367858886719
 21
58.49628448486328
 31
0.0
  0
LINE
  8
0
 10
-125.62013244628906
 20
57.181949615478516
 30
0.0
 11
-125.70153045654297
 21
57.05660629272461
 31
0.0
  0
LINE
  8
0
 10
-127.94339752197266
 20
59.29846954345703
 30
0.0
 11
-127.94365692138672
 21
59.29825973510742
 31
0.0
  0
LINE
  8
0
 10
-126.5040283203125
 20
59.52644348144531
 30
0.0
 11
-126.50434875488281
 21
59.52653121948242
 31
0.0
  0
LINE
  8
0
 10
-126.5040283203125
 20
56.47355651855469
 30
0.0
 11
-126.66598510742188
 21
56.43016052246094
 31
0.0
  0
LINE
  8
0
 10
-126.5040283203125
 20
56.47355651855469
 30
0.0
 11
-126.62329864501953
 21
56.44159698486328
 31
0.0
  0
LINE
  8
0
 10
-32.57200622558594
 20
-24.964000701904297
 30
0.0
 11
-35.18000793457031
 21
-25.972000122070312
 31
0.0
  0
LINE
  8
0
 10
-32.57200622558594
 20
-24.964000701904297
 30
0.0
 11
-24.508010864257812
 21
-21.795997619628906
 31
0.0
  0
LINE
  8
0
 10
-118.8471908569336
 20
-18.96623992919922
 30
0.0
 11
-118.84689331054688
 21
-18.966087341308594
 31
0.0
  0
LINE
  8
0
 10
-118.4260482788086
 20
-16.307252883911133
 30
0.0
 11
-118.42633819580078
 21
-16.30702018737793
 31
0.0
  0
LINE
  8
0
 10
-118.4260482788086
 20
-16.307252883911133
 30
0.0
 11
-118.55660247802734
 21
-16.201528549194336
 31
0.0
  0
LINE
  8
0
 10
-120.30220031738281
 20
-18.890121459960938
 30
0.0
 11
-120.30249786376953
 21
-18.889968872070312
 31
0.0
  0
LINE
  8
0
 10
-120.30220031738281
 20
-18.890121459960938
 30
0.0
 11
-120.1528091430664
 21
-18.96623992919922
 31
0.0
  0
LINE
  8
0
 10
58.50039291381836
 20
58.39501953125
 30
0.0
 11
58.5
 21
58.39500045776367
 31
0.0
  0
LINE
  8
0
 10
119.99628448486328
 20
-19.026325225830078
 30
0.0
 11
120.1528091430664
 21
-18.96623992919922
 31
0.0
  0
LINE
  8
0
 10
125.47345733642578
 20
57.50440979003906
 30
0.0
 11
125.47355651855469
 21
57.5040283203125
 31
0.0
  0
LINE
  8
0
 10
-59.57395553588867
 20
61.1927490234375
 30
0.0
 11
-59.6927490234375
 21
61.07395553588867
 31
0.0
  0
LINE
  8
0
 10
-126.19750213623047
 20
56.61003112792969
 30
0.0
 11
-126.3471908569336
 21
56.53376007080078
 31
0.0
  0
LINE
  8
0
 10
-57.30751419067383
 20
58.92578125
 30
0.0
 11
-57.42604446411133
 21
58.8072509765625
 31
0.0
  0
LINE
  8
0
 10
-59.57395553588867
 20
61.1927490234375
 30
0.0
 11
-59.69251251220703
 21
61.07419204711914
 31
0.0
  0
LINE
  8
0
 10
-56.93016052246094
 20
59.665977478027344
 30
0.0
 11
-56.97355651855469
 21
59.5040283203125
 31
0.0
  0
LINE
  8
0
 10
119.33222961425781
 20
-19.096206665039062
 30
0.0
 11
119.5
 21
-19.104999542236328
 31
0.0
  0
LINE
  8
0
 10
120.15310668945312
 20
-18.966087341308594
 30
0.0
 11
120.30249786376953
 21
-18.889968872070312
 31
0.0
  0
LINE
  8
0
 10
119.33222961425781
 20
-19.096206665039062
 30
0.0
 11
119.16663360595703
 21
-19.06998062133789
 31
0.0
  0
LINE
  8
0
 10
120.57418823242188
 20
-18.6925106048584
 30
0.0
 11
120.5739517211914
 21
-18.692747116088867
 31
0.0
  0
LINE
  8
0
 10
120.88996887207031
 20
-16.697500228881836
 30
0.0
 11
120.89012145996094
 21
-16.697799682617188
 31
0.0
  0
LINE
  8
0
 10
120.88996887207031
 20
-16.697500228881836
 30
0.0
 11
120.79865264892578
 21
-16.556886672973633
 31
0.0
  0
LINE
  8
0
 10
156.29200744628906
 20
61.324005126953125
 30
0.0
 11
136.24000549316406
 21
62.0360107421875
 31
0.0
  0
LINE
  8
0
 10
41.60024642944336
 20
-23.90932273864746
 30
0.0
 11
41.60499954223633
 21
-24.0
 31
0.0
  0
LINE
  8
0
 10
71.12600708007812
 20
-72.79600524902344
 30
0.0
 11
65.00999450683594
 21
-72.68800354003906
 31
0.0
  0
LINE
  8
0
 10
40.49628448486328
 20
-25.526325225830078
 30
0.0
 11
40.65281295776367
 21
-25.46623992919922
 31
0.0
  0
LINE
  8
0
 10
-130.52000427246094
 20
-18.15599822998047
 30
0.0
 11
-125.17800903320312
 21
-20.177997589111328
 31
0.0
  0
LINE
  8
0
 10
-43.1820068359375
 20
-43.17599868774414
 30
0.0
 11
-39.324005126953125
 21
-31.86199951171875
 31
0.0
  0
LINE
  8
0
 10
-43.1820068359375
 20
-43.17599868774414
 30
0.0
 11
-46.16400146484375
 21
-66.43199920654297
 31
0.0
  0
LINE
  8
0
 10
59.57395553588867
 20
58.8072509765625
 30
0.0
 11
59.6925048828125
 21
58.92580032348633
 31
0.0
  0
LINE
  8
0
 10
126.66630554199219
 20
56.43007278442383
 30
0.0
 11
126.50435638427734
 21
56.47346878051758
 31
0.0
  0
LINE
  8
0
 10
126.66630554199219
 20
56.43007278442383
 30
0.0
 11
126.62284851074219
 21
56.44171905517578
 31
0.0
  0
LINE
  8
0
 10
58.16671371459961
 20
58.43000793457031
 30
0.0
 11
58.33223342895508
 21
58.40379333496094
 31
0.0
  0
LINE
  8
0
 10
-118.69784545898438
 20
-16.109853744506836
 30
0.0
 11
-118.8471908569336
 21
-16.03376007080078
 31
0.0
  0
LINE
  8
0
 10
-39.66630172729492
 20
-25.569927215576172
 30
0.0
 11
-39.5040283203125
 21
-25.526445388793945
 31
0.0
  0
LINE
  8
0
 10
-40.33336639404297
 20
-25.56998062133789
 30
0.0
 11
-40.33369827270508
 21
-25.569927215576172
 31
0.0
  0
LINE
  8
0
 10
-38.8072509765625
 20
-25.073955535888672
 30
0.0
 11
-38.92580795288086
 21
-25.1925106048584
 31
0.0
  0
LINE
  8
0
 10
128.59620666503906
 20
57.83223342895508
 30
0.0
 11
128.59616088867188
 21
57.83190155029297
 31
0.0
  0
LINE
  8
0
 10
-118.8471908569336
 20
-18.96623992919922
 30
0.0
 11
-118.69750213623047
 21
-18.889968872070312
 31
0.0
  0
LINE
  8
0
 10
-125.92630767822266
 20
59.19295883178711
 30
0.0
 11
-126.05660247802734
 21
59.29846954345703
 31
0.0
  0
LINE
  8
0
 10
-125.40379333496094
 20
58.16776657104492
 30
0.0
 11
-125.40377807617188
 21
58.16743087768555
 31
0.0
  0
LINE
  8
0
 10
71.12600708007812
 20
-72.79600524902344
 30
0.0
 11
89.15400695800781
 21
-77.52400207519531
 31
0.0
  0
LINE
  8
0
 10
125.53376007080078
 20
58.65281295776367
 30
0.0
 11
125.5339126586914
 21
58.65311050415039
 31
0.0
  0
LINE
  8
0
 10
-128.60499572753906
 20
58.0
 30
0.0
 11
-128.59622192382812
 21
57.83256912231445
 31
0.0
  0
LINE
  8
0
 10
-118.84689331054688
 20
-18.966087341308594
 30
0.0
 11
-118.69750213623047
 21
-18.889968872070312
 31
0.0
  0
LINE
  8
0
 10
-119.5
 20
-19.104999542236328
 30
0.0
 11
-119.49966430664062
 21
-19.104982376098633
 31
0.0
  0
LINE
  8
0
 10
-118.11003112792969
 20
-16.697500228881836
 30
0.0
 11
-118.10987091064453
 21
-16.697813034057617
 31
0.0
  0
LINE
  8
0
 10
-118.11003112792969
 20
-16.697500228881836
 30
0.0
 11
-118.20133972167969
 21
-16.55690574645996
 31
0.0
  0
LINE
  8
0
 10
-118.4260482788086
 20
-16.307252883911133
 30
0.0
 11
-118.30751037597656
 21
-16.42578887939453
 31
0.0
  0
LINE
  8
0
 10
-38.8072509765625
 20
-25.073955535888672
 30
0.0
 11
-38.92604446411133
 21
-25.192747116088867
 31
0.0
  0
LINE
  8
0
 10
127.16777038574219
 20
59.59620666503906
 30
0.0
 11
127.16743469238281
 21
59.59622573852539
 31
0.0
  0
LINE
  8
0
 10
-39.66630172729492
 20
-25.569927215576172
 30
0.0
 11
-39.83223342895508
 21
-25.596206665039062
 31
0.0
  0
LINE
  8
0
 10
-39.66630172729492
 20
-25.569927215576172
 30
0.0
 11
-39.83190155029297
 21
-25.596153259277344
 31
0.0
  0
LINE
  8
0
 10
-40.94339370727539
 20
-22.701528549194336
 30
0.0
 11
-40.94367599487305
 21
-22.701757431030273
 31
0.0
  0
LINE
  8
0
 10
-60.02653503417969
 20
59.504364013671875
 30
0.0
 11
-60.06192398071289
 21
59.63642883300781
 31
0.0
  0
LINE
  8
0
 10
-60.02653503417969
 20
59.504364013671875
 30
0.0
 11
-60.02644348144531
 21
59.5040283203125
 31
0.0
  0
LINE
  8
0
 10
-58.16663360595703
 20
61.56998062133789
 30
0.0
 11
-58.33223342895508
 21
61.59620666503906
 31
0.0
  0
LINE
  8
0
 10
-128.3899688720703
 20
57.19750213623047
 30
0.0
 11
-128.2986602783203
 21
57.056888580322266
 31
0.0
  0
LINE
  8
0
 10
39.83256912231445
 20
-25.596223831176758
 30
0.0
 11
39.83223342895508
 21
-25.596206665039062
 31
0.0
  0
LINE
  8
0
 10
39.83256912231445
 20
-25.596223831176758
 30
0.0
 11
40.0
 21
-25.604999542236328
 31
0.0
  0
LINE
  8
0
 10
40.65311050415039
 20
-25.466087341308594
 30
0.0
 11
40.80249786376953
 21
-25.389968872070312
 31
0.0
  0
LINE
  8
0
 10
-58.0040283203125
 20
61.52644348144531
 30
0.0
 11
-58.00435256958008
 21
61.52653121948242
 31
0.0
  0
LINE
  8
0
 10
38.39501953125
 20
-23.999664306640625
 30
0.0
 11
38.40351104736328
 21
-23.837648391723633
 31
0.0
  0
LINE
  8
0
 10
41.38996887207031
 20
-24.802499771118164
 30
0.0
 11
41.38978576660156
 21
-24.802780151367188
 31
0.0
  0
LINE
  8
0
 10
40.94365310668945
 20
-25.298259735107422
 30
0.0
 11
40.94339370727539
 21
-25.298471450805664
 31
0.0
  0
LINE
  8
0
 10
59.57395553588867
 20
61.1927490234375
 30
0.0
 11
59.6927490234375
 21
61.07395553588867
 31
0.0
  0
LINE
  8
0
 10
-38.403377532958984
 20
-23.84019660949707
 30
0.0
 11
-38.39500045776367
 21
-24.0
 31
0.0
  0
LINE
  8
0
 10
-128.19296264648438
 20
56.92630386352539
 30
0.0
 11
-128.2296905517578
 21
56.97166061401367
 31
0.0
  0
LINE
  8
0
 10
127.16777038574219
 20
59.59620666503906
 30
0.0
 11
127.33336639404297
 21
59.56998062133789
 31
0.0
  0
LINE
  8
0
 10
125.8072509765625
 20
59.07395553588867
 30
0.0
 11
125.70153045654297
 21
58.94339370727539
 31
0.0
  0
LINE
  8
0
 10
-58.66776657104492
 20
61.59620666503906
 30
0.0
 11
-58.65622329711914
 21
61.5968132019043
 31
0.0
  0
LINE
  8
0
 10
125.8072509765625
 20
59.07395553588867
 30
0.0
 11
125.9260482788086
 21
59.1927490234375
 31
0.0
  0
LINE
  8
0
 10
125.8072509765625
 20
59.07395553588867
 30
0.0
 11
125.92581176757812
 21
59.19251251220703
 31
0.0
  0
LINE
  8
0
 10
-128.56993103027344
 20
57.66630172729492
 30
0.0
 11
-128.56997680664062
 21
57.66663360595703
 31
0.0
  0
LINE
  8
0
 10
-128.60499572753906
 20
58.0
 30
0.0
 11
-128.59620666503906
 21
57.83223342895508
 31
0.0
  0
LINE
  8
0
 10
-126.19750213623047
 20
56.61003112792969
 30
0.0
 11
-126.05660247802734
 21
56.70153045654297
 31
0.0
  0
LINE
  8
0
 10
-126.19750213623047
 20
56.61003112792969
 30
0.0
 11
-126.34687805175781
 21
56.53392028808594
 31
0.0
  0
LINE
  8
0
 10
-126.056884765625
 20
59.29865264892578
 30
0.0
 11
-126.19750213623047
 21
59.38996887207031
 31
0.0
  0
LINE
  8
0
 10
43.18199157714844
 20
-43.17599868774414
 30
0.0
 11
46.160003662109375
 21
-66.43199920654297
 31
0.0
  0
LINE
  8
0
 10
125.9260482788086
 20
59.1927490234375
 30
0.0
 11
125.92581176757812
 21
59.19251251220703
 31
0.0
  0
LINE
  8
0
 10
-120.1528091430664
 20
-16.03376007080078
 30
0.0
 11
-120.15311431884766
 21
-16.03391456604004
 31
0.0
  0
LINE
  8
0
 10
-127.33401489257812
 20
59.56983947753906
 30
0.0
 11
-127.4959716796875
 21
59.52644348144531
 31
0.0
  0
LINE
  8
0
 10
-119.99565124511719
 20
-19.026533126831055
 30
0.0
 11
-119.9959716796875
 21
-19.026445388793945
 31
0.0
  0
LINE
  8
0
 10
127.49565124511719
 20
59.52653121948242
 30
0.0
 11
127.33369445800781
 21
59.56992721557617
 31
0.0
  0
LINE
  8
0
 10
125.62013244628906
 20
57.181949615478516
 30
0.0
 11
125.70130920410156
 21
57.056949615478516
 31
0.0
  0
LINE
  8
0
 10
125.62013244628906
 20
57.181949615478516
 30
0.0
 11
125.70153045654297
 21
57.05660629272461
 31
0.0
  0
LINE
  8
0
 10
-57.30704116821289
 20
61.07369613647461
 30
0.0
 11
-57.20153045654297
 21
60.94339370727539
 31
0.0
  0
LINE
  8
0
 10
-41.1927490234375
 20
-22.926044464111328
 30
0.0
 11
-41.29823303222656
 21
-23.05631446838379
 31
0.0
  0
LINE
  8
0
 10
119.0040283203125
 20
-19.026445388793945
 30
0.0
 11
118.84750366210938
 21
-18.966360092163086
 31
0.0
  0
LINE
  8
0
 10
-59.99920654296875
 20
59.43307113647461
 30
0.0
 11
-59.966365814208984
 21
59.34751892089844
 31
0.0
  0
LINE
  8
0
 10
-59.57395553588867
 20
58.8072509765625
 30
0.0
 11
-59.57368469238281
 21
58.807029724121094
 31
0.0
  0
LINE
  8
0
 10
-59.57395553588867
 20
58.8072509765625
 30
0.0
 11
-59.44339370727539
 21
58.70153045654297
 31
0.0
  0
LINE
  8
0
 10
119.83369445800781
 20
-19.069927215576172
 30
0.0
 11
119.9959716796875
 21
-19.026445388793945
 31
0.0
  0
LINE
  8
0
 10
-57.03376007080078
 20
60.65281295776367
 30
0.0
 11
-57.03363800048828
 21
60.65250015258789
 31
0.0
  0
LINE
  8
0
 10
119.83369445800781
 20
-19.069927215576172
 30
0.0
 11
119.66777038574219
 21
-19.096206665039062
 31
0.0
  0
LINE
  8
0
 10
119.83369445800781
 20
-19.069927215576172
 30
0.0
 11
119.66809844970703
 21
-19.096153259277344
 31
0.0
  0
LINE
  8
0
 10
118.55660247802734
 20
-16.201528549194336
 30
0.0
 11
118.55630493164062
 21
-16.201766967773438
 31
0.0
  0
LINE
  8
0
 10
-57.03376007080078
 20
60.65281295776367
 30
0.0
 11
-57.10987854003906
 21
60.80220031738281
 31
0.0
  0
LINE
  8
0
 10
-120.69251251220703
 20
-18.57419204711914
 30
0.0
 11
-120.6927490234375
 21
-18.573955535888672
 31
0.0
  0
LINE
  8
0
 10
59.57395553588867
 20
61.1927490234375
 30
0.0
 11
59.57369613647461
 21
61.19295883178711
 31
0.0
  0
LINE
  8
0
 10
59.57395553588867
 20
61.1927490234375
 30
0.0
 11
59.44339370727539
 21
61.29846954345703
 31
0.0
  0
LINE
  8
0
 10
41.29846954345703
 20
-23.05660629272461
 30
0.0
 11
41.298675537109375
 21
-23.056921005249023
 31
0.0
  0
LINE
  8
0
 10
40.33369827270508
 20
-22.430072784423828
 30
0.0
 11
40.3333625793457
 21
-22.43001937866211
 31
0.0
  0
LINE
  8
0
 10
40.33369827270508
 20
-22.430072784423828
 30
0.0
 11
40.24465560913086
 21
-22.415969848632812
 31
0.0
  0
LINE
  8
0
 10
59.57395553588867
 20
61.1927490234375
 30
0.0
 11
59.57419204711914
 21
61.19251251220703
 31
0.0
  0
LINE
  8
0
 10
59.30249786376953
 20
58.61003112792969
 30
0.0
 11
59.30279541015625
 21
58.610225677490234
 31
0.0
  0
LINE
  8
0
 10
57.20153045654297
 20
60.94339370727539
 30
0.0
 11
57.20174026489258
 21
60.94365310668945
 31
0.0
  0
LINE
  8
0
 10
128.59620666503906
 20
58.16776657104492
 30
0.0
 11
128.59622192382812
 21
58.16743087768555
 31
0.0
  0
LINE
  8
0
 10
-41.59620666503906
 20
-23.832233428955078
 30
0.0
 11
-41.596153259277344
 21
-23.831897735595703
 31
0.0
  0
LINE
  8
0
 10
-40.0
 20
-25.604999542236328
 30
0.0
 11
-39.999664306640625
 21
-25.604982376098633
 31
0.0
  0
LINE
  8
0
 10
127.94339752197266
 20
59.29846954345703
 30
0.0
 11
127.943115234375
 21
59.29865264892578
 31
0.0
  0
LINE
  8
0
 10
127.94339752197266
 20
56.70153045654297
 30
0.0
 11
127.90376281738281
 21
56.6757926940918
 31
0.0
  0
LINE
  8
0
 10
125.8072509765625
 20
59.07395553588867
 30
0.0
 11
125.70174407958984
 21
58.94365310668945
 31
0.0
  0
LINE
  8
0
 10
-128.56993103027344
 20
57.66630172729492
 30
0.0
 11
-128.5265350341797
 21
57.50435256958008
 31
0.0
  0
LINE
  8
0
 10
-128.56993103027344
 20
57.66630172729492
 30
0.0
 11
-128.59620666503906
 21
57.83223342895508
 31
0.0
  0
LINE
  8
0
 10
41.29846954345703
 20
-23.05660629272461
 30
0.0
 11
41.19298553466797
 21
-22.92633628845215
 31
0.0
  0
LINE
  8
0
 10
-117.89501953125
 20
-17.500349044799805
 30
0.0
 11
-117.89611053466797
 21
-17.5211238861084
 31
0.0
  0
LINE
  8
0
 10
-38.59507369995117
 20
-24.773143768310547
 30
0.0
 11
-38.61003112792969
 21
-24.802499771118164
 31
0.0
  0
LINE
  8
0
 10
-127.94339752197266
 20
59.29846954345703
 30
0.0
 11
-127.80278015136719
 21
59.38978576660156
 31
0.0
  0
LINE
  8
0
 10
-56.89500045776367
 20
60.0
 30
0.0
 11
-56.89501953125
 21
59.999664306640625
 31
0.0
  0
LINE
  8
0
 10
-120.44339752197266
 20
-16.201528549194336
 30
0.0
 11
-120.44365692138672
 21
-16.201740264892578
 31
0.0
  0
LINE
  8
0
 10
-120.44339752197266
 20
-16.201528549194336
 30
0.0
 11
-120.5739517211914
 21
-16.307252883911133
 31
0.0
  0
LINE
  8
0
 10
-41.59620666503906
 20
-23.832233428955078
 30
0.0
 11
-41.60498046875
 21
-23.999664306640625
 31
0.0
  0
LINE
  8
0
 10
-41.59620666503906
 20
-23.832233428955078
 30
0.0
 11
-41.60009765625
 21
-23.906457901000977
 31
0.0
  0
LINE
  8
0
 10
-58.9959716796875
 20
58.47355651855469
 30
0.0
 11
-58.9956169128418
 21
58.47346115112305
 31
0.0
  0
LINE
  8
0
 10
-38.43007278442383
 20
-24.333698272705078
 30
0.0
 11
-38.43016052246094
 21
-24.334022521972656
 31
0.0
  0
LINE
  8
0
 10
-38.43007278442383
 20
-24.333698272705078
 30
0.0
 11
-38.47355651855469
 21
-24.4959716796875
 31
0.0
  0
LINE
  8
0
 10
121.10499572753906
 20
-17.5
 30
0.0
 11
121.10498046875
 21
-17.500335693359375
 31
0.0
  0
LINE
  8
0
 10
120.30220031738281
 20
-16.109878540039062
 30
0.0
 11
120.18880462646484
 21
-16.052101135253906
 31
0.0
  0
LINE
  8
0
 10
117.93002319335938
 20
-17.83336639404297
 30
0.0
 11
117.90448760986328
 21
-17.672157287597656
 31
0.0
  0
LINE
  8
0
 10
58.16630172729492
 20
61.56992721557617
 30
0.0
 11
58.33223342895508
 21
61.59620666503906
 31
0.0
  0
LINE
  8
0
 10
-41.52644348144531
 20
-23.5040283203125
 30
0.0
 11
-41.5698356628418
 21
-23.66596221923828
 31
0.0
  0
LINE
  8
0
 10
40.80249786376953
 20
-22.610031127929688
 30
0.0
 11
40.94339370727539
 21
-22.701528549194336
 31
0.0
  0
LINE
  8
0
 10
120.1528091430664
 20
-18.96623992919922
 30
0.0
 11
120.30249786376953
 21
-18.889968872070312
 31
0.0
  0
LINE
  8
0
 10
94.36601257324219
 20
-61.875999450683594
 30
0.0
 11
92.83601379394531
 21
-75.27400207519531
 31
0.0
  0
LINE
  8
0
 10
94.36601257324219
 20
-61.875999450683594
 30
0.0
 11
98.46000671386719
 21
-47.25600051879883
 31
0.0
  0
LINE
  8
0
 10
58.5
 20
58.39500045776367
 30
0.0
 11
58.33223342895508
 21
58.40379333496094
 31
0.0
  0
LINE
  8
0
 10
-35.18000793457031
 20
-25.972000122070312
 30
0.0
 11
-37.05400085449219
 21
-27.70600128173828
 31
0.0
  0
LINE
  8
0
 10
40.4959716796875
 20
-25.526445388793945
 30
0.0
 11
40.49628448486328
 21
-25.526325225830078
 31
0.0
  0
LINE
  8
0
 10
39.66663360595703
 20
-25.56998062133789
 30
0.0
 11
39.66630172729492
 21
-25.569927215576172
 31
0.0
  0
LINE
  8
0
 10
60.09620666503906
 20
59.83223342895508
 30
0.0
 11
60.096153259277344
 21
59.83190155029297
 31
0.0
  0
LINE
  8
0
 10
60.09620666503906
 20
59.83223342895508
 30
0.0
 11
60.06992721557617
 21
59.66630172729492
 31
0.0
  0
LINE
  8
0
 10
38.92604446411133
 20
-22.807252883911133
 30
0.0
 11
38.92580795288086
 21
-22.8074893951416
 31
0.0
  0
LINE
  8
0
 10
-59.88996887207031
 20
59.19750213623047
 30
0.0
 11
-59.96623992919922
 21
59.34718704223633
 31
0.0
  0
LINE
  8
0
 10
60.000118255615234
 20
59.435447692871094
 30
0.0
 11
59.96623992919922
 21
59.34718704223633
 31
0.0
  0
LINE
  8
0
 10
60.09620666503906
 20
59.83223342895508
 30
0.0
 11
60.10499954223633
 21
60.0
 31
0.0
  0
LINE
  8
0
 10
58.16630172729492
 20
61.56992721557617
 30
0.0
 11
58.165977478027344
 21
61.56983947753906
 31
0.0
  0
LINE
  8
0
 10
58.16630172729492
 20
61.56992721557617
 30
0.0
 11
58.0040283203125
 21
61.52644348144531
 31
0.0
  0
LINE
  8
0
 10
60.09620666503906
 20
59.83223342895508
 30
0.0
 11
60.10498046875
 21
59.999664306640625
 31
0.0
  0
LINE
  8
0
 10
58.33223342895508
 20
58.40379333496094
 30
0.0
 11
58.332637786865234
 21
58.403770446777344
 31
0.0
  0
LINE
  8
0
 10
-127.49628448486328
 20
59.52632141113281
 30
0.0
 11
-127.6528091430664
 21
59.46623992919922
 31
0.0
  0
LINE
  8
0
 10
-125.70153045654297
 20
57.05660629272461
 30
0.0
 11
-125.70178985595703
 21
57.0562858581543
 31
0.0
  0
LINE
  8
0
 10
125.39500427246094
 20
58.0
 30
0.0
 11
125.40379333496094
 21
57.83223342895508
 31
0.0
  0
LINE
  8
0
 10
-38.70153045654297
 20
-23.05660629272461
 30
0.0
 11
-38.80704116821289
 21
-22.926305770874023
 31
0.0
  0
LINE
  8
0
 10
39.19779968261719
 20
-25.390121459960938
 30
0.0
 11
39.34718704223633
 21
-25.46623992919922
 31
0.0
  0
LINE
  8
0
 10
-117.97355651855469
 20
-17.0040283203125
 30
0.0
 11
-117.97346496582031
 21
-17.004362106323242
 31
0.0
  0
LINE
  8
0
 10
-58.00362777709961
 20
58.47370910644531
 30
0.0
 11
-58.0040283203125
 21
58.47355651855469
 31
0.0
  0
LINE
  8
0
 10
-117.97355651855469
 20
-17.0040283203125
 30
0.0
 11
-118.03376007080078
 21
-16.847187042236328
 31
0.0
  0
LINE
  8
0
 10
-117.97355651855469
 20
-17.0040283203125
 30
0.0
 11
-118.03363800048828
 21
-16.847511291503906
 31
0.0
  0
LINE
  8
0
 10
-119.9959716796875
 20
-19.026445388793945
 30
0.0
 11
-120.15249633789062
 21
-18.966360092163086
 31
0.0
  0
LINE
  8
0
 10
-120.15311431884766
 20
-16.03391456604004
 30
0.0
 11
-120.1891860961914
 21
-16.052295684814453
 31
0.0
  0
LINE
  8
0
 10
-118.8471908569336
 20
-16.03376007080078
 30
0.0
 11
-118.84756469726562
 21
-16.03361701965332
 31
0.0
  0
LINE
  8
0
 10
41.38978576660156
 20
-24.802780151367188
 30
0.0
 11
41.32530975341797
 21
-24.90206527709961
 31
0.0
  0
LINE
  8
0
 10
-127.4959716796875
 20
59.52644348144531
 30
0.0
 11
-127.6528091430664
 21
59.46623992919922
 31
0.0
  0
LINE
  8
0
 10
119.5
 20
-19.104999542236328
 30
0.0
 11
119.50033569335938
 21
-19.104982376098633
 31
0.0
  0
LINE
  8
0
 10
118.30748748779297
 20
-18.57419204711914
 30
0.0
 11
118.3072509765625
 21
-18.573955535888672
 31
0.0
  0
LINE
  8
0
 10
-41.52644348144531
 20
-23.5040283203125
 30
0.0
 11
-41.46623992919922
 21
-23.347187042236328
 31
0.0
  0
LINE
  8
0
 10
-41.52644348144531
 20
-23.5040283203125
 30
0.0
 11
-41.52631378173828
 21
-23.503692626953125
 31
0.0
  0
LINE
  8
0
 10
-38.70153045654297
 20
-23.05660629272461
 30
0.0
 11
-38.70134735107422
 21
-23.056886672973633
 31
0.0
  0
LINE
  8
0
 10
-39.5040283203125
 20
-25.526445388793945
 30
0.0
 11
-39.50371551513672
 21
-25.526325225830078
 31
0.0
  0
LINE
  8
0
 10
-58.00362777709961
 20
58.47370910644531
 30
0.0
 11
-57.84718704223633
 21
58.53376007080078
 31
0.0
  0
LINE
  8
0
 10
-58.66809844970703
 20
61.596153259277344
 30
0.0
 11
-58.83369827270508
 21
61.56992721557617
 31
0.0
  0
LINE
  8
0
 10
-57.42604446411133
 20
58.8072509765625
 30
0.0
 11
-57.556297302246094
 21
58.7017822265625
 31
0.0
  0
LINE
  8
0
 10
59.15281295776367
 20
61.46623992919922
 30
0.0
 11
59.30220031738281
 21
61.39012145996094
 31
0.0
  0
LINE
  8
0
 10
-59.88996887207031
 20
59.19750213623047
 30
0.0
 11
-59.79866027832031
 21
59.05690002441406
 31
0.0
  0
LINE
  8
0
 10
40.80249786376953
 20
-22.610031127929688
 30
0.0
 11
40.94308853149414
 21
-22.701330184936523
 31
0.0
  0
LINE
  8
0
 10
-39.5040283203125
 20
-25.526445388793945
 30
0.0
 11
-39.34718704223633
 21
-25.46623992919922
 31
0.0
  0
LINE
  8
0
 10
57.656005859375
 20
65.25601196289062
 30
0.0
 11
62.34199523925781
 21
66.84001159667969
 31
0.0
  0
LINE
  8
0
 10
41.60499954223633
 20
-24.0
 30
0.0
 11
41.60498046875
 21
-24.000335693359375
 31
0.0
  0
LINE
  8
0
 10
40.80249786376953
 20
-22.610031127929688
 30
0.0
 11
40.80217742919922
 21
-22.6098690032959
 31
0.0
  0
LINE
  8
0
 10
-36.82600402832031
 20
67.47801208496094
 30
0.0
 11
-48.02600860595703
 21
65.80999755859375
 31
0.0
  0
LINE
  8
0
 10
58.5
 20
58.39500045776367
 30
0.0
 11
58.332637786865234
 21
58.403770446777344
 31
0.0
  0
LINE
  8
0
 10
40.65281295776367
 20
-25.46623992919922
 30
0.0
 11
40.65311050415039
 21
-25.466087341308594
 31
0.0
  0
LINE
  8
0
 10
40.65281295776367
 20
-25.46623992919922
 30
0.0
 11
40.80249786376953
 21
-25.389968872070312
 31
0.0
  0
LINE
  8
0
 10
-126.05660247802734
 20
56.70153045654297
 30
0.0
 11
-126.05631256103516
 21
56.70176315307617
 31
0.0
  0
LINE
  8
0
 10
128.1925048828125
 20
56.92580795288086
 30
0.0
 11
128.07395935058594
 21
56.8072509765625
 31
0.0
  0
LINE
  8
0
 10
59.15281295776367
 20
61.46623992919922
 30
0.0
 11
59.15250015258789
 21
61.46636199951172
 31
0.0
  0
LINE
  8
0
 10
39.19779968261719
 20
-25.390121459960938
 30
0.0
 11
39.19750213623047
 21
-25.389968872070312
 31
0.0
  0
LINE
  8
0
 10
57.69721984863281
 20
61.38978576660156
 30
0.0
 11
57.55660629272461
 21
61.29846954345703
 31
0.0
  0
LINE
  8
0
 10
120.30249786376953
 20
-18.889968872070312
 30
0.0
 11
120.30278015136719
 21
-18.889785766601562
 31
0.0
  0
LINE
  8
0
 10
-127.943115234375
 20
56.70134735107422
 30
0.0
 11
-127.94339752197266
 21
56.70153045654297
 31
0.0
  0
LINE
  8
0
 10
-126.05660247802734
 20
59.29846954345703
 30
0.0
 11
-126.056884765625
 21
59.29865264892578
 31
0.0
  0
LINE
  8
0
 10
57.656005859375
 20
65.25601196289062
 30
0.0
 11
54.78199768066406
 21
65.17401123046875
 31
0.0
  0
LINE
  8
0
 10
120.5739517211914
 20
-18.692747116088867
 30
0.0
 11
120.44365692138672
 21
-18.798259735107422
 31
0.0
  0
LINE
  8
0
 10
120.5739517211914
 20
-18.692747116088867
 30
0.0
 11
120.44339752197266
 21
-18.798471450805664
 31
0.0
  0
LINE
  8
0
 10
125.47355651855469
 20
57.5040283203125
 30
0.0
 11
125.53376007080078
 21
57.34718704223633
 31
0.0
  0
LINE
  8
0
 10
125.47355651855469
 20
57.5040283203125
 30
0.0
 11
125.53361511230469
 21
57.34756851196289
 31
0.0
  0
LINE
  8
0
 10
127.16743469238281
 20
59.59622573852539
 30
0.0
 11
127.0722427368164
 21
59.60121154785156
 31
0.0
  0
LINE
  8
0
 10
123.37001037597656
 20
65.31401062011719
 30
0.0
 11
125.83601379394531
 21
64.20201110839844
 31
0.0
  0
LINE
  8
0
 10
-120.88996887207031
 20
-18.302499771118164
 30
0.0
 11
-120.79865264892578
 21
-18.443113327026367
 31
0.0
  0
LINE
  8
0
 10
-120.88996887207031
 20
-18.302499771118164
 30
0.0
 11
-120.8097915649414
 21
-18.42595863342285
 31
0.0
  0
LINE
  8
0
 10
-120.88996887207031
 20
-18.302499771118164
 30
0.0
 11
-120.89012145996094
 21
-18.302200317382812
 31
0.0
  0
LINE
  8
0
 10
-118.69750213623047
 20
-18.889968872070312
 30
0.0
 11
-118.69721984863281
 21
-18.889785766601562
 31
0.0
  0
LINE
  8
0
 10
-120.6927490234375
 20
-18.573955535888672
 30
0.0
 11
-120.69296264648438
 21
-18.573694229125977
 31
0.0
  0
LINE
  8
0
 10
117.97355651855469
 20
-17.0040283203125
 30
0.0
 11
117.93016815185547
 21
-17.16596794128418
 31
0.0
  0
LINE
  8
0
 10
117.97355651855469
 20
-17.0040283203125
 30
0.0
 11
117.9300765991211
 21
-17.166301727294922
 31
0.0
  0
LINE
  8
0
 10
-56.97355651855469
 20
59.5040283203125
 30
0.0
 11
-56.97367858886719
 21
59.50371551513672
 31
0.0
  0
LINE
  8
0
 10
121.06983947753906
 20
-17.834022521972656
 30
0.0
 11
121.02644348144531
 21
-17.9959716796875
 31
0.0
  0
LINE
  8
0
 10
119.0040283203125
 20
-15.973554611206055
 30
0.0
 11
119.0704345703125
 21
-15.955760955810547
 31
0.0
  0
LINE
  8
0
 10
-40.33369827270508
 20
-25.569927215576172
 30
0.0
 11
-40.49564743041992
 21
-25.526533126831055
 31
0.0
  0
LINE
  8
0
 10
-40.94367599487305
 20
-22.701757431030273
 30
0.0
 11
-41.07395553588867
 21
-22.807252883911133
 31
0.0
  0
LINE
  8
0
 10
-58.33223342895508
 20
61.59620666503906
 30
0.0
 11
-58.33256912231445
 21
61.59622573852539
 31
0.0
  0
LINE
  8
0
 10
40.94339370727539
 20
-25.298471450805664
 30
0.0
 11
40.80278015136719
 21
-25.389785766601562
 31
0.0
  0
LINE
  8
0
 10
119.0040283203125
 20
-15.973554611206055
 30
0.0
 11
119.00364685058594
 21
-15.973702430725098
 31
0.0
  0
LINE
  8
0
 10
119.0040283203125
 20
-15.973554611206055
 30
0.0
 11
118.8471908569336
 21
-16.03376007080078
 31
0.0
  0
LINE
  8
0
 10
58.33223342895508
 20
61.59620666503906
 30
0.0
 11
58.33190155029297
 21
61.596153259277344
 31
0.0
  0
LINE
  8
0
 10
58.33223342895508
 20
61.59620666503906
 30
0.0
 11
58.499664306640625
 21
61.60498046875
 31
0.0
  0
LINE
  8
0
 10
125.39500427246094
 20
58.0
 30
0.0
 11
125.40377807617188
 21
57.83259201049805
 31
0.0
  0
LINE
  8
0
 10
-38.8072509765625
 20
-22.926044464111328
 30
0.0
 11
-38.80704116821289
 21
-22.926305770874023
 31
0.0
  0
LINE
  8
0
 10
128.29847717285156
 20
57.05660629272461
 30
0.0
 11
128.2982635498047
 21
57.05634689331055
 31
0.0
  0
LINE
  8
0
 10
117.97355651855469
 20
-17.0040283203125
 30
0.0
 11
117.97367858886719
 21
-17.003704071044922
 31
0.0
  0
LINE
  8
0
 10
-38.39500045776367
 20
-24.0
 30
0.0
 11
-38.39501953125
 21
-24.000335693359375
 31
0.0
  0
LINE
  8
0
 10
-39.19750213623047
 20
-22.610031127929688
 30
0.0
 11
-39.19779968261719
 21
-22.609878540039062
 31
0.0
  0
LINE
  8
0
 10
-39.50371551513672
 20
-25.526325225830078
 30
0.0
 11
-39.34718704223633
 21
-25.46623992919922
 31
0.0
  0
LINE
  8
0
 10
-39.19750213623047
 20
-22.610031127929688
 30
0.0
 11
-39.05660629272461
 21
-22.701528549194336
 31
0.0
  0
LINE
  8
0
 10
-39.19750213623047
 20
-22.610031127929688
 30
0.0
 11
-39.056888580322266
 21
-22.701345443725586
 31
0.0
  0
LINE
  8
0
 10
-60.10499954223633
 20
60.0
 30
0.0
 11
-60.09622573852539
 21
59.83256912231445
 31
0.0
  0
LINE
  8
0
 10
-60.10499954223633
 20
60.0
 30
0.0
 11
-60.09620666503906
 21
60.16776657104492
 31
0.0
  0
LINE
  8
0
 10
-60.10499954223633
 20
60.0
 30
0.0
 11
-60.10498046875
 21
60.000335693359375
 31
0.0
  0
LINE
  8
0
 10
39.83223342895508
 20
-25.596206665039062
 30
0.0
 11
40.0
 21
-25.604999542236328
 31
0.0
  0
LINE
  8
0
 10
39.83223342895508
 20
-25.596206665039062
 30
0.0
 11
39.66663360595703
 21
-25.56998062133789
 31
0.0
  0
LINE
  8
0
 10
-71.12600708007812
 20
-72.79600524902344
 30
0.0
 11
-65.01400756835938
 21
-72.68800354003906
 31
0.0
  0
LINE
  8
0
 10
-118.42633819580078
 20
-16.30702018737793
 30
0.0
 11
-118.55660247802734
 21
-16.201528549194336
 31
0.0
  0
LINE
  8
0
 10
40.80249786376953
 20
-25.389968872070312
 30
0.0
 11
40.80278015136719
 21
-25.389785766601562
 31
0.0
  0
LINE
  8
0
 10
38.70799255371094
 20
-30.057998657226562
 30
0.0
 11
39.324005126953125
 21
-31.86199951171875
 31
0.0
  0
LINE
  8
0
 10
-126.19750213623047
 20
59.38996887207031
 30
0.0
 11
-126.19779968261719
 21
59.39012145996094
 31
0.0
  0
LINE
  8
0
 10
125.70174407958984
 20
58.94365310668945
 30
0.0
 11
125.70153045654297
 21
58.94339370727539
 31
0.0
  0
LINE
  8
0
 10
126.50435638427734
 20
56.47346878051758
 30
0.0
 11
126.5040283203125
 21
56.47355651855469
 31
0.0
  0
LINE
  8
0
 10
126.50435638427734
 20
56.47346878051758
 30
0.0
 11
126.62284851074219
 21
56.44171905517578
 31
0.0
  0
LINE
  8
0
 10
128.29847717285156
 20
57.05660629272461
 30
0.0
 11
128.38978576660156
 21
57.19721984863281
 31
0.0
  0
LINE
  8
0
 10
-120.30249786376953
 20
-18.889968872070312
 30
0.0
 11
-120.443115234375
 21
-18.798654556274414
 31
0.0
  0
LINE
  8
0
 10
125.70130920410156
 20
57.056949615478516
 30
0.0
 11
125.70153045654297
 21
57.05660629272461
 31
0.0
  0
LINE
  8
0
 10
58.33223342895508
 20
61.59620666503906
 30
0.0
 11
58.5
 21
61.60499954223633
 31
0.0
  0
LINE
  8
0
 10
-121.02644348144531
 20
-17.0040283203125
 30
0.0
 11
-121.06983947753906
 21
-17.165977478027344
 31
0.0
  0
LINE
  8
0
 10
-119.50039672851562
 20
-15.895021438598633
 30
0.0
 11
-119.66777038574219
 21
-15.903792381286621
 31
0.0
  0
LINE
  8
0
 10
-121.02644348144531
 20
-17.0040283203125
 30
0.0
 11
-120.96623992919922
 21
-16.847187042236328
 31
0.0
  0
LINE
  8
0
 10
-121.02644348144531
 20
-17.0040283203125
 30
0.0
 11
-121.02632141113281
 21
-17.00371551513672
 31
0.0
  0
LINE
  8
0
 10
119.9959716796875
 20
-19.026445388793945
 30
0.0
 11
119.99628448486328
 21
-19.026325225830078
 31
0.0
  0
LINE
  8
0
 10
121.10498046875
 20
-17.500335693359375
 30
0.0
 11
121.09620666503906
 21
-17.667766571044922
 31
0.0
  0
LINE
  8
0
 10
117.9300765991211
 20
-17.833698272705078
 30
0.0
 11
117.97347259521484
 21
-17.995647430419922
 31
0.0
  0
LINE
  8
0
 10
117.9300765991211
 20
-17.833698272705078
 30
0.0
 11
117.95335388183594
 21
-17.920581817626953
 31
0.0
  0
LINE
  8
0
 10
58.16630172729492
 20
61.56992721557617
 30
0.0
 11
58.33190155029297
 21
61.596153259277344
 31
0.0
  0
LINE
  8
0
 10
119.9959716796875
 20
-19.026445388793945
 30
0.0
 11
120.1528091430664
 21
-18.96623992919922
 31
0.0
  0
LINE
  8
0
 10
117.9300765991211
 20
-17.833698272705078
 30
0.0
 11
117.93002319335938
 21
-17.83336639404297
 31
0.0
  0
LINE
  8
0
 10
-57.55660629272461
 20
61.29846954345703
 30
0.0
 11
-57.69750213623047
 21
61.38996887207031
 31
0.0
  0
LINE
  8
0
 10
40.4959716796875
 20
-25.526445388793945
 30
0.0
 11
40.65281295776367
 21
-25.46623992919922
 31
0.0
  0
LINE
  8
0
 10
-38.8072509765625
 20
-22.926044464111328
 30
0.0
 11
-38.80748748779297
 21
-22.92580795288086
 31
0.0
  0
LINE
  8
0
 10
-57.69715881347656
 20
58.61025619506836
 30
0.0
 11
-57.69750213623047
 21
58.61003112792969
 31
0.0
  0
LINE
  8
0
 10
-57.69715881347656
 20
58.61025619506836
 30
0.0
 11
-57.55660629272461
 21
58.70153045654297
 31
0.0
  0
LINE
  8
0
 10
-57.20153045654297
 20
60.94339370727539
 30
0.0
 11
-57.20134735107422
 21
60.943111419677734
 31
0.0
  0
LINE
  8
0
 10
118.42578887939453
 20
-16.307514190673828
 30
0.0
 11
118.3072509765625
 21
-16.426044464111328
 31
0.0
  0
LINE
  8
0
 10
58.66776657104492
 20
61.59620666503906
 30
0.0
 11
58.66743087768555
 21
61.59622573852539
 31
0.0
  0
LINE
  8
0
 10
58.66776657104492
 20
61.59620666503906
 30
0.0
 11
58.83336639404297
 21
61.56998062133789
 31
0.0
  0
LINE
  8
0
 10
-175.22801208496094
 20
-1.6279983520507812
 30
0.0
 11
-157.6680145263672
 21
-8.487998962402344
 31
0.0
  0
LINE
  8
0
 10
57.11021423339844
 20
60.80278015136719
 30
0.0
 11
57.11003112792969
 21
60.80249786376953
 31
0.0
  0
LINE
  8
0
 10
59.57369613647461
 20
61.19295883178711
 30
0.0
 11
59.44339370727539
 21
61.29846954345703
 31
0.0
  0
LINE
  8
0
 10
58.99564743041992
 20
61.52653121948242
 30
0.0
 11
58.83369827270508
 21
61.56992721557617
 31
0.0
  0
LINE
  8
0
 10
-128.5265350341797
 20
57.50435256958008
 30
0.0
 11
-128.5264434814453
 21
57.5040283203125
 31
0.0
  0
LINE
  8
0
 10
-59.966365814208984
 20
59.34751892089844
 30
0.0
 11
-59.96623992919922
 21
59.34718704223633
 31
0.0
  0
LINE
  8
0
 10
-127.4959716796875
 20
59.52644348144531
 30
0.0
 11
-127.49628448486328
 21
59.52632141113281
 31
0.0
  0
LINE
  8
0
 10
-126.83222961425781
 20
59.59620666503906
 30
0.0
 11
-126.83256530761719
 21
59.59622573852539
 31
0.0
  0
LINE
  8
0
 10
-126.83222961425781
 20
59.59620666503906
 30
0.0
 11
-126.66663360595703
 21
59.56998062133789
 31
0.0
  0
LINE
  8
0
 10
-38.70153045654297
 20
-23.05660629272461
 30
0.0
 11
-38.8072509765625
 21
-22.926044464111328
 31
0.0
  0
LINE
  8
0
 10
123.37001037597656
 20
65.31401062011719
 30
0.0
 11
116.40599060058594
 21
68.28401184082031
 31
0.0
  0
LINE
  8
0
 10
125.92634582519531
 20
56.807010650634766
 30
0.0
 11
125.9260482788086
 21
56.8072509765625
 31
0.0
  0
LINE
  8
0
 10
125.92634582519531
 20
56.807010650634766
 30
0.0
 11
126.05660247802734
 21
56.70153045654297
 31
0.0
  0
LINE
  8
0
 10
128.3899688720703
 20
58.80249786376953
 30
0.0
 11
128.39012145996094
 21
58.80220031738281
 31
0.0
  0
LINE
  8
0
 10
128.3899688720703
 20
58.80249786376953
 30
0.0
 11
128.29847717285156
 21
58.94339370727539
 31
0.0
  0
LINE
  8
0
 10
128.3899688720703
 20
58.80249786376953
 30
0.0
 11
128.2986602783203
 21
58.943111419677734
 31
0.0
  0
LINE
  8
0
 10
127.33369445800781
 20
59.56992721557617
 30
0.0
 11
127.33336639404297
 21
59.56998062133789
 31
0.0
  0
LINE
  8
0
 10
127.80278015136719
 20
56.61021423339844
 30
0.0
 11
127.90078735351562
 21
56.67386245727539
 31
0.0
  0
LINE
  8
0
 10
-38.61003112792969
 20
-24.802499771118164
 30
0.0
 11
-38.70153045654297
 21
-24.94339370727539
 31
0.0
  0
LINE
  8
0
 10
-57.55660629272461
 20
61.29846954345703
 30
0.0
 11
-57.556888580322266
 21
61.29865264892578
 31
0.0
  0
LINE
  8
0
 10
-117.93002319335938
 20
-17.166643142700195
 30
0.0
 11
-117.90379333496094
 21
-17.332233428955078
 31
0.0
  0
LINE
  8
0
 10
-117.89611053466797
 20
-17.5211238861084
 30
0.0
 11
-117.90379333496094
 21
-17.667766571044922
 31
0.0
  0
LINE
  8
0
 10
-119.83336639404297
 20
-19.06998062133789
 30
0.0
 11
-119.83369445800781
 21
-19.069927215576172
 31
0.0
  0
LINE
  8
0
 10
-119.49966430664062
 20
-19.104982376098633
 30
0.0
 11
-119.33222961425781
 21
-19.096206665039062
 31
0.0
  0
LINE
  8
0
 10
120.18880462646484
 20
-16.052101135253906
 30
0.0
 11
120.1528091430664
 21
-16.03376007080078
 31
0.0
  0
LINE
  8
0
 10
120.1528091430664
 20
-18.96623992919922
 30
0.0
 11
120.15310668945312
 21
-18.966087341308594
 31
0.0
  0
LINE
  8
0
 10
118.69779968261719
 20
-18.890121459960938
 30
0.0
 11
118.69750213623047
 21
-18.889968872070312
 31
0.0
  0
LINE
  8
0
 10
118.69779968261719
 20
-18.890121459960938
 30
0.0
 11
118.8471908569336
 21
-18.96623992919922
 31
0.0
  0
LINE
  8
0
 10
-126.05660247802734
 20
59.29846954345703
 30
0.0
 11
-126.19750213623047
 21
59.38996887207031
 31
0.0
  0
LINE
  8
0
 10
-57.03363800048828
 20
60.65250015258789
 30
0.0
 11
-56.97355651855469
 21
60.4959716796875
 31
0.0
  0
LINE
  8
0
 10
-41.60498046875
 20
-23.999664306640625
 30
0.0
 11
-41.60009765625
 21
-23.906457901000977
 31
0.0
  0
LINE
  8
0
 10
-38.61003112792969
 20
-24.802499771118164
 30
0.0
 11
-38.61021423339844
 21
-24.802780151367188
 31
0.0
  0
LINE
  8
0
 10
-41.46623992919922
 20
-24.652812957763672
 30
0.0
 11
-41.39012145996094
 21
-24.802200317382812
 31
0.0
  0
LINE
  8
0
 10
-41.46623992919922
 20
-24.652812957763672
 30
0.0
 11
-41.46636199951172
 21
-24.65250015258789
 31
0.0
  0
LINE
  8
0
 10
-59.88996887207031
 20
59.19750213623047
 30
0.0
 11
-59.79846954345703
 21
59.05660629272461
 31
0.0
  0
LINE
  8
0
 10
40.80249786376953
 20
-22.610031127929688
 30
0.0
 11
40.65281295776367
 21
-22.53376007080078
 31
0.0
  0
LINE
  8
0
 10
-59.96623992919922
 20
60.65281295776367
 30
0.0
 11
-60.02632141113281
 21
60.49628448486328
 31
0.0
  0
LINE
  8
0
 10
-59.96623992919922
 20
60.65281295776367
 30
0.0
 11
-59.966087341308594
 21
60.65311050415039
 31
0.0
  0
LINE
  8
0
 10
-59.88996887207031
 20
59.19750213623047
 30
0.0
 11
-59.89012908935547
 21
59.19781494140625
 31
0.0
  0
LINE
  8
0
 10
-127.943115234375
 20
56.70134735107422
 30
0.0
 11
-127.90380859375
 21
56.67582321166992
 31
0.0
  0
LINE
  8
0
 10
-58.83369827270508
 20
61.56992721557617
 30
0.0
 11
-58.9959716796875
 21
61.52644348144531
 31
0.0
  0
LINE
  8
0
 10
-58.83369827270508
 20
61.56992721557617
 30
0.0
 11
-58.834022521972656
 21
61.56983947753906
 31
0.0
  0
LINE
  8
0
 10
-58.0040283203125
 20
58.47355651855469
 30
0.0
 11
-58.01021957397461
 21
58.47189712524414
 31
0.0
  0
LINE
  8
0
 10
119.9959716796875
 20
-15.973554611206055
 30
0.0
 11
119.9956283569336
 21
-15.97346305847168
 31
0.0
  0
LINE
  8
0
 10
119.9959716796875
 20
-15.973554611206055
 30
0.0
 11
119.83369445800781
 21
-15.930073738098145
 31
0.0
  0
LINE
  8
0
 10
118.11003112792969
 20
-18.302499771118164
 30
0.0
 11
118.20134735107422
 21
-18.443113327026367
 31
0.0
  0
LINE
  8
0
 10
119.9959716796875
 20
-15.973554611206055
 30
0.0
 11
120.1524887084961
 21
-16.03363800048828
 31
0.0
  0
LINE
  8
0
 10
118.11003112792969
 20
-18.302499771118164
 30
0.0
 11
118.10987854003906
 21
-18.302200317382812
 31
0.0
  0
LINE
  8
0
 10
118.3072509765625
 20
-18.573955535888672
 30
0.0
 11
118.30703735351562
 21
-18.573694229125977
 31
0.0
  0
LINE
  8
0
 10
-118.55660247802734
 20
-16.201528549194336
 30
0.0
 11
-118.55692291259766
 21
-16.201322555541992
 31
0.0
  0
LINE
  8
0
 10
-118.55634307861328
 20
-18.798259735107422
 30
0.0
 11
-118.55660247802734
 21
-18.798471450805664
 31
0.0
  0
LINE
  8
0
 10
40.0
 20
-25.604999542236328
 30
0.0
 11
40.000335693359375
 21
-25.604982376098633
 31
0.0
  0
LINE
  8
0
 10
128.46624755859375
 20
58.65281295776367
 30
0.0
 11
128.46636962890625
 21
58.65250015258789
 31
0.0
  0
LINE
  8
0
 10
57.10987854003906
 20
59.19780349731445
 30
0.0
 11
57.095802307128906
 21
59.225425720214844
 31
0.0
  0
LINE
  8
0
 10
128.46624755859375
 20
57.34718704223633
 30
0.0
 11
128.5264434814453
 21
57.5040283203125
 31
0.0
  0
LINE
  8
0
 10
128.46624755859375
 20
57.34718704223633
 30
0.0
 11
128.5263214111328
 21
57.50371551513672
 31
0.0
  0
LINE
  8
0
 10
35.17799377441406
 20
-25.972000122070312
 30
0.0
 11
37.05000305175781
 21
-27.70600128173828
 31
0.0
  0
LINE
  8
0
 10
-120.1528091430664
 20
-18.96623992919922
 30
0.0
 11
-120.15249633789062
 21
-18.966360092163086
 31
0.0
  0
LINE
  8
0
 10
-125.61003112792969
 20
58.80249786376953
 30
0.0
 11
-125.60987854003906
 21
58.80220031738281
 31
0.0
  0
LINE
  8
0
 10
38.80704116821289
 20
-25.073694229125977
 30
0.0
 11
38.8072509765625
 21
-25.073955535888672
 31
0.0
  0
LINE
  8
0
 10
-125.61003112792969
 20
58.80249786376953
 30
0.0
 11
-125.70153045654297
 21
58.94339370727539
 31
0.0
  0
LINE
  8
0
 10
-125.40377807617188
 20
58.16743087768555
 30
0.0
 11
-125.39861297607422
 21
58.06893539428711
 31
0.0
  0
LINE
  8
0
 10
125.70153045654297
 20
57.05660629272461
 30
0.0
 11
125.8072509765625
 21
56.92604446411133
 31
0.0
  0
LINE
  8
0
 10
-125.61003112792969
 20
58.80249786376953
 30
0.0
 11
-125.70134735107422
 21
58.943111419677734
 31
0.0
  0
LINE
  8
0
 10
-127.6528091430664
 20
59.46623992919922
 30
0.0
 11
-127.65310668945312
 21
59.466087341308594
 31
0.0
  0
LINE
  8
0
 10
41.56992721557617
 20
-23.666301727294922
 30
0.0
 11
41.56998062133789
 21
-23.666648864746094
 31
0.0
  0
LINE
  8
0
 10
41.56992721557617
 20
-23.666301727294922
 30
0.0
 11
41.59620666503906
 21
-23.832233428955078
 31
0.0
  0
LINE
  8
0
 10
41.56992721557617
 20
-23.666301727294922
 30
0.0
 11
41.52653503417969
 21
-23.504375457763672
 31
0.0
  0
LINE
  8
0
 10
-119.0040283203125
 20
-15.973554611206055
 30
0.0
 11
-118.8471908569336
 21
-16.03376007080078
 31
0.0
  0
LINE
  8
0
 10
60.096153259277344
 20
59.83190155029297
 30
0.0
 11
60.06992721557617
 21
59.66630172729492
 31
0.0
  0
LINE
  8
0
 10
-102.97000885009766
 20
-39.71799850463867
 30
0.0
 11
-98.4640121459961
 21
-47.25600051879883
 31
0.0
  0
LINE
  8
0
 10
-102.97000885009766
 20
-39.71799850463867
 30
0.0
 11
-111.19200897216797
 21
-31.61199951171875
 31
0.0
  0
LINE
  8
0
 10
58.165977478027344
 20
61.56983947753906
 30
0.0
 11
58.0040283203125
 21
61.52644348144531
 31
0.0
  0
LINE
  8
0
 10
59.6927490234375
 20
61.07395553588867
 30
0.0
 11
59.79846954345703
 21
60.94339370727539
 31
0.0
  0
LINE
  8
0
 10
59.96623992919922
 20
59.34718704223633
 30
0.0
 11
59.96607971191406
 21
59.34687042236328
 31
0.0
  0
LINE
  8
0
 10
-126.50434875488281
 20
59.52653121948242
 30
0.0
 11
-126.66630554199219
 21
59.56992721557617
 31
0.0
  0
LINE
  8
0
 10
59.6927490234375
 20
61.07395553588867
 30
0.0
 11
59.57419204711914
 21
61.19251251220703
 31
0.0
  0
LINE
  8
0
 10
-41.5698356628418
 20
-23.66596221923828
 30
0.0
 11
-41.56992721557617
 21
-23.666301727294922
 31
0.0
  0
LINE
  8
0
 10
57.55660629272461
 20
61.29846954345703
 30
0.0
 11
57.55634689331055
 21
61.29825973510742
 31
0.0
  0
LINE
  8
0
 10
-58.33183288574219
 20
58.40385818481445
 30
0.0
 11
-58.16630172729492
 21
58.43007278442383
 31
0.0
  0
LINE
  8
0
 10
-41.07395553588867
 20
-22.807252883911133
 30
0.0
 11
-41.07421875
 21
-22.80751609802246
 31
0.0
  0
LINE
  8
0
 10
-41.07395553588867
 20
-22.807252883911133
 30
0.0
 11
-41.12296676635742
 21
-22.856264114379883
 31
0.0
  0
LINE
  8
0
 10
-57.03376007080078
 20
59.34718704223633
 30
0.0
 11
-57.033912658691406
 21
59.34688949584961
 31
0.0
  0
LINE
  8
0
 10
-60.02644348144531
 20
59.5040283203125
 30
0.0
 11
-59.99920654296875
 21
59.43307113647461
 31
0.0
  0
LINE
  8
0
 10
38.53376007080078
 20
-24.652812957763672
 30
0.0
 11
38.60987854003906
 21
-24.802200317382812
 31
0.0
  0
LINE
  8
0
 10
-59.44309997558594
 20
58.70133972167969
 30
0.0
 11
-59.30249786376953
 21
58.61003112792969
 31
0.0
  0
LINE
  8
0
 10
-119.0040283203125
 20
-15.973554611206055
 30
0.0
 11
-118.84756469726562
 21
-16.03361701965332
 31
0.0
  0
LINE
  8
0
 10
119.00364685058594
 20
-15.973702430725098
 30
0.0
 11
118.8471908569336
 21
-16.03376007080078
 31
0.0
  0
LINE
  8
0
 10
117.93016815185547
 20
-17.16596794128418
 30
0.0
 11
117.9300765991211
 21
-17.166301727294922
 31
0.0
  0
LINE
  8
0
 10
118.20153045654297
 20
-16.55660629272461
 30
0.0
 11
118.11022186279297
 21
-16.69720458984375
 31
0.0
  0
LINE
  8
0
 10
-119.0040283203125
 20
-15.973554611206055
 30
0.0
 11
-119.00442504882812
 21
-15.973447799682617
 31
0.0
  0
LINE
  8
0
 10
38.47355651855469
 20
-23.5040283203125
 30
0.0
 11
38.43007278442383
 21
-23.666301727294922
 31
0.0
  0
LINE
  8
0
 10
-120.79865264892578
 20
-18.443113327026367
 30
0.0
 11
-120.8097915649414
 21
-18.42595863342285
 31
0.0
  0
LINE
  8
0
 10
-120.79865264892578
 20
-18.443113327026367
 30
0.0
 11
-120.79846954345703
 21
-18.44339370727539
 31
0.0
  0
LINE
  8
0
 10
118.69750213623047
 20
-18.889968872070312
 30
0.0
 11
118.556884765625
 21
-18.798654556274414
 31
0.0
  0
LINE
  8
0
 10
128.46624755859375
 20
57.34718704223633
 30
0.0
 11
128.46609497070312
 21
57.34688949584961
 31
0.0
  0
LINE
  8
0
 10
128.46624755859375
 20
57.34718704223633
 30
0.0
 11
128.3899688720703
 21
57.19750213623047
 31
0.0
  0
LINE
  8
0
 10
126.83256530761719
 20
56.40377426147461
 30
0.0
 11
127.0
 21
56.39500045776367
 31
0.0
  0
LINE
  8
0
 10
38.47355651855469
 20
-23.5040283203125
 30
0.0
 11
38.47367858886719
 21
-23.50371551513672
 31
0.0
  0
LINE
  8
0
 10
127.0722427368164
 20
59.60121154785156
 30
0.0
 11
127.0
 21
59.60499954223633
 31
0.0
  0
LINE
  8
0
 10
-57.03376007080078
 20
59.34718704223633
 30
0.0
 11
-56.98564147949219
 21
59.47254943847656
 31
0.0
  0
LINE
  8
0
 10
-127.94339752197266
 20
56.70153045654297
 30
0.0
 11
-128.07369995117188
 21
56.80704116821289
 31
0.0
  0
LINE
  8
0
 10
57.11003112792969
 20
60.80249786376953
 30
0.0
 11
57.03376007080078
 21
60.65281295776367
 31
0.0
  0
LINE
  8
0
 10
130.52000427246094
 20
-18.15599822998047
 30
0.0
 11
141.0439910888672
 21
-14.993999481201172
 31
0.0
  0
LINE
  8
0
 10
89.15400695800781
 20
-77.52400207519531
 30
0.0
 11
92.83601379394531
 21
-75.27400207519531
 31
0.0
  0
LINE
  8
0
 10
-123.37400817871094
 20
65.31401062011719
 30
0.0
 11
-116.406005859375
 21
68.28401184082031
 31
0.0
  0
LINE
  8
0
 10
41.07395553588867
 20
-22.807252883911133
 30
0.0
 11
41.073665618896484
 21
-22.807018280029297
 31
0.0
  0
LINE
  8
0
 10
59.15250015258789
 20
61.46636199951172
 30
0.0
 11
58.9959716796875
 21
61.52644348144531
 31
0.0
  0
LINE
  8
0
 10
59.88996887207031
 20
59.19750213623047
 30
0.0
 11
59.88977813720703
 21
59.197208404541016
 31
0.0
  0
LINE
  8
0
 10
125.9260482788086
 20
56.8072509765625
 30
0.0
 11
125.80753326416016
 21
56.92576217651367
 31
0.0
  0
LINE
  8
0
 10
58.996315002441406
 20
58.47368621826172
 30
0.0
 11
58.9959716796875
 21
58.47355651855469
 31
0.0
  0
LINE
  8
0
 10
57.10987854003906
 20
59.19780349731445
 30
0.0
 11
57.11003112792969
 21
59.19750213623047
 31
0.0
  0
LINE
  8
0
 10
59.88996887207031
 20
59.19750213623047
 30
0.0
 11
59.96607971191406
 21
59.34687042236328
 31
0.0
  0
LINE
  8
0
 10
-38.43007278442383
 20
-23.666301727294922
 30
0.0
 11
-38.43001937866211
 21
-23.66663360595703
 31
0.0
  0
LINE
  8
0
 10
-38.43007278442383
 20
-23.666301727294922
 30
0.0
 11
-38.47346878051758
 21
-23.504352569580078
 31
0.0
  0
LINE
  8
0
 10
-119.33222961425781
 20
-19.096206665039062
 30
0.0
 11
-119.33190155029297
 21
-19.096153259277344
 31
0.0
  0
LINE
  8
0
 10
-40.80220031738281
 20
-25.390121459960938
 30
0.0
 11
-40.80249786376953
 21
-25.389968872070312
 31
0.0
  0
LINE
  8
0
 10
-40.80220031738281
 20
-25.390121459960938
 30
0.0
 11
-40.65281295776367
 21
-25.46623992919922
 31
0.0
  0
LINE
  8
0
 10
-58.83332824707031
 20
58.430015563964844
 30
0.0
 11
-58.83369827270508
 21
58.43007278442383
 31
0.0
  0
LINE
  8
0
 10
-38.92604446411133
 20
-22.807252883911133
 30
0.0
 11
-38.80748748779297
 21
-22.92580795288086
 31
0.0
  0
LINE
  8
0
 10
-57.69750213623047
 20
58.61003112792969
 30
0.0
 11
-57.55660629272461
 21
58.70153045654297
 31
0.0
  0
LINE
  8
0
 10
128.46624755859375
 20
58.65281295776367
 30
0.0
 11
128.39012145996094
 21
58.80220031738281
 31
0.0
  0
LINE
  8
0
 10
-59.96623992919922
 20
59.34718704223633
 30
0.0
 11
-59.89012908935547
 21
59.19781494140625
 31
0.0
  0
LINE
  8
0
 10
121.0699234008789
 20
-17.166301727294922
 30
0.0
 11
121.06997680664062
 21
-17.16663360595703
 31
0.0
  0
LINE
  8
0
 10
121.0699234008789
 20
-17.166301727294922
 30
0.0
 11
121.02652740478516
 21
-17.004352569580078
 31
0.0
  0
LINE
  8
0
 10
119.33222961425781
 20
-15.903792381286621
 30
0.0
 11
119.33183288574219
 21
-15.903855323791504
 31
0.0
  0
LINE
  8
0
 10
119.33222961425781
 20
-15.903792381286621
 30
0.0
 11
119.16630554199219
 21
-15.930073738098145
 31
0.0
  0
LINE
  8
0
 10
121.09620666503906
 20
-17.667766571044922
 30
0.0
 11
121.0699234008789
 21
-17.833698272705078
 31
0.0
  0
LINE
  8
0
 10
119.33222961425781
 20
-15.903792381286621
 30
0.0
 11
119.49960327148438
 21
-15.895021438598633
 31
0.0
  0
LINE
  8
0
 10
118.3072509765625
 20
-16.426044464111328
 30
0.0
 11
118.20175170898438
 21
-16.55632972717285
 31
0.0
  0
LINE
  8
0
 10
-39.34718704223633
 20
-25.46623992919922
 30
0.0
 11
-39.19750213623047
 21
-25.389968872070312
 31
0.0
  0
LINE
  8
0
 10
121.0699234008789
 20
-17.166301727294922
 30
0.0
 11
121.02644348144531
 21
-17.0040283203125
 31
0.0
  0
LINE
  8
0
 10
-58.33183288574219
 20
58.40385818481445
 30
0.0
 11
-58.33223342895508
 21
58.40379333496094
 31
0.0
  0
LINE
  8
0
 10
-121.06983947753906
 20
-17.165977478027344
 30
0.0
 11
-121.0699234008789
 21
-17.166301727294922
 31
0.0
  0
LINE
  8
0
 10
-119.66777038574219
 20
-15.903792381286621
 30
0.0
 11
-119.66815185546875
 21
-15.903852462768555
 31
0.0
  0
LINE
  8
0
 10
-117.93016052246094
 20
-17.834022521972656
 30
0.0
 11
-117.95315551757812
 21
-17.91983413696289
 31
0.0
  0
LINE
  8
0
 10
58.83369827270508
 20
61.56992721557617
 30
0.0
 11
58.83336639404297
 21
61.56998062133789
 31
0.0
  0
LINE
  8
0
 10
-119.66777038574219
 20
-15.903792381286621
 30
0.0
 11
-119.83369445800781
 21
-15.930073738098145
 31
0.0
  0
LINE
  8
0
 10
125.70153045654297
 20
58.94339370727539
 30
0.0
 11
125.61021423339844
 21
58.80278015136719
 31
0.0
  0
LINE
  8
0
 10
126.5040283203125
 20
56.47355651855469
 30
0.0
 11
126.34751892089844
 21
56.533634185791016
 31
0.0
  0
LINE
  8
0
 10
125.9260482788086
 20
56.8072509765625
 30
0.0
 11
125.8072509765625
 21
56.92604446411133
 31
0.0
  0
LINE
  8
0
 10
39.66630172729492
 20
-25.569927215576172
 30
0.0
 11
39.50435256958008
 21
-25.526533126831055
 31
0.0
  0
LINE
  8
0
 10
37.05000305175781
 20
-27.70600128173828
 30
0.0
 11
38.70799255371094
 21
-30.057998657226562
 31
0.0
  0
LINE
  8
0
 10
-128.29847717285156
 20
58.94339370727539
 30
0.0
 11
-128.38978576660156
 21
58.80278015136719
 31
0.0
  0
LINE
  8
0
 10
-128.29847717285156
 20
58.94339370727539
 30
0.0
 11
-128.2982635498047
 21
58.94365310668945
 31
0.0
  0
LINE
  8
0
 10
-57.69750213623047
 20
58.61003112792969
 30
0.0
 11
-57.84680938720703
 21
58.53395080566406
 31
0.0
  0
LINE
  8
0
 10
57.033912658691406
 20
60.65311050415039
 30
0.0
 11
57.03376007080078
 21
60.65281295776367
 31
0.0
  0
LINE
  8
0
 10
59.6927490234375
 20
61.07395553588867
 30
0.0
 11
59.69295883178711
 21
61.07369613647461
 31
0.0
  0
LINE
  8
0
 10
38.53376007080078
 20
-24.652812957763672
 30
0.0
 11
38.59517288208008
 21
-24.77333641052246
 31
0.0
  0
LINE
  8
0
 10
38.53376007080078
 20
-24.652812957763672
 30
0.0
 11
38.53363800048828
 21
-24.65250015258789
 31
0.0
  0
LINE
  8
0
 10
57.556941986083984
 20
58.70131301879883
 30
0.0
 11
57.69750213623047
 21
58.61003112792969
 31
0.0
  0
LINE
  8
0
 10
-39.19779968261719
 20
-22.609878540039062
 30
0.0
 11
-39.34718704223633
 21
-22.53376007080078
 31
0.0
  0
LINE
  8
0
 10
-39.34718704223633
 20
-25.46623992919922
 30
0.0
 11
-39.34688949584961
 21
-25.466087341308594
 31
0.0
  0
LINE
  8
0
 10
-38.92604446411133
 20
-22.807252883911133
 30
0.0
 11
-38.92630386352539
 21
-22.80704116821289
 31
0.0
  0
LINE
  8
0
 10
-60.09622573852539
 20
59.83256912231445
 30
0.0
 11
-60.09620666503906
 21
59.83223342895508
 31
0.0
  0
LINE
  8
0
 10
-59.79846954345703
 20
60.94339370727539
 30
0.0
 11
-59.88978576660156
 21
60.80278015136719
 31
0.0
  0
LINE
  8
0
 10
-56.97355651855469
 20
60.4959716796875
 30
0.0
 11
-56.97346878051758
 21
60.49564743041992
 31
0.0
  0
LINE
  8
0
 10
-59.79866027832031
 20
59.05690002441406
 30
0.0
 11
-59.79846954345703
 21
59.05660629272461
 31
0.0
  0
LINE
  8
0
 10
-59.79846954345703
 20
60.94339370727539
 30
0.0
 11
-59.79825973510742
 21
60.94365310668945
 31
0.0
  0
LINE
  8
0
 10
40.80217742919922
 20
-22.6098690032959
 30
0.0
 11
40.65281295776367
 21
-22.53376007080078
 31
0.0
  0
LINE
  8
0
 10
118.20153045654297
 20
-16.55660629272461
 30
0.0
 11
118.20175170898438
 21
-16.55632972717285
 31
0.0
  0
LINE
  8
0
 10
120.1528091430664
 20
-16.03376007080078
 30
0.0
 11
120.1524887084961
 21
-16.03363800048828
 31
0.0
  0
LINE
  8
0
 10
126.83256530761719
 20
56.40377426147461
 30
0.0
 11
126.83222961425781
 21
56.40379333496094
 31
0.0
  0
LINE
  8
0
 10
-117.90379333496094
 20
-17.332233428955078
 30
0.0
 11
-117.90377807617188
 21
-17.33258056640625
 31
0.0
  0
LINE
  8
0
 10
-117.90379333496094
 20
-17.667766571044922
 30
0.0
 11
-117.90384674072266
 21
-17.66809844970703
 31
0.0
  0
LINE
  8
0
 10
-58.83332824707031
 20
58.430015563964844
 30
0.0
 11
-58.66776657104492
 21
58.40379333496094
 31
0.0
  0
LINE
  8
0
 10
-120.57418823242188
 20
-16.3074893951416
 30
0.0
 11
-120.6927490234375
 21
-16.426044464111328
 31
0.0
  0
LINE
  8
0
 10
-39.34688949584961
 20
-25.466087341308594
 30
0.0
 11
-39.19750213623047
 21
-25.389968872070312
 31
0.0
  0
LINE
  8
0
 10
121.02644348144531
 20
-17.9959716796875
 30
0.0
 11
121.02632141113281
 21
-17.99628448486328
 31
0.0
  0
LINE
  8
0
 10
128.2982635498047
 20
57.05634689331055
 30
0.0
 11
128.22967529296875
 21
56.97163772583008
 31
0.0
  0
LINE
  8
0
 10
41.07395553588867
 20
-22.807252883911133
 30
0.0
 11
40.94339370727539
 21
-22.701528549194336
 31
0.0
  0
LINE
  8
0
 10
125.70153045654297
 20
57.05660629272461
 30
0.0
 11
125.80699920654297
 21
56.926353454589844
 31
0.0
  0
LINE
  8
0
 10
-119.83369445800781
 20
-19.069927215576172
 30
0.0
 11
-119.99565124511719
 21
-19.026533126831055
 31
0.0
  0
LINE
  8
0
 10
128.07395935058594
 20
56.8072509765625
 30
0.0
 11
127.94365692138672
 21
56.70174026489258
 31
0.0
  0
LINE
  8
0
 10
127.90078735351562
 20
56.67386245727539
 30
0.0
 11
127.90376281738281
 21
56.6757926940918
 31
0.0
  0
LINE
  8
0
 10
41.07395553588867
 20
-22.807252883911133
 30
0.0
 11
41.12356948852539
 21
-22.85686492919922
 31
0.0
  0
LINE
  8
0
 10
-128.07395935058594
 20
59.1927490234375
 30
0.0
 11
-128.1925048828125
 21
59.07419204711914
 31
0.0
  0
LINE
  8
0
 10
-128.07395935058594
 20
59.1927490234375
 30
0.0
 11
-128.1927490234375
 21
59.07395553588867
 31
0.0
  0
LINE
  8
0
 10
-126.83190155029297
 20
56.403846740722656
 30
0.0
 11
-126.83222961425781
 21
56.40379333496094
 31
0.0
  0
LINE
  8
0
 10
-126.83190155029297
 20
56.403846740722656
 30
0.0
 11
-126.66630554199219
 21
56.43007278442383
 31
0.0
  0
LINE
  8
0
 10
39.19750213623047
 20
-25.389968872070312
 30
0.0
 11
39.056888580322266
 21
-25.298654556274414
 31
0.0
  0
LINE
  8
0
 10
-128.5264434814453
 20
57.5040283203125
 30
0.0
 11
-128.46636962890625
 21
57.34749984741211
 31
0.0
  0
LINE
  8
0
 10
38.47355651855469
 20
-23.5040283203125
 30
0.0
 11
38.43016052246094
 21
-23.665977478027344
 31
0.0
  0
LINE
  8
0
 10
-128.07395935058594
 20
59.1927490234375
 30
0.0
 11
-127.94365692138672
 21
59.29825973510742
 31
0.0
  0
LINE
  8
0
 10
38.8072509765625
 20
-22.926044464111328
 30
0.0
 11
38.70174026489258
 21
-23.056344985961914
 31
0.0
  0
LINE
  8
0
 10
57.11003112792969
 20
60.80249786376953
 30
0.0
 11
57.033912658691406
 21
60.65311050415039
 31
0.0
  0
LINE
  8
0
 10
38.47355651855469
 20
-23.5040283203125
 30
0.0
 11
38.53376007080078
 21
-23.347187042236328
 31
0.0
  0
LINE
  8
0
 10
38.8072509765625
 20
-22.926044464111328
 30
0.0
 11
38.92604446411133
 21
-22.807252883911133
 31
0.0
  0
LINE
  8
0
 10
38.8072509765625
 20
-22.926044464111328
 30
0.0
 11
38.92580795288086
 21
-22.8074893951416
 31
0.0
  0
LINE
  8
0
 10
59.44339370727539
 20
61.29846954345703
 30
0.0
 11
59.443111419677734
 21
61.29865264892578
 31
0.0
  0
LINE
  8
0
 10
59.44339370727539
 20
61.29846954345703
 30
0.0
 11
59.30249786376953
 21
61.38996887207031
 31
0.0
  0
LINE
  8
0
 10
58.66743087768555
 20
61.59622573852539
 30
0.0
 11
58.656211853027344
 21
61.5968132019043
 31
0.0
  0
LINE
  8
0
 10
117.97347259521484
 20
-17.995647430419922
 30
0.0
 11
117.95335388183594
 21
-17.920581817626953
 31
0.0
  0
LINE
  8
0
 10
117.97347259521484
 20
-17.995647430419922
 30
0.0
 11
117.97355651855469
 21
-17.9959716796875
 31
0.0
  0
LINE
  8
0
 10
121.09620666503906
 20
-17.667766571044922
 30
0.0
 11
121.09615325927734
 21
-17.66809844970703
 31
0.0
  0
LINE
  8
0
 10
-41.19295883178711
 20
-25.073694229125977
 30
0.0
 11
-41.1927490234375
 21
-25.073955535888672
 31
0.0
  0
LINE
  8
0
 10
118.20134735107422
 20
-18.443113327026367
 30
0.0
 11
118.20153045654297
 21
-18.44339370727539
 31
0.0
  0
LINE
  8
0
 10
118.42630767822266
 20
-18.69295883178711
 30
0.0
 11
118.55660247802734
 21
-18.798471450805664
 31
0.0
  0
LINE
  8
0
 10
121.09615325927734
 20
-17.66809844970703
 30
0.0
 11
121.0699234008789
 21
-17.833698272705078
 31
0.0
  0
LINE
  8
0
 10
-40.4959716796875
 20
-22.473554611206055
 30
0.0
 11
-40.45462417602539
 21
-22.462474822998047
 31
0.0
  0
LINE
  8
0
 10
-56.89501953125
 20
59.999664306640625
 30
0.0
 11
-56.90379333496094
 21
59.83223342895508
 31
0.0
  0
LINE
  8
0
 10
119.9956283569336
 20
-15.97346305847168
 30
0.0
 11
119.83369445800781
 21
-15.930073738098145
 31
0.0
  0
LINE
  8
0
 10
-57.556888580322266
 20
61.29865264892578
 30
0.0
 11
-57.69750213623047
 21
61.38996887207031
 31
0.0
  0
LINE
  8
0
 10
128.59622192382812
 20
58.16743087768555
 30
0.0
 11
128.60198974609375
 21
58.05730438232422
 31
0.0
  0
LINE
  8
0
 10
-126.66630554199219
 20
59.56992721557617
 30
0.0
 11
-126.66663360595703
 21
59.56998062133789
 31
0.0
  0
LINE
  8
0
 10
-118.03376007080078
 20
-18.152812957763672
 30
0.0
 11
-118.0339126586914
 21
-18.153112411499023
 31
0.0
  0
LINE
  8
0
 10
-118.03376007080078
 20
-18.152812957763672
 30
0.0
 11
-118.11003112792969
 21
-18.302499771118164
 31
0.0
  0
LINE
  8
0
 10
-121.10499572753906
 20
-17.5
 30
0.0
 11
-121.09622192382812
 21
-17.667430877685547
 31
0.0
  0
LINE
  8
0
 10
-121.10499572753906
 20
-17.5
 30
0.0
 11
-121.09620666503906
 21
-17.667766571044922
 31
0.0
  0
LINE
  8
0
 10
-121.10499572753906
 20
-17.5
 30
0.0
 11
-121.10498046875
 21
-17.499664306640625
 31
0.0
  0
LINE
  8
0
 10
-118.55660247802734
 20
-18.798471450805664
 30
0.0
 11
-118.69721984863281
 21
-18.889785766601562
 31
0.0
  0
LINE
  8
0
 10
126.83222961425781
 20
56.40379333496094
 30
0.0
 11
126.66663360595703
 21
56.43001937866211
 31
0.0
  0
LINE
  8
0
 10
127.0
 20
59.60499954223633
 30
0.0
 11
126.83222961425781
 21
59.59620666503906
 31
0.0
  0
LINE
  8
0
 10
126.19782257080078
 20
56.609867095947266
 30
0.0
 11
126.19750213623047
 21
56.61003112792969
 31
0.0
  0
LINE
  8
0
 10
126.19782257080078
 20
56.609867095947266
 30
0.0
 11
126.3471908569336
 21
56.53376007080078
 31
0.0
  0
LINE
  8
0
 10
24.503997802734375
 20
-21.795997619628906
 30
0.0
 11
0.0099945068359375
 21
-22.374000549316406
 31
0.0
  0
LINE
  8
0
 10
127.0
 20
59.60499954223633
 30
0.0
 11
126.99966430664062
 21
59.60498046875
 31
0.0
  0
LINE
  8
0
 10
125.53376007080078
 20
57.34718704223633
 30
0.0
 11
125.6098403930664
 21
57.197879791259766
 31
0.0
  0
LINE
  8
0
 10
24.503997802734375
 20
-21.795997619628906
 30
0.0
 11
32.571990966796875
 21
-24.964000701904297
 31
0.0
  0
LINE
  8
0
 10
-118.03376007080078
 20
-18.152812957763672
 30
0.0
 11
-117.97367858886719
 21
-17.99628448486328
 31
0.0
  0
LINE
  8
0
 10
56.93007278442383
 20
60.33369827270508
 30
0.0
 11
56.97355651855469
 21
60.4959716796875
 31
0.0
  0
LINE
  8
0
 10
56.93007278442383
 20
60.33369827270508
 30
0.0
 11
56.93016052246094
 21
60.334022521972656
 31
0.0
  0
LINE
  8
0
 10
-125.39861297607422
 20
58.06893539428711
 30
0.0
 11
-125.39500427246094
 21
58.0
 31
0.0
  0
LINE
  8
0
 10
126.05660247802734
 20
56.70153045654297
 30
0.0
 11
126.05691528320312
 21
56.70132827758789
 31
0.0
  0
LINE
  8
0
 10
118.8471908569336
 20
-18.96623992919922
 30
0.0
 11
118.84750366210938
 21
-18.966360092163086
 31
0.0
  0
LINE
  8
0
 10
41.56998062133789
 20
-23.666648864746094
 30
0.0
 11
41.59620666503906
 21
-23.832233428955078
 31
0.0
  0
LINE
  8
0
 10
41.60498046875
 20
-24.000335693359375
 30
0.0
 11
41.59620666503906
 21
-24.167766571044922
 31
0.0
  0
LINE
  8
0
 10
-136.2440185546875
 20
62.0360107421875
 30
0.0
 11
-130.92201232910156
 21
62.54400634765625
 31
0.0
  0
LINE
  8
0
 10
-136.2440185546875
 20
62.0360107421875
 30
0.0
 11
-156.29200744628906
 21
61.324005126953125
 31
0.0
  0
LINE
  8
0
 10
56.93007278442383
 20
59.66630172729492
 30
0.0
 11
56.97346878051758
 21
59.50435256958008
 31
0.0
  0
LINE
  8
0
 10
-118.42581176757812
 20
-18.6925106048584
 30
0.0
 11
-118.4260482788086
 21
-18.692747116088867
 31
0.0
  0
LINE
  8
0
 10
40.3333625793457
 20
-22.43001937866211
 30
0.0
 11
40.24465560913086
 21
-22.415969848632812
 31
0.0
  0
LINE
  8
0
 10
57.42604446411133
 20
61.1927490234375
 30
0.0
 11
57.30748748779297
 21
61.07419204711914
 31
0.0
  0
LINE
  8
0
 10
57.42604446411133
 20
61.1927490234375
 30
0.0
 11
57.3072509765625
 21
61.07395553588867
 31
0.0
  0
LINE
  8
0
 10
39.83223342895508
 20
-22.403793334960938
 30
0.0
 11
39.936031341552734
 21
-22.398353576660156
 31
0.0
  0
LINE
  8
0
 10
56.93007278442383
 20
59.66630172729492
 30
0.0
 11
56.93001937866211
 21
59.66663360595703
 31
0.0
  0
LINE
  8
0
 10
57.42604446411133
 20
61.1927490234375
 30
0.0
 11
57.55634689331055
 21
61.29825973510742
 31
0.0
  0
LINE
  8
0
 10
60.06992721557617
 20
59.66630172729492
 30
0.0
 11
60.06983947753906
 21
59.665977478027344
 31
0.0
  0
LINE
  8
0
 10
56.93007278442383
 20
60.33369827270508
 30
0.0
 11
56.903846740722656
 21
60.16809844970703
 31
0.0
  0
LINE
  8
0
 10
-125.53376007080078
 20
57.34718704223633
 30
0.0
 11
-125.53394317626953
 21
57.346824645996094
 31
0.0
  0
LINE
  8
0
 10
118.8471908569336
 20
-16.03376007080078
 30
0.0
 11
118.69750213623047
 21
-16.110031127929688
 31
0.0
  0
LINE
  8
0
 10
118.8471908569336
 20
-16.03376007080078
 30
0.0
 11
118.84683227539062
 21
-16.0339412689209
 31
0.0
  0
LINE
  8
0
 10
118.11022186279297
 20
-16.69720458984375
 30
0.0
 11
118.11003112792969
 21
-16.697500228881836
 31
0.0
  0
LINE
  8
0
 10
-58.33223342895508
 20
58.40379333496094
 30
0.0
 11
-58.16630172729492
 21
58.43007278442383
 31
0.0
  0
LINE
  8
0
 10
-60.09620666503906
 20
60.16776657104492
 30
0.0
 11
-60.06992721557617
 21
60.33369827270508
 31
0.0
  0
LINE
  8
0
 10
-60.09620666503906
 20
60.16776657104492
 30
0.0
 11
-60.096153259277344
 21
60.16809844970703
 31
0.0
  0
LINE
  8
0
 10
-40.33403015136719
 20
-22.430160522460938
 30
0.0
 11
-40.45462417602539
 21
-22.462474822998047
 31
0.0
  0
LINE
  8
0
 10
-41.56992721557617
 20
-24.333698272705078
 30
0.0
 11
-41.56998062133789
 21
-24.33336639404297
 31
0.0
  0
LINE
  8
0
 10
-57.033912658691406
 20
59.34688949584961
 30
0.0
 11
-57.0958251953125
 21
59.225379943847656
 31
0.0
  0
LINE
  8
0
 10
38.61003112792969
 20
-24.802499771118164
 30
0.0
 11
38.60987854003906
 21
-24.802200317382812
 31
0.0
  0
LINE
  8
0
 10
-125.53376007080078
 20
57.34718704223633
 30
0.0
 11
-125.47370147705078
 21
57.503662109375
 31
0.0
  0
LINE
  8
0
 10
118.42630767822266
 20
-18.69295883178711
 30
0.0
 11
118.4260482788086
 21
-18.692747116088867
 31
0.0
  0
LINE
  8
0
 10
128.46609497070312
 20
57.34688949584961
 30
0.0
 11
128.3899688720703
 21
57.19750213623047
 31
0.0
  0
LINE
  8
0
 10
-119.00442504882812
 20
-15.973447799682617
 30
0.0
 11
-119.07546997070312
 21
-15.954412460327148
 31
0.0
  0
LINE
  8
0
 10
-120.57369232177734
 20
-18.69295883178711
 30
0.0
 11
-120.5739517211914
 21
-18.692747116088867
 31
0.0
  0
LINE
  8
0
 10
-120.57369232177734
 20
-18.69295883178711
 30
0.0
 11
-120.44339752197266
 21
-18.798471450805664
 31
0.0
  0
LINE
  8
0
 10
-117.90384674072266
 20
-17.66809844970703
 30
0.0
 11
-117.90486145019531
 21
-17.674495697021484
 31
0.0
  0
LINE
  8
0
 10
-125.40379333496094
 20
57.83223342895508
 30
0.0
 11
-125.40384674072266
 21
57.831878662109375
 31
0.0
  0
LINE
  8
0
 10
-127.90380859375
 20
56.67582321166992
 30
0.0
 11
-127.90232849121094
 21
56.674861907958984
 31
0.0
  0
LINE
  8
0
 10
-125.40379333496094
 20
57.83223342895508
 30
0.0
 11
-125.39501953125
 21
57.999656677246094
 31
0.0
  0
LINE
  8
0
 10
-128.3899688720703
 20
58.80249786376953
 30
0.0
 11
-128.46609497070312
 21
58.65311050415039
 31
0.0
  0
LINE
  8
0
 10
-128.3899688720703
 20
58.80249786376953
 30
0.0
 11
-128.46624755859375
 21
58.65281295776367
 31
0.0
  0
LINE
  8
0
 10
-125.53376007080078
 20
57.34718704223633
 30
0.0
 11
-125.47355651855469
 21
57.5040283203125
 31
0.0
  0
LINE
  8
0
 10
-128.3899688720703
 20
58.80249786376953
 30
0.0
 11
-128.38978576660156
 21
58.80278015136719
 31
0.0
  0
LINE
  8
0
 10
126.83222961425781
 20
59.59620666503906
 30
0.0
 11
126.83190155029297
 21
59.596153259277344
 31
0.0
  0
LINE
  8
0
 10
126.83222961425781
 20
59.59620666503906
 30
0.0
 11
126.66630554199219
 21
59.56992721557617
 31
0.0
  0
LINE
  8
0
 10
126.83222961425781
 20
59.59620666503906
 30
0.0
 11
126.99966430664062
 21
59.60498046875
 31
0.0
  0
LINE
  8
0
 10
38.60987854003906
 20
-24.802200317382812
 30
0.0
 11
38.59517288208008
 21
-24.77333641052246
 31
0.0
  0
LINE
  8
0
 10
39.5040283203125
 20
-22.473554611206055
 30
0.0
 11
39.34718704223633
 21
-22.53376007080078
 31
0.0
  0
LINE
  8
0
 10
58.9959716796875
 20
58.47355651855469
 30
0.0
 11
58.83406066894531
 21
58.43016815185547
 31
0.0
  0
LINE
  8
0
 10
57.095802307128906
 20
59.225425720214844
 30
0.0
 11
57.11003112792969
 21
59.19750213623047
 31
0.0
  0
LINE
  8
0
 10
-58.33223342895508
 20
58.40379333496094
 30
0.0
 11
-58.49960708618164
 21
58.39501953125
 31
0.0
  0
LINE
  8
0
 10
-38.43001937866211
 20
-23.66663360595703
 30
0.0
 11
-38.40379333496094
 21
-23.832233428955078
 31
0.0
  0
LINE
  8
0
 10
-41.56992721557617
 20
-24.333698272705078
 30
0.0
 11
-41.52653121948242
 21
-24.495647430419922
 31
0.0
  0
LINE
  8
0
 10
-60.09620666503906
 20
60.16776657104492
 30
0.0
 11
-60.10498046875
 21
60.000335693359375
 31
0.0
  0
LINE
  8
0
 10
54.78199768066406
 20
65.17401123046875
 30
0.0
 11
52.93800354003906
 21
65.65800476074219
 31
0.0
  0
LINE
  8
0
 10
41.073665618896484
 20
-22.807018280029297
 30
0.0
 11
40.94339370727539
 21
-22.701528549194336
 31
0.0
  0
LINE
  8
0
 10
-48.02600860595703
 20
65.80999755859375
 30
0.0
 11
-52.94200897216797
 21
65.65800476074219
 31
0.0
  0
LINE
  8
0
 10
40.65281295776367
 20
-22.53376007080078
 30
0.0
 11
40.65248107910156
 21
-22.533634185791016
 31
0.0
  0
LINE
  8
0
 10
59.88977813720703
 20
59.197208404541016
 30
0.0
 11
59.79846954345703
 21
59.05660629272461
 31
0.0
  0
LINE
  8
0
 10
58.9959716796875
 20
61.52644348144531
 30
0.0
 11
58.99564743041992
 21
61.52653121948242
 31
0.0
  0
LINE
  8
0
 10
39.34718704223633
 20
-25.46623992919922
 30
0.0
 11
39.34749984741211
 21
-25.466360092163086
 31
0.0
  0
LINE
  8
0
 10
120.6927490234375
 20
-16.426044464111328
 30
0.0
 11
120.69251251220703
 21
-16.42580795288086
 31
0.0
  0
LINE
  8
0
 10
120.6927490234375
 20
-16.426044464111328
 30
0.0
 11
120.69296264648438
 21
-16.426305770874023
 31
0.0
  0
LINE
  8
0
 10
-58.83369827270508
 20
58.43007278442383
 30
0.0
 11
-58.66776657104492
 21
58.40379333496094
 31
0.0
  0
LINE
  8
0
 10
-40.80249786376953
 20
-25.389968872070312
 30
0.0
 11
-40.943111419677734
 21
-25.298654556274414
 31
0.0
  0
LINE
  8
0
 10
-39.34718704223633
 20
-22.53376007080078
 30
0.0
 11
-39.34749984741211
 21
-22.533639907836914
 31
0.0
  0
LINE
  8
0
 10
-41.56992721557617
 20
-23.666301727294922
 30
0.0
 11
-41.596153259277344
 21
-23.831897735595703
 31
0.0
  0
LINE
  8
0
 10
-58.83369827270508
 20
58.43007278442383
 30
0.0
 11
-58.9959716796875
 21
58.47355651855469
 31
0.0
  0
LINE
  8
0
 10
-57.55660629272461
 20
58.70153045654297
 30
0.0
 11
-57.42604446411133
 21
58.8072509765625
 31
0.0
  0
LINE
  8
0
 10
-58.83369827270508
 20
58.43007278442383
 30
0.0
 11
-58.9956169128418
 21
58.47346115112305
 31
0.0
  0
LINE
  8
0
 10
-57.55660629272461
 20
58.70153045654297
 30
0.0
 11
-57.556297302246094
 21
58.7017822265625
 31
0.0
  0
LINE
  8
0
 10
-57.84718704223633
 20
58.53376007080078
 30
0.0
 11
-57.84680938720703
 21
58.53395080566406
 31
0.0
  0
LINE
  8
0
 10
121.06997680664062
 20
-17.16663360595703
 30
0.0
 11
121.09620666503906
 21
-17.332233428955078
 31
0.0
  0
LINE
  8
0
 10
117.9300765991211
 20
-17.166301727294922
 30
0.0
 11
117.90384674072266
 21
-17.331890106201172
 31
0.0
  0
LINE
  8
0
 10
-118.03376007080078
 20
-18.152812957763672
 30
0.0
 11
-117.97355651855469
 21
-17.9959716796875
 31
0.0
  0
LINE
  8
0
 10
-120.79846954345703
 20
-16.55660629272461
 30
0.0
 11
-120.88996887207031
 21
-16.697500228881836
 31
0.0
  0
LINE
  8
0
 10
-121.0699234008789
 20
-17.166301727294922
 30
0.0
 11
-121.09615325927734
 21
-17.33190155029297
 31
0.0
  0
LINE
  8
0
 10
-121.0699234008789
 20
-17.166301727294922
 30
0.0
 11
-121.09620666503906
 21
-17.332233428955078
 31
0.0
  0
LINE
  8
0
 10
-117.95315551757812
 20
-17.91983413696289
 30
0.0
 11
-117.97355651855469
 21
-17.9959716796875
 31
0.0
  0
LINE
  8
0
 10
-120.79846954345703
 20
-16.55660629272461
 30
0.0
 11
-120.6927490234375
 21
-16.426044464111328
 31
0.0
  0
LINE
  8
0
 10
-118.20153045654297
 20
-18.44339370727539
 30
0.0
 11
-118.11021423339844
 21
-18.302780151367188
 31
0.0
  0
LINE
  8
0
 10
-120.79846954345703
 20
-16.55660629272461
 30
0.0
 11
-120.79825592041016
 21
-16.556344985961914
 31
0.0
  0
LINE
  8
0
 10
57.84718704223633
 20
61.46623992919922
 30
0.0
 11
57.69750213623047
 21
61.38996887207031
 31
0.0
  0
LINE
  8
0
 10
-59.30249786376953
 20
58.61003112792969
 30
0.0
 11
-59.302181243896484
 21
58.60987091064453
 31
0.0
  0
LINE
  8
0
 10
-125.8072509765625
 20
59.07395553588867
 30
0.0
 11
-125.80703735351562
 21
59.07369613647461
 31
0.0
  0
LINE
  8
0
 10
-118.20153045654297
 20
-18.44339370727539
 30
0.0
 11
-118.20174407958984
 21
-18.443655014038086
 31
0.0
  0
LINE
  8
0
 10
-118.20153045654297
 20
-18.44339370727539
 30
0.0
 11
-118.3072509765625
 21
-18.573955535888672
 31
0.0
  0
LINE
  8
0
 10
-125.8072509765625
 20
59.07395553588867
 30
0.0
 11
-125.80748748779297
 21
59.07419204711914
 31
0.0
  0
LINE
  8
0
 10
57.03376007080078
 20
60.65281295776367
 30
0.0
 11
56.97355651855469
 21
60.4959716796875
 31
0.0
  0
LINE
  8
0
 10
57.03376007080078
 20
60.65281295776367
 30
0.0
 11
56.97367858886719
 21
60.49628448486328
 31
0.0
  0
LINE
  8
0
 10
57.69750213623047
 20
58.61003112792969
 30
0.0
 11
57.69786834716797
 21
58.60984420776367
 31
0.0
  0
LINE
  8
0
 10
-38.47355651855469
 20
-23.5040283203125
 30
0.0
 11
-38.47346878051758
 21
-23.504352569580078
 31
0.0
  0
LINE
  8
0
 10
-38.47355651855469
 20
-23.5040283203125
 30
0.0
 11
-38.53363800048828
 21
-23.34749984741211
 31
0.0
  0
LINE
  8
0
 10
-38.92630386352539
 20
-22.80704116821289
 30
0.0
 11
-39.05660629272461
 21
-22.701528549194336
 31
0.0
  0
LINE
  8
0
 10
56.90379333496094
 20
60.16776657104492
 30
0.0
 11
56.93007278442383
 21
60.33369827270508
 31
0.0
  0
LINE
  8
0
 10
-60.09620666503906
 20
59.83223342895508
 30
0.0
 11
-60.06998062133789
 21
59.66663360595703
 31
0.0
  0
LINE
  8
0
 10
166.94801330566406
 20
20.34400177001953
 30
0.0
 11
175.22801208496094
 21
-1.6279983520507812
 31
0.0
  0
LINE
  8
0
 10
166.94801330566406
 20
20.34400177001953
 30
0.0
 11
160.2740020751953
 21
39.986000061035156
 31
0.0
  0
LINE
  8
0
 10
48.022003173828125
 20
65.80999755859375
 30
0.0
 11
52.93800354003906
 21
65.65800476074219
 31
0.0
  0
LINE
  8
0
 10
125.53376007080078
 20
57.34718704223633
 30
0.0
 11
125.53361511230469
 21
57.34756851196289
 31
0.0
  0
LINE
  8
0
 10
38.61003112792969
 20
-24.802499771118164
 30
0.0
 11
38.70134735107422
 21
-24.943113327026367
 31
0.0
  0
LINE
  8
0
 10
38.92630386352539
 20
-25.19295883178711
 30
0.0
 11
38.92604446411133
 21
-25.192747116088867
 31
0.0
  0
LINE
  8
0
 10
38.92630386352539
 20
-25.19295883178711
 30
0.0
 11
39.05660629272461
 21
-25.298471450805664
 31
0.0
  0
LINE
  8
0
 10
-98.4640121459961
 20
-47.25600051879883
 30
0.0
 11
-94.36600494384766
 21
-61.875999450683594
 31
0.0
  0
LINE
  8
0
 10
41.38996887207031
 20
-23.197500228881836
 30
0.0
 11
41.39013671875
 21
-23.197832107543945
 31
0.0
  0
LINE
  8
0
 10
41.38996887207031
 20
-23.197500228881836
 30
0.0
 11
41.298675537109375
 21
-23.056921005249023
 31
0.0
  0
LINE
  8
0
 10
59.69295883178711
 20
61.07369613647461
 30
0.0
 11
59.79846954345703
 21
60.94339370727539
 31
0.0
  0
LINE
  8
0
 10
125.61021423339844
 20
58.80278015136719
 30
0.0
 11
125.61003112792969
 21
58.80249786376953
 31
0.0
  0
LINE
  8
0
 10
38.8072509765625
 20
-25.073955535888672
 30
0.0
 11
38.80748748779297
 21
-25.07419204711914
 31
0.0
  0
LINE
  8
0
 10
60.06992721557617
 20
60.33369827270508
 30
0.0
 11
60.06998062133789
 21
60.33336639404297
 31
0.0
  0
LINE
  8
0
 10
-120.79846954345703
 20
-16.55660629272461
 30
0.0
 11
-120.88978576660156
 21
-16.697219848632812
 31
0.0
  0
LINE
  8
0
 10
60.06992721557617
 20
60.33369827270508
 30
0.0
 11
60.02653121948242
 21
60.49564743041992
 31
0.0
  0
LINE
  8
0
 10
121.02644348144531
 20
-17.0040283203125
 30
0.0
 11
120.96636199951172
 21
-16.84749984741211
 31
0.0
  0
LINE
  8
0
 10
39.83223342895508
 20
-22.403793334960938
 30
0.0
 11
39.83190155029297
 21
-22.403846740722656
 31
0.0
  0
LINE
  8
0
 10
39.83223342895508
 20
-22.403793334960938
 30
0.0
 11
39.66630172729492
 21
-22.430072784423828
 31
0.0
  0
LINE
  8
0
 10
-59.88978576660156
 20
60.80278015136719
 30
0.0
 11
-59.88996887207031
 21
60.80249786376953
 31
0.0
  0
LINE
  8
0
 10
-41.38996887207031
 20
-24.802499771118164
 30
0.0
 11
-41.39012145996094
 21
-24.802200317382812
 31
0.0
  0
LINE
  8
0
 10
-41.1927490234375
 20
-25.073955535888672
 30
0.0
 11
-41.19251251220703
 21
-25.07419204711914
 31
0.0
  0
LINE
  8
0
 10
-39.19750213623047
 20
-25.389968872070312
 30
0.0
 11
-39.19721984863281
 21
-25.389785766601562
 31
0.0
  0
LINE
  8
0
 10
-59.79846954345703
 20
59.05660629272461
 30
0.0
 11
-59.69296646118164
 21
58.92631530761719
 31
0.0
  0
LINE
  8
0
 10
121.02644348144531
 20
-17.0040283203125
 30
0.0
 11
121.02652740478516
 21
-17.004352569580078
 31
0.0
  0
LINE
  8
0
 10
127.33401489257812
 20
56.43016052246094
 30
0.0
 11
127.33369445800781
 21
56.43007278442383
 31
0.0
  0
LINE
  8
0
 10
127.33401489257812
 20
56.43016052246094
 30
0.0
 11
127.4959716796875
 21
56.47355651855469
 31
0.0
  0
LINE
  8
0
 10
128.22967529296875
 20
56.97163772583008
 30
0.0
 11
128.1927490234375
 21
56.92604446411133
 31
0.0
  0
LINE
  8
0
 10
-127.16743469238281
 20
56.40377426147461
 30
0.0
 11
-127.16777038574219
 21
56.40379333496094
 31
0.0
  0
LINE
  8
0
 10
-121.0699234008789
 20
-17.833698272705078
 30
0.0
 11
-121.02652740478516
 21
-17.995647430419922
 31
0.0
  0
LINE
  8
0
 10
-121.0699234008789
 20
-17.833698272705078
 30
0.0
 11
-121.02644348144531
 21
-17.9959716796875
 31
0.0
  0
LINE
  8
0
 10
-119.66815185546875
 20
-15.903852462768555
 30
0.0
 11
-119.83369445800781
 21
-15.930073738098145
 31
0.0
  0
LINE
  8
0
 10
-121.09615325927734
 20
-17.33190155029297
 30
0.0
 11
-121.09620666503906
 21
-17.332233428955078
 31
0.0
  0
LINE
  8
0
 10
119.33183288574219
 20
-15.903855323791504
 30
0.0
 11
119.16630554199219
 21
-15.930073738098145
 31
0.0
  0
LINE
  8
0
 10
-121.0699234008789
 20
-17.833698272705078
 30
0.0
 11
-121.06997680664062
 21
-17.83336639404297
 31
0.0
  0
LINE
  8
0
 10
-120.6927490234375
 20
-16.426044464111328
 30
0.0
 11
-120.79825592041016
 21
-16.556344985961914
 31
0.0
  0
LINE
  8
0
 10
-128.1925048828125
 20
59.07419204711914
 30
0.0
 11
-128.1927490234375
 21
59.07395553588867
 31
0.0
  0
LINE
  8
0
 10
-59.57368469238281
 20
58.807029724121094
 30
0.0
 11
-59.44339370727539
 21
58.70153045654297
 31
0.0
  0
LINE
  8
0
 10
-127.16743469238281
 20
56.40377426147461
 30
0.0
 11
-127.0
 21
56.39500045776367
 31
0.0
  0
LINE
  8
0
 10
-126.83222961425781
 20
56.40379333496094
 30
0.0
 11
-126.66630554199219
 21
56.43007278442383
 31
0.0
  0
LINE
  8
0
 10
-126.83222961425781
 20
56.40379333496094
 30
0.0
 11
-126.99966430664062
 21
56.39501953125
 31
0.0
  0
LINE
  8
0
 10
-40.4959716796875
 20
-22.473554611206055
 30
0.0
 11
-40.496299743652344
 21
-22.47368049621582
 31
0.0
  0
LINE
  8
0
 10
117.9300765991211
 20
-17.166301727294922
 30
0.0
 11
117.90379333496094
 21
-17.332233428955078
 31
0.0
  0
LINE
  8
0
 10
119.50033569335938
 20
-19.104982376098633
 30
0.0
 11
119.66777038574219
 21
-19.096206665039062
 31
0.0
  0
LINE
  8
0
 10
58.0040283203125
 20
61.52644348144531
 30
0.0
 11
58.00371551513672
 21
61.52632141113281
 31
0.0
  0
LINE
  8
0
 10
58.656211853027344
 20
61.5968132019043
 30
0.0
 11
58.5
 21
61.60499954223633
 31
0.0
  0
LINE
  8
0
 10
-41.38996887207031
 20
-24.802499771118164
 30
0.0
 11
-41.29865264892578
 21
-24.943113327026367
 31
0.0
  0
LINE
  8
0
 10
-41.38996887207031
 20
-24.802499771118164
 30
0.0
 11
-41.3254280090332
 21
-24.90188217163086
 31
0.0
  0
LINE
  8
0
 10
39.5040283203125
 20
-22.473554611206055
 30
0.0
 11
39.50371551513672
 21
-22.473674774169922
 31
0.0
  0
LINE
  8
0
 10
38.43016052246094
 20
-23.665977478027344
 30
0.0
 11
38.43007278442383
 21
-23.666301727294922
 31
0.0
  0
LINE
  8
0
 10
38.70174026489258
 20
-23.056344985961914
 30
0.0
 11
38.70153045654297
 21
-23.05660629272461
 31
0.0
  0
LINE
  8
0
 10
39.5040283203125
 20
-22.473554611206055
 30
0.0
 11
39.66630172729492
 21
-22.430072784423828
 31
0.0
  0
LINE
  8
0
 10
56.97355651855469
 20
59.5040283203125
 30
0.0
 11
57.03363800048828
 21
59.34749984741211
 31
0.0
  0
LINE
  8
0
 10
56.97355651855469
 20
59.5040283203125
 30
0.0
 11
56.98563766479492
 21
59.472557067871094
 31
0.0
  0
LINE
  8
0
 10
-92.84001159667969
 20
-75.27400207519531
 30
0.0
 11
-94.36600494384766
 21
-61.875999450683594
 31
0.0
  0
LINE
  8
0
 10
56.97355651855469
 20
59.5040283203125
 30
0.0
 11
56.97346878051758
 21
59.50435256958008
 31
0.0
  0
LINE
  8
0
 10
57.84718704223633
 20
61.46623992919922
 30
0.0
 11
57.84688949584961
 21
61.466087341308594
 31
0.0
  0
LINE
  8
0
 10
39.50435256958008
 20
-25.526533126831055
 30
0.0
 11
39.5040283203125
 21
-25.526445388793945
 31
0.0
  0
LINE
  8
0
 10
39.5040283203125
 20
-22.473554611206055
 30
0.0
 11
39.665977478027344
 21
-22.430160522460938
 31
0.0
  0
LINE
  8
0
 10
56.90379333496094
 20
60.16776657104492
 30
0.0
 11
56.89501953125
 21
60.000335693359375
 31
0.0
  0
LINE
  8
0
 10
56.90379333496094
 20
60.16776657104492
 30
0.0
 11
56.89500045776367
 21
60.0
 31
0.0
  0
LINE
  8
0
 10
57.84718704223633
 20
61.46623992919922
 30
0.0
 11
58.0040283203125
 21
61.52644348144531
 31
0.0
  0
LINE
  8
0
 10
57.42634582519531
 20
58.8070068359375
 30
0.0
 11
57.42604446411133
 21
58.8072509765625
 31
0.0
  0
LINE
  8
0
 10
57.42634582519531
 20
58.8070068359375
 30
0.0
 11
57.55660629272461
 21
58.70153045654297
 31
0.0
  0
LINE
  8
0
 10
57.84718704223633
 20
61.46623992919922
 30
0.0
 11
58.00371551513672
 21
61.52632141113281
 31
0.0
  0
LINE
  8
0
 10
56.90379333496094
 20
60.16776657104492
 30
0.0
 11
56.903846740722656
 21
60.16809844970703
 31
0.0
  0
LINE
  8
0
 10
-118.0339126586914
 20
-18.153112411499023
 30
0.0
 11
-118.11003112792969
 21
-18.302499771118164
 31
0.0
  0
LINE
  8
0
 10
-121.09622192382812
 20
-17.667430877685547
 30
0.0
 11
-121.09620666503906
 21
-17.667766571044922
 31
0.0
  0
LINE
  8
0
 10
-118.4260482788086
 20
-18.692747116088867
 30
0.0
 11
-118.55634307861328
 21
-18.798259735107422
 31
0.0
  0
LINE
  8
0
 10
-118.4260482788086
 20
-18.692747116088867
 30
0.0
 11
-118.55660247802734
 21
-18.798471450805664
 31
0.0
  0
LINE
  8
0
 10
-120.5739517211914
 20
-18.692747116088867
 30
0.0
 11
-120.69251251220703
 21
-18.57419204711914
 31
0.0
  0
LINE
  8
0
 10
-59.44339370727539
 20
58.70153045654297
 30
0.0
 11
-59.44309997558594
 21
58.70133972167969
 31
0.0
  0
LINE
  8
0
 10
128.60198974609375
 20
58.05730438232422
 30
0.0
 11
128.60499572753906
 21
58.0
 31
0.0
  0
LINE
  8
0
 10
-40.49564743041992
 20
-25.526533126831055
 30
0.0
 11
-40.4959716796875
 21
-25.526445388793945
 31
0.0
  0
LINE
  8
0
 10
-56.93007278442383
 20
60.33369827270508
 30
0.0
 11
-56.93001937866211
 21
60.33336639404297
 31
0.0
  0
LINE
  8
0
 10
-41.29846954345703
 20
-23.05660629272461
 30
0.0
 11
-41.1927490234375
 21
-22.926044464111328
 31
0.0
  0
LINE
  8
0
 10
-41.29846954345703
 20
-23.05660629272461
 30
0.0
 11
-41.29823303222656
 21
-23.05631446838379
 31
0.0
  0
LINE
  8
0
 10
118.11003112792969
 20
-16.697500228881836
 30
0.0
 11
118.03376007080078
 21
-16.847187042236328
 31
0.0
  0
LINE
  8
0
 10
-56.90379333496094
 20
59.83223342895508
 30
0.0
 11
-56.903846740722656
 21
59.83190155029297
 31
0.0
  0
LINE
  8
0
 10
-125.80703735351562
 20
59.07369613647461
 30
0.0
 11
-125.70153045654297
 21
58.94339370727539
 31
0.0
  0
LINE
  8
0
 10
-38.61003112792969
 20
-23.197500228881836
 30
0.0
 11
-38.60987854003906
 21
-23.197799682617188
 31
0.0
  0
LINE
  8
0
 10
119.83369445800781
 20
-15.930073738098145
 30
0.0
 11
119.66777038574219
 21
-15.903792381286621
 31
0.0
  0
LINE
  8
0
 10
121.0699234008789
 20
-17.833698272705078
 30
0.0
 11
121.06983947753906
 21
-17.834022521972656
 31
0.0
  0
LINE
  8
0
 10
119.83369445800781
 20
-15.930073738098145
 30
0.0
 11
119.83332824707031
 21
-15.930015563964844
 31
0.0
  0
LINE
  8
0
 10
57.20133590698242
 20
59.05690383911133
 30
0.0
 11
57.20153045654297
 21
59.05660629272461
 31
0.0
  0
LINE
  8
0
 10
118.20153045654297
 20
-18.44339370727539
 30
0.0
 11
118.30703735351562
 21
-18.573694229125977
 31
0.0
  0
LINE
  8
0
 10
157.6680145263672
 20
-8.487998962402344
 30
0.0
 11
175.22801208496094
 21
-1.6279983520507812
 31
0.0
  0
LINE
  8
0
 10
121.09620666503906
 20
-17.332233428955078
 30
0.0
 11
121.10499572753906
 21
-17.5
 31
0.0
  0
LINE
  8
0
 10
41.59620666503906
 20
-23.832233428955078
 30
0.0
 11
41.59622573852539
 21
-23.83257293701172
 31
0.0
  0
LINE
  8
0
 10
157.6680145263672
 20
-8.487998962402344
 30
0.0
 11
141.0439910888672
 21
-14.993999481201172
 31
0.0
  0
LINE
  8
0
 10
38.43007278442383
 20
-24.333698272705078
 30
0.0
 11
38.47346878051758
 21
-24.495647430419922
 31
0.0
  0
LINE
  8
0
 10
39.83190155029297
 20
-22.403846740722656
 30
0.0
 11
39.66630172729492
 21
-22.430072784423828
 31
0.0
  0
LINE
  8
0
 10
41.59620666503906
 20
-24.167766571044922
 30
0.0
 11
41.596153259277344
 21
-24.16809844970703
 31
0.0
  0
LINE
  8
0
 10
41.59620666503906
 20
-24.167766571044922
 30
0.0
 11
41.56992721557617
 21
-24.333698272705078
 31
0.0
  0
LINE
  8
0
 10
38.43007278442383
 20
-24.333698272705078
 30
0.0
 11
38.43001937866211
 21
-24.33336639404297
 31
0.0
  0
LINE
  8
0
 10
57.30748748779297
 20
61.07419204711914
 30
0.0
 11
57.3072509765625
 21
61.07395553588867
 31
0.0
  0
LINE
  8
0
 10
-40.496299743652344
 20
-22.47368049621582
 30
0.0
 11
-40.65281295776367
 21
-22.53376007080078
 31
0.0
  0
LINE
  8
0
 10
-41.29846954345703
 20
-23.05660629272461
 30
0.0
 11
-41.389766693115234
 21
-23.197187423706055
 31
0.0
  0
LINE
  8
0
 10
127.0
 20
56.39500045776367
 30
0.0
 11
127.00033569335938
 21
56.39501953125
 31
0.0
  0
LINE
  8
0
 10
127.0
 20
56.39500045776367
 30
0.0
 11
127.16777038574219
 21
56.40379333496094
 31
0.0
  0
LINE
  8
0
 10
126.19750213623047
 20
56.61003112792969
 30
0.0
 11
126.05691528320312
 21
56.70132827758789
 31
0.0
  0
LINE
  8
0
 10
-59.88996887207031
 20
60.80249786376953
 30
0.0
 11
-59.96623992919922
 21
60.65281295776367
 31
0.0
  0
LINE
  8
0
 10
-59.88996887207031
 20
60.80249786376953
 30
0.0
 11
-59.966087341308594
 21
60.65311050415039
 31
0.0
  0
LINE
  8
0
 10
126.83190155029297
 20
59.596153259277344
 30
0.0
 11
126.66630554199219
 21
59.56992721557617
 31
0.0
  0
LINE
  8
0
 10
-125.39500427246094
 20
58.0
 30
0.0
 11
-125.39501953125
 21
57.999656677246094
 31
0.0
  0
LINE
  8
0
 10
120.96623992919922
 20
-16.847187042236328
 30
0.0
 11
120.96636199951172
 21
-16.84749984741211
 31
0.0
  0
LINE
  8
0
 10
-128.2986602783203
 20
57.056888580322266
 30
0.0
 11
-128.29847717285156
 21
57.05660629272461
 31
0.0
  0
LINE
  8
0
 10
-58.5
 20
61.60499954223633
 30
0.0
 11
-58.500335693359375
 21
61.60498046875
 31
0.0
  0
LINE
  8
0
 10
-58.5
 20
61.60499954223633
 30
0.0
 11
-58.33256912231445
 21
61.59622573852539
 31
0.0
  0
LINE
  8
0
 10
-119.07546997070312
 20
-15.954412460327148
 30
0.0
 11
-119.16630554199219
 21
-15.930073738098145
 31
0.0
  0
LINE
  8
0
 10
57.42604446411133
 20
58.8072509765625
 30
0.0
 11
57.55660629272461
 21
58.70153045654297
 31
0.0
  0
LINE
  8
0
 10
-117.90486145019531
 20
-17.674495697021484
 30
0.0
 11
-117.9300765991211
 21
-17.833698272705078
 31
0.0
  0
LINE
  8
0
 10
-120.79846954345703
 20
-18.44339370727539
 30
0.0
 11
-120.69296264648438
 21
-18.573694229125977
 31
0.0
  0
LINE
  8
0
 10
-128.1927490234375
 20
59.07395553588867
 30
0.0
 11
-128.29847717285156
 21
58.94339370727539
 31
0.0
  0
LINE
  8
0
 10
-128.1927490234375
 20
59.07395553588867
 30
0.0
 11
-128.2982635498047
 21
58.94365310668945
 31
0.0
  0
LINE
  8
0
 10
-40.16776657104492
 20
-22.403793334960938
 30
0.0
 11
-40.000335693359375
 21
-22.395017623901367
 31
0.0
  0
LINE
  8
0
 10
-58.49960708618164
 20
58.39501953125
 30
0.0
 11
-58.5
 21
58.39500045776367
 31
0.0
  0
LINE
  8
0
 10
-58.16630172729492
 20
58.43007278442383
 30
0.0
 11
-58.165897369384766
 21
58.430179595947266
 31
0.0
  0
LINE
  8
0
 10
-57.69750213623047
 20
61.38996887207031
 30
0.0
 11
-57.69779968261719
 21
61.39012145996094
 31
0.0
  0
LINE
  8
0
 10
-56.93007278442383
 20
60.33369827270508
 30
0.0
 11
-56.97346878051758
 21
60.49564743041992
 31
0.0
  0
LINE
  8
0
 10
118.11003112792969
 20
-16.697500228881836
 30
0.0
 11
118.03392028808594
 21
-16.84687614440918
 31
0.0
  0
LINE
  8
0
 10
117.97355651855469
 20
-17.9959716796875
 30
0.0
 11
118.03363800048828
 21
-18.15250015258789
 31
0.0
  0
LINE
  8
0
 10
118.55630493164062
 20
-16.201766967773438
 30
0.0
 11
118.4260482788086
 21
-16.307252883911133
 31
0.0
  0
LINE
  8
0
 10
120.79846954345703
 20
-18.44339370727539
 30
0.0
 11
120.80937957763672
 21
-18.42659568786621
 31
0.0
  0
LINE
  8
0
 10
58.5
 20
61.60499954223633
 30
0.0
 11
58.499664306640625
 21
61.60498046875
 31
0.0
  0
LINE
  8
0
 10
130.92201232910156
 20
62.54400634765625
 30
0.0
 11
136.24000549316406
 21
62.0360107421875
 31
0.0
  0
LINE
  8
0
 10
119.16630554199219
 20
-15.930073738098145
 30
0.0
 11
119.16590881347656
 21
-15.930180549621582
 31
0.0
  0
LINE
  8
0
 10
41.52644348144531
 20
-23.5040283203125
 30
0.0
 11
41.52653503417969
 21
-23.504375457763672
 31
0.0
  0
LINE
  8
0
 10
41.52644348144531
 20
-23.5040283203125
 30
0.0
 11
41.46623992919922
 21
-23.347187042236328
 31
0.0
  0
LINE
  8
0
 10
41.52644348144531
 20
-23.5040283203125
 30
0.0
 11
41.46636962890625
 21
-23.347530364990234
 31
0.0
  0
LINE
  8
0
 10
-126.66630554199219
 20
56.43007278442383
 30
0.0
 11
-126.66598510742188
 21
56.43016052246094
 31
0.0
  0
LINE
  8
0
 10
-125.83601379394531
 20
64.20201110839844
 30
0.0
 11
-128.47401428222656
 21
63.260009765625
 31
0.0
  0
LINE
  8
0
 10
-125.83601379394531
 20
64.20201110839844
 30
0.0
 11
-123.37400817871094
 21
65.31401062011719
 31
0.0
  0
LINE
  8
0
 10
-38.712005615234375
 20
-30.057998657226562
 30
0.0
 11
-39.324005126953125
 21
-31.86199951171875
 31
0.0
  0
LINE
  8
0
 10
40.94339370727539
 20
-22.701528549194336
 30
0.0
 11
40.94308853149414
 21
-22.701330184936523
 31
0.0
  0
LINE
  8
0
 10
38.39500045776367
 20
-24.0
 30
0.0
 11
38.40377426147461
 21
-24.167430877685547
 31
0.0
  0
LINE
  8
0
 10
119.66777038574219
 20
-19.096206665039062
 30
0.0
 11
119.66809844970703
 21
-19.096153259277344
 31
0.0
  0
LINE
  8
0
 10
127.33369445800781
 20
56.43007278442383
 30
0.0
 11
127.16777038574219
 21
56.40379333496094
 31
0.0
  0
LINE
  8
0
 10
60.09622573852539
 20
60.16743087768555
 30
0.0
 11
60.10499954223633
 21
60.0
 31
0.0
  0
LINE
  8
0
 10
57.11003112792969
 20
59.19750213623047
 30
0.0
 11
57.20133590698242
 21
59.05690383911133
 31
0.0
  0
LINE
  8
0
 10
-38.40379333496094
 20
-23.832233428955078
 30
0.0
 11
-38.40377426147461
 21
-23.832569122314453
 31
0.0
  0
LINE
  8
0
 10
-38.39501953125
 20
-24.000335693359375
 30
0.0
 11
-38.40379333496094
 21
-24.167766571044922
 31
0.0
  0
LINE
  8
0
 10
-41.52653121948242
 20
-24.495647430419922
 30
0.0
 11
-41.52644348144531
 21
-24.4959716796875
 31
0.0
  0
LINE
  8
0
 10
-40.16776657104492
 20
-22.403793334960938
 30
0.0
 11
-40.16809844970703
 21
-22.403846740722656
 31
0.0
  0
LINE
  8
0
 10
-118.03376007080078
 20
-16.847187042236328
 30
0.0
 11
-118.03363800048828
 21
-16.847511291503906
 31
0.0
  0
LINE
  8
0
 10
128.07420349121094
 20
59.19251251220703
 30
0.0
 11
128.1927490234375
 21
59.07395553588867
 31
0.0
  0
LINE
  8
0
 10
126.19750213623047
 20
59.38996887207031
 30
0.0
 11
126.34689331054688
 21
59.466087341308594
 31
0.0
  0
LINE
  8
0
 10
38.92604446411133
 20
-25.192747116088867
 30
0.0
 11
38.80748748779297
 21
-25.07419204711914
 31
0.0
  0
LINE
  8
0
 10
-125.40384674072266
 20
57.831878662109375
 30
0.0
 11
-125.4300765991211
 21
57.66630172729492
 31
0.0
  0
LINE
  8
0
 10
87.03001403808594
 20
77.52200317382812
 30
0.0
 11
66.55599975585938
 21
68.25801086425781
 31
0.0
  0
LINE
  8
0
 10
-127.80249786376953
 20
56.61003112792969
 30
0.0
 11
-127.90232849121094
 21
56.674861907958984
 31
0.0
  0
LINE
  8
0
 10
-128.46609497070312
 20
58.65311050415039
 30
0.0
 11
-128.46624755859375
 21
58.65281295776367
 31
0.0
  0
LINE
  8
0
 10
87.03001403808594
 20
77.52200317382812
 30
0.0
 11
108.40000915527344
 21
71.19400024414062
 31
0.0
  0
LINE
  8
0
 10
130.92201232910156
 20
62.54400634765625
 30
0.0
 11
128.4700164794922
 21
63.260009765625
 31
0.0
  0
LINE
  8
0
 10
-118.20174407958984
 20
-18.443655014038086
 30
0.0
 11
-118.3072509765625
 21
-18.573955535888672
 31
0.0
  0
LINE
  8
0
 10
120.96623992919922
 20
-16.847187042236328
 30
0.0
 11
120.89012145996094
 21
-16.697799682617188
 31
0.0
  0
LINE
  8
0
 10
-117.97355651855469
 20
-17.9959716796875
 30
0.0
 11
-117.97367858886719
 21
-17.99628448486328
 31
0.0
  0
LINE
  8
0
 10
-120.88978576660156
 20
-16.697219848632812
 30
0.0
 11
-120.88996887207031
 21
-16.697500228881836
 31
0.0
  0
LINE
  8
0
 10
126.5040283203125
 20
59.52644348144531
 30
0.0
 11
126.50371551513672
 21
59.52632141113281
 31
0.0
  0
LINE
  8
0
 10
-39.83223342895508
 20
-22.403793334960938
 30
0.0
 11
-39.66663360595703
 21
-22.43001937866211
 31
0.0
  0
LINE
  8
0
 10
-40.65281295776367
 20
-25.46623992919922
 30
0.0
 11
-40.65250015258789
 21
-25.466360092163086
 31
0.0
  0
LINE
  8
0
 10
-41.29865264892578
 20
-24.943113327026367
 30
0.0
 11
-41.3254280090332
 21
-24.90188217163086
 31
0.0
  0
LINE
  8
0
 10
-58.9959716796875
 20
61.52644348144531
 30
0.0
 11
-58.99628448486328
 21
61.52632141113281
 31
0.0
  0
LINE
  8
0
 10
-58.9959716796875
 20
61.52644348144531
 30
0.0
 11
-59.15281295776367
 21
61.46623992919922
 31
0.0
  0
LINE
  8
0
 10
-58.9959716796875
 20
61.52644348144531
 30
0.0
 11
-58.834022521972656
 21
61.56983947753906
 31
0.0
  0
LINE
  8
0
 10
-58.66776657104492
 20
58.40379333496094
 30
0.0
 11
-58.667381286621094
 21
58.40377426147461
 31
0.0
  0
LINE
  8
0
 10
-127.33336639404297
 20
56.43001937866211
 30
0.0
 11
-127.33369445800781
 21
56.43007278442383
 31
0.0
  0
LINE
  8
0
 10
121.09620666503906
 20
-17.332233428955078
 30
0.0
 11
121.09622192382812
 21
-17.332569122314453
 31
0.0
  0
LINE
  8
0
 10
-121.09620666503906
 20
-17.332233428955078
 30
0.0
 11
-121.10498046875
 21
-17.499664306640625
 31
0.0
  0
LINE
  8
0
 10
120.5739517211914
 20
-16.307252883911133
 30
0.0
 11
120.57369232177734
 21
-16.30704116821289
 31
0.0
  0
LINE
  8
0
 10
38.39500045776367
 20
-24.0
 30
0.0
 11
38.39501953125
 21
-23.999664306640625
 31
0.0
  0
LINE
  8
0
 10
40.093994140625
 20
-22.25
 30
0.0
 11
40.45433807373047
 21
-22.462398529052734
 31
0.0
  0
LINE
  8
0
 10
40.093994140625
 20
-22.25
 30
0.0
 11
40.33369827270508
 21
-22.430072784423828
 31
0.0
  0
LINE
  8
0
 10
0.0099945068359375
 20
-22.374000549316406
 30
0.0
 11
-0.0019989013671875
 21
-22.374000549316406
 31
0.0
  0
LINE
  8
0
 10
38.70134735107422
 20
-24.943113327026367
 30
0.0
 11
38.70153045654297
 21
-24.94339370727539
 31
0.0
  0
LINE
  8
0
 10
-0.0019989013671875
 20
67.68400573730469
 30
0.0
 11
-36.82600402832031
 21
67.47801208496094
 31
0.0
  0
LINE
  8
0
 10
40.093994140625
 20
-22.25
 30
0.0
 11
40.16776657104492
 21
-22.403793334960938
 31
0.0
  0
LINE
  8
0
 10
40.093994140625
 20
-22.25
 30
0.0
 11
40.0
 21
-22.395000457763672
 31
0.0
  0
LINE
  8
0
 10
-65.01400756835938
 20
-72.68800354003906
 30
0.0
 11
-46.16400146484375
 21
-66.43199920654297
 31
0.0
  0
LINE
  8
0
 10
59.79846954345703
 20
60.94339370727539
 30
0.0
 11
59.88996887207031
 21
60.80249786376953
 31
0.0
  0
LINE
  8
0
 10
40.093994140625
 20
-22.25
 30
0.0
 11
39.999664306640625
 21
-22.395017623901367
 31
0.0
  0
LINE
  8
0
 10
40.093994140625
 20
-22.25
 30
0.0
 11
39.936031341552734
 21
-22.398353576660156
 31
0.0
  0
LINE
  8
0
 10
60.06998062133789
 20
60.33336639404297
 30
0.0
 11
60.09620666503906
 21
60.16776657104492
 31
0.0
  0
LINE
  8
0
 10
59.79846954345703
 20
60.94339370727539
 30
0.0
 11
59.79865264892578
 21
60.943111419677734
 31
0.0
  0
LINE
  8
0
 10
126.5040283203125
 20
59.52644348144531
 30
0.0
 11
126.66630554199219
 21
59.56992721557617
 31
0.0
  0
LINE
  8
0
 10
-39.83223342895508
 20
-22.403793334960938
 30
0.0
 11
-39.83256912231445
 21
-22.403776168823242
 31
0.0
  0
LINE
  8
0
 10
-39.05660629272461
 20
-22.701528549194336
 30
0.0
 11
-39.056888580322266
 21
-22.701345443725586
 31
0.0
  0
LINE
  8
0
 10
128.1927490234375
 20
56.92604446411133
 30
0.0
 11
128.1925048828125
 21
56.92580795288086
 31
0.0
  0
LINE
  8
0
 10
128.1927490234375
 20
56.92604446411133
 30
0.0
 11
128.07395935058594
 21
56.8072509765625
 31
0.0
  0
LINE
  8
0
 10
125.61003112792969
 20
58.80249786376953
 30
0.0
 11
125.53376007080078
 21
58.65281295776367
 31
0.0
  0
LINE
  8
0
 10
125.61003112792969
 20
58.80249786376953
 30
0.0
 11
125.5339126586914
 21
58.65311050415039
 31
0.0
  0
LINE
  8
0
 10
128.56983947753906
 20
57.665977478027344
 30
0.0
 11
128.5264434814453
 21
57.5040283203125
 31
0.0
  0
LINE
  8
0
 10
126.5040283203125
 20
59.52644348144531
 30
0.0
 11
126.66598510742188
 21
59.56983947753906
 31
0.0
  0
LINE
  8
0
 10
59.79846954345703
 20
59.05660629272461
 30
0.0
 11
59.79825210571289
 21
59.05633544921875
 31
0.0
  0
LINE
  8
0
 10
120.44365692138672
 20
-18.798259735107422
 30
0.0
 11
120.44339752197266
 21
-18.798471450805664
 31
0.0
  0
LINE
  8
0
 10
-128.1927490234375
 20
56.92604446411133
 30
0.0
 11
-128.07420349121094
 21
56.80748748779297
 31
0.0
  0
LINE
  8
0
 10
40.093994140625
 20
-22.25
 30
0.0
 11
40.24465560913086
 21
-22.415969848632812
 31
0.0
  0
LINE
  8
0
 10
126.5040283203125
 20
59.52644348144531
 30
0.0
 11
126.3471908569336
 21
59.46623992919922
 31
0.0
  0
LINE
  8
0
 10
-125.92577362060547
 20
56.80752182006836
 30
0.0
 11
-125.9260482788086
 21
56.8072509765625
 31
0.0
  0
LINE
  8
0
 10
-125.92577362060547
 20
56.80752182006836
 30
0.0
 11
-125.8072509765625
 21
56.92604446411133
 31
0.0
  0
LINE
  8
0
 10
-128.1927490234375
 20
56.92604446411133
 30
0.0
 11
-128.19296264648438
 21
56.92630386352539
 31
0.0
  0
LINE
  8
0
 10
-121.02652740478516
 20
-17.995647430419922
 30
0.0
 11
-121.02644348144531
 21
-17.9959716796875
 31
0.0
  0
LINE
  8
0
 10
-118.03376007080078
 20
-16.847187042236328
 30
0.0
 11
-118.11003112792969
 21
-16.697500228881836
 31
0.0
  0
LINE
  8
0
 10
-118.03376007080078
 20
-16.847187042236328
 30
0.0
 11
-118.10987091064453
 21
-16.697813034057617
 31
0.0
  0
LINE
  8
0
 10
-119.83369445800781
 20
-15.930073738098145
 30
0.0
 11
-119.83405303955078
 21
-15.930169105529785
 31
0.0
  0
LINE
  8
0
 10
-118.3072509765625
 20
-16.426044464111328
 30
0.0
 11
-118.30751037597656
 21
-16.42578887939453
 31
0.0
  0
LINE
  8
0
 10
-118.3072509765625
 20
-16.426044464111328
 30
0.0
 11
-118.30702209472656
 21
-16.426326751708984
 31
0.0
  0
LINE
  8
0
 10
127.33369445800781
 20
56.43007278442383
 30
0.0
 11
127.4959716796875
 21
56.47355651855469
 31
0.0
  0
LINE
  8
0
 10
126.19750213623047
 20
59.38996887207031
 30
0.0
 11
126.19721984863281
 21
59.38978576660156
 31
0.0
  0
LINE
  8
0
 10
-38.61003112792969
 20
-23.197500228881836
 30
0.0
 11
-38.70134735107422
 21
-23.056886672973633
 31
0.0
  0
LINE
  8
0
 10
-39.5040283203125
 20
-22.473554611206055
 30
0.0
 11
-39.34749984741211
 21
-22.533639907836914
 31
0.0
  0
LINE
  8
0
 10
-127.80249786376953
 20
56.61003112792969
 30
0.0
 11
-127.80220031738281
 21
56.60987854003906
 31
0.0
  0
LINE
  8
0
 10
-59.69251251220703
 20
61.07419204711914
 30
0.0
 11
-59.6927490234375
 21
61.07395553588867
 31
0.0
  0
LINE
  8
0
 10
118.4260482788086
 20
-18.692747116088867
 30
0.0
 11
118.30748748779297
 21
-18.57419204711914
 31
0.0
  0
LINE
  8
0
 10
117.8958511352539
 20
-17.516130447387695
 30
0.0
 11
117.90377807617188
 21
-17.667430877685547
 31
0.0
  0
LINE
  8
0
 10
120.5739517211914
 20
-16.307252883911133
 30
0.0
 11
120.69251251220703
 21
-16.42580795288086
 31
0.0
  0
LINE
  8
0
 10
111.19200134277344
 20
-31.61199951171875
 30
0.0
 11
118.70201110839844
 21
-24.79800033569336
 31
0.0
  0
LINE
  8
0
 10
40.000335693359375
 20
-25.604982376098633
 30
0.0
 11
40.16776657104492
 21
-25.596206665039062
 31
0.0
  0
LINE
  8
0
 10
46.160003662109375
 20
-66.43199920654297
 30
0.0
 11
65.00999450683594
 21
-72.68800354003906
 31
0.0
  0
LINE
  8
0
 10
39.50371551513672
 20
-22.473674774169922
 30
0.0
 11
39.34718704223633
 21
-22.53376007080078
 31
0.0
  0
LINE
  8
0
 10
38.70153045654297
 20
-23.05660629272461
 30
0.0
 11
38.61021423339844
 21
-23.197219848632812
 31
0.0
  0
LINE
  8
0
 10
38.70153045654297
 20
-23.05660629272461
 30
0.0
 11
38.61003112792969
 21
-23.197500228881836
 31
0.0
  0
LINE
  8
0
 10
57.03363800048828
 20
59.34749984741211
 30
0.0
 11
56.98563766479492
 21
59.472557067871094
 31
0.0
  0
LINE
  8
0
 10
57.03363800048828
 20
59.34749984741211
 30
0.0
 11
57.03376007080078
 21
59.34718704223633
 31
0.0
  0
LINE
  8
0
 10
38.43007278442383
 20
-23.666301727294922
 30
0.0
 11
38.40379333496094
 21
-23.832233428955078
 31
0.0
  0
LINE
  8
0
 10
57.84688949584961
 20
61.466087341308594
 30
0.0
 11
57.69750213623047
 21
61.38996887207031
 31
0.0
  0
LINE
  8
0
 10
38.43007278442383
 20
-23.666301727294922
 30
0.0
 11
38.403846740722656
 21
-23.83190155029297
 31
0.0
  0
LINE
  8
0
 10
56.89501953125
 20
60.000335693359375
 30
0.0
 11
56.89500045776367
 21
60.0
 31
0.0
  0
LINE
  8
0
 10
39.5040283203125
 20
-25.526445388793945
 30
0.0
 11
39.34749984741211
 21
-25.466360092163086
 31
0.0
  0
LINE
  8
0
 10
120.79846954345703
 20
-18.44339370727539
 30
0.0
 11
120.79825592041016
 21
-18.443655014038086
 31
0.0
  0
LINE
  8
0
 10
128.3899688720703
 20
57.19750213623047
 30
0.0
 11
128.38978576660156
 21
57.19721984863281
 31
0.0
  0
LINE
  8
0
 10
57.42604446411133
 20
58.8072509765625
 30
0.0
 11
57.4257698059082
 21
58.807525634765625
 31
0.0
  0
LINE
  8
0
 10
57.42604446411133
 20
58.8072509765625
 30
0.0
 11
57.3072509765625
 21
58.92604446411133
 31
0.0
  0
LINE
  8
0
 10
-39.5040283203125
 20
-22.473554611206055
 30
0.0
 11
-39.50435256958008
 21
-22.473466873168945
 31
0.0
  0
LINE
  8
0
 10
-41.29865264892578
 20
-24.943113327026367
 30
0.0
 11
-41.29846954345703
 21
-24.94339370727539
 31
0.0
  0
LINE
  8
0
 10
128.59616088867188
 20
57.83190155029297
 30
0.0
 11
128.56993103027344
 21
57.66630172729492
 31
0.0
  0
LINE
  8
0
 10
120.79846954345703
 20
-18.44339370727539
 30
0.0
 11
120.6927490234375
 21
-18.573955535888672
 31
0.0
  0
LINE
  8
0
 10
-127.65249633789062
 20
56.53363800048828
 30
0.0
 11
-127.6528091430664
 21
56.53376007080078
 31
0.0
  0
LINE
  8
0
 10
-127.65249633789062
 20
56.53363800048828
 30
0.0
 11
-127.4959716796875
 21
56.47355651855469
 31
0.0
  0
LINE
  8
0
 10
127.33369445800781
 20
56.43007278442383
 30
0.0
 11
127.16809844970703
 21
56.403846740722656
 31
0.0
  0
LINE
  8
0
 10
-127.16777038574219
 20
56.40379333496094
 30
0.0
 11
-127.33336639404297
 21
56.43001937866211
 31
0.0
  0
LINE
  8
0
 10
-128.5264434814453
 20
58.4959716796875
 30
0.0
 11
-128.56993103027344
 21
58.33369827270508
 31
0.0
  0
LINE
  8
0
 10
-120.44339752197266
 20
-18.798471450805664
 30
0.0
 11
-120.30249786376953
 21
-18.889968872070312
 31
0.0
  0
LINE
  8
0
 10
127.80249786376953
 20
59.38996887207031
 30
0.0
 11
127.80220031738281
 21
59.39012145996094
 31
0.0
  0
LINE
  8
0
 10
127.49628448486328
 20
56.47367858886719
 30
0.0
 11
127.6528091430664
 21
56.53376007080078
 31
0.0
  0
LINE
  8
0
 10
-118.11003112792969
 20
-18.302499771118164
 30
0.0
 11
-118.20153045654297
 21
-18.44339370727539
 31
0.0
  0
LINE
  8
0
 10
-119.33222961425781
 20
-15.903792381286621
 30
0.0
 11
-119.33263397216797
 21
-15.90377140045166
 31
0.0
  0
LINE
  8
0
 10
-119.33222961425781
 20
-15.903792381286621
 30
0.0
 11
-119.5
 21
-15.895000457763672
 31
0.0
  0
LINE
  8
0
 10
-119.33222961425781
 20
-15.903792381286621
 30
0.0
 11
-119.16670989990234
 21
-15.930008888244629
 31
0.0
  0
LINE
  8
0
 10
-118.11003112792969
 20
-18.302499771118164
 30
0.0
 11
-118.11021423339844
 21
-18.302780151367188
 31
0.0
  0
LINE
  8
0
 10
-121.09620666503906
 20
-17.667766571044922
 30
0.0
 11
-121.06997680664062
 21
-17.83336639404297
 31
0.0
  0
LINE
  8
0
 10
-120.96623992919922
 20
-18.152812957763672
 30
0.0
 11
-120.89012145996094
 21
-18.302200317382812
 31
0.0
  0
LINE
  8
0
 10
118.55660247802734
 20
-18.798471450805664
 30
0.0
 11
118.556884765625
 21
-18.798654556274414
 31
0.0
  0
LINE
  8
0
 10
120.79846954345703
 20
-16.55660629272461
 30
0.0
 11
120.79865264892578
 21
-16.556886672973633
 31
0.0
  0
LINE
  8
0
 10
120.79846954345703
 20
-16.55660629272461
 30
0.0
 11
120.69296264648438
 21
-16.426305770874023
 31
0.0
  0
LINE
  8
0
 10
-120.70201110839844
 20
-23.194000244140625
 30
0.0
 11
-118.70201110839844
 21
-24.79800033569336
 31
0.0
  0
LINE
  8
0
 10
-56.93001937866211
 20
60.33336639404297
 30
0.0
 11
-56.90379333496094
 21
60.16776657104492
 31
0.0
  0
LINE
  8
0
 10
-40.4959716796875
 20
-25.526445388793945
 30
0.0
 11
-40.65250015258789
 21
-25.466360092163086
 31
0.0
  0
LINE
  8
0
 10
57.3072509765625
 20
61.07395553588867
 30
0.0
 11
57.20174026489258
 21
60.94365310668945
 31
0.0
  0
LINE
  8
0
 10
118.4260482788086
 20
-16.307252883911133
 30
0.0
 11
118.42578887939453
 21
-16.307514190673828
 31
0.0
  0
LINE
  8
0
 10
-41.389766693115234
 20
-23.197187423706055
 30
0.0
 11
-41.38996887207031
 21
-23.197500228881836
 31
0.0
  0
LINE
  8
0
 10
102.96598815917969
 20
-39.71799850463867
 30
0.0
 11
98.46000671386719
 21
-47.25600051879883
 31
0.0
  0
LINE
  8
0
 10
102.96598815917969
 20
-39.71799850463867
 30
0.0
 11
111.19200134277344
 21
-31.61199951171875
 31
0.0
  0
LINE
  8
0
 10
38.47346878051758
 20
-24.495647430419922
 30
0.0
 11
38.47355651855469
 21
-24.4959716796875
 31
0.0
  0
LINE
  8
0
 10
-141.04800415039062
 20
-14.993999481201172
 30
0.0
 11
-130.52000427246094
 21
-18.15599822998047
 31
0.0
  0
LINE
  8
0
 10
-37.05400085449219
 20
-27.70600128173828
 30
0.0
 11
-38.712005615234375
 21
-30.057998657226562
 31
0.0
  0
LINE
  8
0
 10
40.16776657104492
 20
-25.596206665039062
 30
0.0
 11
40.16809844970703
 21
-25.596153259277344
 31
0.0
  0
LINE
  8
0
 10
56.89500045776367
 20
60.0
 30
0.0
 11
56.90377426147461
 21
59.83256912231445
 31
0.0
  0
LINE
  8
0
 10
-127.6528091430664
 20
56.53376007080078
 30
0.0
 11
-127.80220031738281
 21
56.60987854003906
 31
0.0
  0
LINE
  8
0
 10
39.19750213623047
 20
-22.610031127929688
 30
0.0
 11
39.34688949584961
 21
-22.533912658691406
 31
0.0
  0
LINE
  8
0
 10
-127.0
 20
56.39500045776367
 30
0.0
 11
-126.83222961425781
 21
56.40379333496094
 31
0.0
  0
LINE
  8
0
 10
126.3471908569336
 20
56.53376007080078
 30
0.0
 11
126.34751892089844
 21
56.533634185791016
 31
0.0
  0
LINE
  8
0
 10
-125.53376007080078
 20
58.65281295776367
 30
0.0
 11
-125.60987854003906
 21
58.80220031738281
 31
0.0
  0
LINE
  8
0
 10
-125.43017578125
 20
57.66593551635742
 30
0.0
 11
-125.47355651855469
 21
57.5040283203125
 31
0.0
  0
LINE
  8
0
 10
-128.29847717285156
 20
57.05660629272461
 30
0.0
 11
-128.19296264648438
 21
56.92630386352539
 31
0.0
  0
LINE
  8
0
 10
-128.29847717285156
 20
57.05660629272461
 30
0.0
 11
-128.2296905517578
 21
56.97166061401367
 31
0.0
  0
LINE
  8
0
 10
-58.500335693359375
 20
61.60498046875
 30
0.0
 11
-58.65622329711914
 21
61.5968132019043
 31
0.0
  0
LINE
  8
0
 10
-128.59616088867188
 20
58.16809844970703
 30
0.0
 11
-128.59620666503906
 21
58.16776657104492
 31
0.0
  0
LINE
  8
0
 10
-40.65281295776367
 20
-22.53376007080078
 30
0.0
 11
-40.65312957763672
 21
-22.533920288085938
 31
0.0
  0
LINE
  8
0
 10
-119.16630554199219
 20
-15.930073738098145
 30
0.0
 11
-119.33222961425781
 21
-15.903792381286621
 31
0.0
  0
LINE
  8
0
 10
-120.44339752197266
 20
-18.798471450805664
 30
0.0
 11
-120.443115234375
 21
-18.798654556274414
 31
0.0
  0
LINE
  8
0
 10
-117.9300765991211
 20
-17.833698272705078
 30
0.0
 11
-117.93016052246094
 21
-17.834022521972656
 31
0.0
  0
LINE
  8
0
 10
-119.16630554199219
 20
-15.930073738098145
 30
0.0
 11
-119.16670989990234
 21
-15.930008888244629
 31
0.0
  0
LINE
  8
0
 10
-125.53376007080078
 20
58.65281295776367
 30
0.0
 11
-125.53363800048828
 21
58.65250015258789
 31
0.0
  0
LINE
  8
0
 10
120.79825592041016
 20
-18.443655014038086
 30
0.0
 11
120.6927490234375
 21
-18.573955535888672
 31
0.0
  0
LINE
  8
0
 10
-120.96623992919922
 20
-18.152812957763672
 30
0.0
 11
-120.96636199951172
 21
-18.15250015258789
 31
0.0
  0
LINE
  8
0
 10
41.56983947753906
 20
-24.334022521972656
 30
0.0
 11
41.52644348144531
 21
-24.4959716796875
 31
0.0
  0
LINE
  8
0
 10
-39.999664306640625
 20
-25.604982376098633
 30
0.0
 11
-39.83223342895508
 21
-25.596206665039062
 31
0.0
  0
LINE
  8
0
 10
57.69750213623047
 20
61.38996887207031
 30
0.0
 11
57.69721984863281
 21
61.38978576660156
 31
0.0
  0
LINE
  8
0
 10
-38.40379333496094
 20
-24.167766571044922
 30
0.0
 11
-38.403846740722656
 21
-24.16809844970703
 31
0.0
  0
LINE
  8
0
 10
-38.40379333496094
 20
-24.167766571044922
 30
0.0
 11
-38.43007278442383
 21
-24.333698272705078
 31
0.0
  0
LINE
  8
0
 10
58.668148040771484
 20
58.40385437011719
 30
0.0
 11
58.66776657104492
 21
58.40379333496094
 31
0.0
  0
LINE
  8
0
 10
58.668148040771484
 20
58.40385437011719
 30
0.0
 11
58.83369827270508
 21
58.43007278442383
 31
0.0
  0
LINE
  8
0
 10
-41.52644348144531
 20
-24.4959716796875
 30
0.0
 11
-41.46636199951172
 21
-24.65250015258789
 31
0.0
  0
LINE
  8
0
 10
128.60499572753906
 20
58.0
 30
0.0
 11
128.60498046875
 21
57.999664306640625
 31
0.0
  0
LINE
  8
0
 10
-58.5
 20
58.39500045776367
 30
0.0
 11
-58.667381286621094
 21
58.40377426147461
 31
0.0
  0
LINE
  8
0
 10
-40.16809844970703
 20
-22.403846740722656
 30
0.0
 11
-40.244956970214844
 21
-22.416017532348633
 31
0.0
  0
LINE
  8
0
 10
66.55599975585938
 20
68.25801086425781
 30
0.0
 11
62.34199523925781
 21
66.84001159667969
 31
0.0
  0
LINE
  8
0
 10
40.16776657104492
 20
-22.403793334960938
 30
0.0
 11
40.16743087768555
 21
-22.403776168823242
 31
0.0
  0
LINE
  8
0
 10
40.16776657104492
 20
-22.403793334960938
 30
0.0
 11
40.0
 21
-22.395000457763672
 31
0.0
  0
LINE
  8
0
 10
-120.70201110839844
 20
-23.194000244140625
 30
0.0
 11
-122.64201354980469
 21
-21.540000915527344
 31
0.0
  0
LINE
  8
0
 10
38.40377426147461
 20
-24.167430877685547
 30
0.0
 11
38.40379333496094
 21
-24.167766571044922
 31
0.0
  0
LINE
  8
0
 10
40.16776657104492
 20
-22.403793334960938
 30
0.0
 11
40.24465560913086
 21
-22.415969848632812
 31
0.0
  0
LINE
  8
0
 10
60.10499954223633
 20
60.0
 30
0.0
 11
60.10498046875
 21
59.999664306640625
 31
0.0
  0
LINE
  8
0
 10
120.57369232177734
 20
-16.30704116821289
 30
0.0
 11
120.44339752197266
 21
-16.201528549194336
 31
0.0
  0
LINE
  8
0
 10
-125.4300765991211
 20
57.66630172729492
 30
0.0
 11
-125.43017578125
 21
57.66593551635742
 31
0.0
  0
LINE
  8
0
 10
-127.33369445800781
 20
56.43007278442383
 30
0.0
 11
-127.49565124511719
 21
56.47346878051758
 31
0.0
  0
LINE
  8
0
 10
-128.46624755859375
 20
58.65281295776367
 30
0.0
 11
-128.5263214111328
 21
58.49628448486328
 31
0.0
  0
LINE
  8
0
 10
-59.6927490234375
 20
61.07395553588867
 30
0.0
 11
-59.79825973510742
 21
60.94365310668945
 31
0.0
  0
LINE
  8
0
 10
-120.88996887207031
 20
-16.697500228881836
 30
0.0
 11
-120.9660873413086
 21
-16.846887588500977
 31
0.0
  0
LINE
  8
0
 10
-41.07369613647461
 20
-25.19295883178711
 30
0.0
 11
-40.94339370727539
 21
-25.298471450805664
 31
0.0
  0
LINE
  8
0
 10
127.80249786376953
 20
59.38996887207031
 30
0.0
 11
127.94339752197266
 21
59.29846954345703
 31
0.0
  0
LINE
  8
0
 10
127.80249786376953
 20
59.38996887207031
 30
0.0
 11
127.943115234375
 21
59.29865264892578
 31
0.0
  0
LINE
  8
0
 10
118.55660247802734
 20
-18.798471450805664
 30
0.0
 11
118.69750213623047
 21
-18.889968872070312
 31
0.0
  0
LINE
  8
0
 10
126.66630554199219
 20
59.56992721557617
 30
0.0
 11
126.66598510742188
 21
59.56983947753906
 31
0.0
  0
LINE
  8
0
 10
128.1927490234375
 20
59.07395553588867
 30
0.0
 11
128.19296264648438
 21
59.07369613647461
 31
0.0
  0
LINE
  8
0
 10
32.571990966796875
 20
-24.964000701904297
 30
0.0
 11
35.17799377441406
 21
-25.972000122070312
 31
0.0
  0
LINE
  8
0
 10
39.66630172729492
 20
-22.430072784423828
 30
0.0
 11
39.665977478027344
 21
-22.430160522460938
 31
0.0
  0
LINE
  8
0
 10
125.47355651855469
 20
58.4959716796875
 30
0.0
 11
125.43016052246094
 21
58.334022521972656
 31
0.0
  0
LINE
  8
0
 10
-119.16598510742188
 20
-19.069839477539062
 30
0.0
 11
-119.16630554199219
 21
-19.069927215576172
 31
0.0
  0
LINE
  8
0
 10
-119.16598510742188
 20
-19.069839477539062
 30
0.0
 11
-119.0040283203125
 21
-19.026445388793945
 31
0.0
  0
LINE
  8
0
 10
-118.3072509765625
 20
-18.573955535888672
 30
0.0
 11
-118.42581176757812
 21
-18.6925106048584
 31
0.0
  0
LINE
  8
0
 10
-118.3072509765625
 20
-18.573955535888672
 30
0.0
 11
-118.4260482788086
 21
-18.692747116088867
 31
0.0
  0
LINE
  8
0
 10
120.44339752197266
 20
-18.798471450805664
 30
0.0
 11
120.30278015136719
 21
-18.889785766601562
 31
0.0
  0
LINE
  8
0
 10
-120.88996887207031
 20
-16.697500228881836
 30
0.0
 11
-120.96623992919922
 21
-16.847187042236328
 31
0.0
  0
LINE
  8
0
 10
117.90379333496094
 20
-17.332233428955078
 30
0.0
 11
117.89501953125
 21
-17.499650955200195
 31
0.0
  0
LINE
  8
0
 10
117.90379333496094
 20
-17.332233428955078
 30
0.0
 11
117.90384674072266
 21
-17.331890106201172
 31
0.0
  0
LINE
  8
0
 10
126.50371551513672
 20
59.52632141113281
 30
0.0
 11
126.3471908569336
 21
59.46623992919922
 31
0.0
  0
LINE
  8
0
 10
120.88978576660156
 20
-18.302780151367188
 30
0.0
 11
120.80937957763672
 21
-18.42659568786621
 31
0.0
  0
LINE
  8
0
 10
-41.60499954223633
 20
-24.0
 30
0.0
 11
-41.59622573852539
 21
-24.167430877685547
 31
0.0
  0
LINE
  8
0
 10
-41.60499954223633
 20
-24.0
 30
0.0
 11
-41.60498046875
 21
-23.999664306640625
 31
0.0
  0
LINE
  8
0
 10
-58.99628448486328
 20
61.52632141113281
 30
0.0
 11
-59.15281295776367
 21
61.46623992919922
 31
0.0
  0
LINE
  8
0
 10
-56.97367858886719
 20
59.50371551513672
 30
0.0
 11
-56.98564147949219
 21
59.47254943847656
 31
0.0
  0
LINE
  8
0
 10
120.96623992919922
 20
-18.152812957763672
 30
0.0
 11
120.88996887207031
 21
-18.302499771118164
 31
0.0
  0
LINE
  8
0
 10
56.97355651855469
 20
60.4959716796875
 30
0.0
 11
56.93016052246094
 21
60.334022521972656
 31
0.0
  0
LINE
  8
0
 10
57.20153045654297
 20
59.05660629272461
 30
0.0
 11
57.3070182800293
 21
58.926334381103516
 31
0.0
  0
LINE
  8
0
 10
-39.83256912231445
 20
-22.403776168823242
 30
0.0
 11
-39.936302185058594
 21
-22.398338317871094
 31
0.0
  0
LINE
  8
0
 10
40.4959716796875
 20
-22.473554611206055
 30
0.0
 11
40.49563217163086
 21
-22.473464965820312
 31
0.0
  0
LINE
  8
0
 10
-0.014007568359375
 20
-22.374000549316406
 30
0.0
 11
-0.0019989013671875
 21
-22.374000549316406
 31
0.0
  0
LINE
  8
0
 10
40.4959716796875
 20
-22.473554611206055
 30
0.0
 11
40.65281295776367
 21
-22.53376007080078
 31
0.0
  0
LINE
  8
0
 10
-157.6680145263672
 20
-8.487998962402344
 30
0.0
 11
-141.04800415039062
 21
-14.993999481201172
 31
0.0
  0
LINE
  8
0
 10
-116.406005859375
 20
68.28401184082031
 30
0.0
 11
-108.40400695800781
 21
71.19400024414062
 31
0.0
  0
LINE
  8
0
 10
38.70153045654297
 20
-24.94339370727539
 30
0.0
 11
38.80704116821289
 21
-25.073694229125977
 31
0.0
  0
LINE
  8
0
 10
38.70153045654297
 20
-24.94339370727539
 30
0.0
 11
38.8072509765625
 21
-25.073955535888672
 31
0.0
  0
LINE
  8
0
 10
39.05660629272461
 20
-25.298471450805664
 30
0.0
 11
39.19750213623047
 21
-25.389968872070312
 31
0.0
  0
LINE
  8
0
 10
39.05660629272461
 20
-25.298471450805664
 30
0.0
 11
39.056888580322266
 21
-25.298654556274414
 31
0.0
  0
LINE
  8
0
 10
40.4959716796875
 20
-22.473554611206055
 30
0.0
 11
40.65248107910156
 21
-22.533634185791016
 31
0.0
  0
LINE
  8
0
 10
60.09620666503906
 20
60.16776657104492
 30
0.0
 11
60.09622573852539
 21
60.16743087768555
 31
0.0
  0
LINE
  8
0
 10
-126.34687805175781
 20
56.53392028808594
 30
0.0
 11
-126.3471908569336
 21
56.53376007080078
 31
0.0
  0
LINE
  8
0
 10
-125.9260482788086
 20
56.8072509765625
 30
0.0
 11
-125.8072509765625
 21
56.92604446411133
 31
0.0
  0
LINE
  8
0
 10
-125.70153045654297
 20
58.94339370727539
 30
0.0
 11
-125.70134735107422
 21
58.943111419677734
 31
0.0
  0
LINE
  8
0
 10
-121.02644348144531
 20
-17.9959716796875
 30
0.0
 11
-120.96636199951172
 21
-18.15250015258789
 31
0.0
  0
LINE
  8
0
 10
-0.014007568359375
 20
-22.374000549316406
 30
0.0
 11
-24.508010864257812
 21
-21.795997619628906
 31
0.0
  0
LINE
  8
0
 10
108.40000915527344
 20
71.19400024414062
 30
0.0
 11
116.40599060058594
 21
68.28401184082031
 31
0.0
  0
LINE
  8
0
 10
128.5264434814453
 20
57.5040283203125
 30
0.0
 11
128.5263214111328
 21
57.50371551513672
 31
0.0
  0
LINE
  8
0
 10
127.4959716796875
 20
56.47355651855469
 30
0.0
 11
127.6528091430664
 21
56.53376007080078
 31
0.0
  0
LINE
  8
0
 10
-128.07420349121094
 20
56.80748748779297
 30
0.0
 11
-128.07395935058594
 21
56.8072509765625
 31
0.0
  0
LINE
  8
0
 10
126.19721984863281
 20
59.38978576660156
 30
0.0
 11
126.05660247802734
 21
59.29846954345703
 31
0.0
  0
LINE
  8
0
 10
-117.90377807617188
 20
-17.33258056640625
 30
0.0
 11
-117.89500427246094
 21
-17.5
 31
0.0
  0
LINE
  8
0
 10
-120.96623992919922
 20
-16.847187042236328
 30
0.0
 11
-121.02632141113281
 21
-17.00371551513672
 31
0.0
  0
LINE
  8
0
 10
-120.96623992919922
 20
-16.847187042236328
 30
0.0
 11
-120.9660873413086
 21
-16.846887588500977
 31
0.0
  0
LINE
  8
0
 10
56.97355651855469
 20
60.4959716796875
 30
0.0
 11
56.97367858886719
 21
60.49628448486328
 31
0.0
  0
LINE
  8
0
 10
119.66777038574219
 20
-15.903792381286621
 30
0.0
 11
119.66738891601562
 21
-15.903772354125977
 31
0.0
  0
LINE
  8
0
 10
119.66777038574219
 20
-15.903792381286621
 30
0.0
 11
119.5
 21
-15.895000457763672
 31
0.0
  0
LINE
  8
0
 10
117.90377807617188
 20
-17.667430877685547
 30
0.0
 11
117.90379333496094
 21
-17.667766571044922
 31
0.0
  0
LINE
  8
0
 10
120.96623992919922
 20
-18.152812957763672
 30
0.0
 11
121.02644348144531
 21
-17.9959716796875
 31
0.0
  0
LINE
  8
0
 10
119.66777038574219
 20
-15.903792381286621
 30
0.0
 11
119.83332824707031
 21
-15.930015563964844
 31
0.0
  0
LINE
  8
0
 10
120.96623992919922
 20
-18.152812957763672
 30
0.0
 11
121.02632141113281
 21
-17.99628448486328
 31
0.0
  0
LINE
  8
0
 10
127.4959716796875
 20
56.47355651855469
 30
0.0
 11
127.49628448486328
 21
56.47367858886719
 31
0.0
  0
LINE
  8
0
 10
-57.20153045654297
 20
59.05660629272461
 30
0.0
 11
-57.20175552368164
 21
59.056331634521484
 31
0.0
  0
LINE
  8
0
 10
-57.20153045654297
 20
59.05660629272461
 30
0.0
 11
-57.3072509765625
 21
58.92604446411133
 31
0.0
  0
LINE
  8
0
 10
-39.05634689331055
 20
-25.298259735107422
 30
0.0
 11
-39.05660629272461
 21
-25.298471450805664
 31
0.0
  0
LINE
  8
0
 10
-57.20153045654297
 20
59.05660629272461
 30
0.0
 11
-57.11003112792969
 21
59.19750213623047
 31
0.0
  0
LINE
  8
0
 10
-57.20153045654297
 20
59.05660629272461
 30
0.0
 11
-57.11021423339844
 21
59.19721984863281
 31
0.0
  0
LINE
  8
0
 10
120.96623992919922
 20
-18.152812957763672
 30
0.0
 11
120.9660873413086
 21
-18.153112411499023
 31
0.0
  0
LINE
  8
0
 10
59.443111419677734
 20
61.29865264892578
 30
0.0
 11
59.30249786376953
 21
61.38996887207031
 31
0.0
  0
LINE
  8
0
 10
58.00444412231445
 20
58.473445892333984
 30
0.0
 11
58.00764465332031
 21
58.47258758544922
 31
0.0
  0
LINE
  8
0
 10
-125.9260482788086
 20
56.8072509765625
 30
0.0
 11
-126.05631256103516
 21
56.70176315307617
 31
0.0
  0
LINE
  8
0
 10
-39.50435256958008
 20
-22.473466873168945
 30
0.0
 11
-39.66630172729492
 21
-22.430072784423828
 31
0.0
  0
LINE
  8
0
 10
-41.07369613647461
 20
-25.19295883178711
 30
0.0
 11
-41.07395553588867
 21
-25.192747116088867
 31
0.0
  0
LINE
  8
0
 10
122.64201354980469
 20
-21.540000915527344
 30
0.0
 11
120.69999694824219
 21
-23.194000244140625
 31
0.0
  0
LINE
  8
0
 10
122.64201354980469
 20
-21.540000915527344
 30
0.0
 11
125.17399597167969
 21
-20.177997589111328
 31
0.0
  0
LINE
  8
0
 10
39.34718704223633
 20
-22.53376007080078
 30
0.0
 11
39.19750213623047
 21
-22.610031127929688
 31
0.0
  0
LINE
  8
0
 10
39.19750213623047
 20
-22.610031127929688
 30
0.0
 11
39.19721984863281
 21
-22.610214233398438
 31
0.0
  0
LINE
  8
0
 10
39.34718704223633
 20
-22.53376007080078
 30
0.0
 11
39.34688949584961
 21
-22.533912658691406
 31
0.0
  0
LINE
  8
0
 10
-66.56000518798828
 20
68.25801086425781
 30
0.0
 11
-62.342010498046875
 21
66.84001159667969
 31
0.0
  0
LINE
  8
0
 10
-66.56000518798828
 20
68.25801086425781
 30
0.0
 11
-87.03400421142578
 21
77.52200317382812
 31
0.0
  0
LINE
  8
0
 10
57.55660629272461
 20
58.70153045654297
 30
0.0
 11
57.556941986083984
 21
58.70131301879883
 31
0.0
  0
LINE
  8
0
 10
57.55660629272461
 20
58.70153045654297
 30
0.0
 11
57.69750213623047
 21
58.61003112792969
 31
0.0
  0
LINE
  8
0
 10
-128.5264434814453
 20
58.4959716796875
 30
0.0
 11
-128.56983947753906
 21
58.334022521972656
 31
0.0
  0
LINE
  8
0
 10
-128.5264434814453
 20
58.4959716796875
 30
0.0
 11
-128.46624755859375
 21
58.65281295776367
 31
0.0
  0
LINE
  8
0
 10
-126.66598510742188
 20
56.43016052246094
 30
0.0
 11
-126.62329864501953
 21
56.44159698486328
 31
0.0
  0
LINE
  8
0
 10
-127.0
 20
56.39500045776367
 30
0.0
 11
-126.99966430664062
 21
56.39501953125
 31
0.0
  0
LINE
  8
0
 10
-128.5264434814453
 20
58.4959716796875
 30
0.0
 11
-128.5263214111328
 21
58.49628448486328
 31
0.0
  0
LINE
  8
0
 10
125.47355651855469
 20
58.4959716796875
 30
0.0
 11
125.53376007080078
 21
58.65281295776367
 31
0.0
  0
LINE
  8
0
 10
125.47355651855469
 20
58.4959716796875
 30
0.0
 11
125.47367858886719
 21
58.49628448486328
 31
0.0
  0
LINE
  8
0
 10
128.56993103027344
 20
57.66630172729492
 30
0.0
 11
128.56983947753906
 21
57.665977478027344
 31
0.0
  0
LINE
  8
0
 10
128.56993103027344
 20
57.66630172729492
 30
0.0
 11
128.5264434814453
 21
57.5040283203125
 31
0.0
  0
ENDSEC
  0
EOF
